<svg xmlns="http://www.w3.org/2000/svg" viewBox="0 0 640 560" width="640" height="560" role="img" aria-label="AetherSDR v26.9.2 — Four skimmers, one stream">
  <defs>
    <linearGradient id="bg" x1="0" y1="0" x2="0.35" y2="1">
      <stop offset="0" stop-color="#0a121e"/>
      <stop offset="0.55" stop-color="#060b13"/>
      <stop offset="1" stop-color="#070d17"/>
    </linearGradient>
    <linearGradient id="chain" gradientUnits="userSpaceOnUse"
        x1="0" y1="0" x2="0" y2="0">
      <stop offset="0" stop-color="#3aa7ff" stop-opacity="0.30"/>
      <stop offset="0.5" stop-color="#5de3ff" stop-opacity="0.7"/>
      <stop offset="1" stop-color="#8ef7e6" stop-opacity="1"/>
    </linearGradient>
    <linearGradient id="accent" x1="0" y1="0" x2="1" y2="1">
      <stop offset="0" stop-color="#3aa7ff"/>
      <stop offset="0.45" stop-color="#5de3ff"/>
      <stop offset="1" stop-color="#8ef7e6"/>
    </linearGradient>
    <linearGradient id="trace" x1="0" y1="0" x2="1" y2="0">
      <stop offset="0" stop-color="#3aa7ff" stop-opacity="0.35"/>
      <stop offset="0.6" stop-color="#5de3ff" stop-opacity="0.9"/>
      <stop offset="1" stop-color="#8ef7e6"/>
    </linearGradient>
    <linearGradient id="fade" x1="0" y1="0" x2="0" y2="1">
      <stop offset="0" stop-color="#ffffff" stop-opacity="0.85"/>
      <stop offset="1" stop-color="#ffffff" stop-opacity="0"/>
    </linearGradient>
    <mask id="wfmask">
      <rect x="0" y="0" width="640" height="560" fill="url(#fade)"/>
    </mask>
    <filter id="glow" x="-60%" y="-60%" width="220%" height="220%">
      <feGaussianBlur stdDeviation="7" result="b"/>
      <feMerge><feMergeNode in="b"/><feMergeNode in="SourceGraphic"/></feMerge>
    </filter>
    <filter id="softglow" x="-80%" y="-80%" width="260%" height="260%">
      <feGaussianBlur stdDeviation="14"/>
    </filter>
  </defs>
  <rect width="640" height="560" fill="url(#bg)"/>
  <path d="M34 0V560M68 0V560M102 0V560M136 0V560M170 0V560M204 0V560M238 0V560M272 0V560M306 0V560M340 0V560M374 0V560M408 0V560M442 0V560M476 0V560M510 0V560M544 0V560M578 0V560M612 0V560M0 34H640M0 68H640M0 102H640M0 136H640M0 170H640M0 204H640M0 238H640M0 272H640M0 306H640M0 340H640M0 374H640M0 408H640M0 442H640M0 476H640M0 510H640M0 544H640" stroke="rgba(120,165,210,0.055)" stroke-width="1" fill="none"/>
  <g mask="url(#wfmask)" transform="translate(0 400)"><rect x="0.0" y="0.0" width="6.67" height="10.00" fill="#1f4f86" opacity="0.50"/><rect x="6.7" y="0.0" width="6.67" height="10.00" fill="#1f4f86" opacity="0.50"/><rect x="20.0" y="0.0" width="6.67" height="10.00" fill="#3aa7ff" opacity="0.45"/><rect x="33.3" y="0.0" width="6.67" height="10.00" fill="#5de3ff" opacity="0.60"/><rect x="40.0" y="0.0" width="6.67" height="10.00" fill="#5de3ff" opacity="0.60"/><rect x="53.3" y="0.0" width="6.67" height="10.00" fill="#1f4f86" opacity="0.50"/><rect x="60.0" y="0.0" width="6.67" height="10.00" fill="#5de3ff" opacity="0.60"/><rect x="73.3" y="0.0" width="6.67" height="10.00" fill="#3aa7ff" opacity="0.45"/><rect x="80.0" y="0.0" width="6.67" height="10.00" fill="#1f4f86" opacity="0.50"/><rect x="93.3" y="0.0" width="6.67" height="10.00" fill="#1f4f86" opacity="0.50"/><rect x="206.7" y="0.0" width="6.67" height="10.00" fill="#1f4f86" opacity="0.50"/><rect x="213.3" y="0.0" width="6.67" height="10.00" fill="#1f4f86" opacity="0.50"/><rect x="220.0" y="0.0" width="6.67" height="10.00" fill="#3aa7ff" opacity="0.45"/><rect x="246.7" y="0.0" width="6.67" height="10.00" fill="#3aa7ff" opacity="0.45"/><rect x="260.0" y="0.0" width="6.67" height="10.00" fill="#5de3ff" opacity="0.60"/><rect x="266.7" y="0.0" width="6.67" height="10.00" fill="#1f4f86" opacity="0.50"/><rect x="286.7" y="0.0" width="6.67" height="10.00" fill="#1f4f86" opacity="0.50"/><rect x="293.3" y="0.0" width="6.67" height="10.00" fill="#1f4f86" opacity="0.50"/><rect x="420.0" y="0.0" width="6.67" height="10.00" fill="#3aa7ff" opacity="0.45"/><rect x="426.7" y="0.0" width="6.67" height="10.00" fill="#1f4f86" opacity="0.50"/><rect x="446.7" y="0.0" width="6.67" height="10.00" fill="#3aa7ff" opacity="0.45"/><rect x="453.3" y="0.0" width="6.67" height="10.00" fill="#5de3ff" opacity="0.60"/><rect x="460.0" y="0.0" width="6.67" height="10.00" fill="#3aa7ff" opacity="0.45"/><rect x="480.0" y="0.0" width="6.67" height="10.00" fill="#1f4f86" opacity="0.50"/><rect x="486.7" y="0.0" width="6.67" height="10.00" fill="#3aa7ff" opacity="0.45"/><rect x="500.0" y="0.0" width="6.67" height="10.00" fill="#1f4f86" opacity="0.50"/><rect x="626.7" y="0.0" width="6.67" height="10.00" fill="#3aa7ff" opacity="0.45"/><rect x="633.3" y="0.0" width="6.67" height="10.00" fill="#1f4f86" opacity="0.50"/><rect x="20.0" y="10.0" width="6.67" height="10.00" fill="#3aa7ff" opacity="0.45"/><rect x="26.7" y="10.0" width="6.67" height="10.00" fill="#5de3ff" opacity="0.60"/><rect x="40.0" y="10.0" width="6.67" height="10.00" fill="#5de3ff" opacity="0.60"/><rect x="60.0" y="10.0" width="6.67" height="10.00" fill="#3aa7ff" opacity="0.45"/><rect x="73.3" y="10.0" width="6.67" height="10.00" fill="#3aa7ff" opacity="0.45"/><rect x="80.0" y="10.0" width="6.67" height="10.00" fill="#1f4f86" opacity="0.50"/><rect x="86.7" y="10.0" width="6.67" height="10.00" fill="#1f4f86" opacity="0.50"/><rect x="206.7" y="10.0" width="6.67" height="10.00" fill="#1f4f86" opacity="0.50"/><rect x="233.3" y="10.0" width="6.67" height="10.00" fill="#5de3ff" opacity="0.60"/><rect x="240.0" y="10.0" width="6.67" height="10.00" fill="#3aa7ff" opacity="0.45"/><rect x="246.7" y="10.0" width="6.67" height="10.00" fill="#3aa7ff" opacity="0.45"/><rect x="253.3" y="10.0" width="6.67" height="10.00" fill="#3aa7ff" opacity="0.45"/><rect x="266.7" y="10.0" width="6.67" height="10.00" fill="#3aa7ff" opacity="0.45"/><rect x="293.3" y="10.0" width="6.67" height="10.00" fill="#1f4f86" opacity="0.50"/><rect x="413.3" y="10.0" width="6.67" height="10.00" fill="#1f4f86" opacity="0.50"/><rect x="420.0" y="10.0" width="6.67" height="10.00" fill="#3aa7ff" opacity="0.45"/><rect x="426.7" y="10.0" width="6.67" height="10.00" fill="#5de3ff" opacity="0.60"/><rect x="446.7" y="10.0" width="6.67" height="10.00" fill="#3aa7ff" opacity="0.45"/><rect x="453.3" y="10.0" width="6.67" height="10.00" fill="#1f4f86" opacity="0.50"/><rect x="473.3" y="10.0" width="6.67" height="10.00" fill="#3aa7ff" opacity="0.45"/><rect x="486.7" y="10.0" width="6.67" height="10.00" fill="#1f4f86" opacity="0.50"/><rect x="500.0" y="10.0" width="6.67" height="10.00" fill="#1f4f86" opacity="0.50"/><rect x="613.3" y="10.0" width="6.67" height="10.00" fill="#1f4f86" opacity="0.50"/><rect x="626.7" y="10.0" width="6.67" height="10.00" fill="#3aa7ff" opacity="0.45"/><rect x="633.3" y="10.0" width="6.67" height="10.00" fill="#1f4f86" opacity="0.50"/><rect x="26.7" y="20.0" width="6.67" height="10.00" fill="#3aa7ff" opacity="0.45"/><rect x="53.3" y="20.0" width="6.67" height="10.00" fill="#5de3ff" opacity="0.60"/><rect x="66.7" y="20.0" width="6.67" height="10.00" fill="#1f4f86" opacity="0.50"/><rect x="200.0" y="20.0" width="6.67" height="10.00" fill="#1f4f86" opacity="0.50"/><rect x="206.7" y="20.0" width="6.67" height="10.00" fill="#3aa7ff" opacity="0.45"/><rect x="213.3" y="20.0" width="6.67" height="10.00" fill="#3aa7ff" opacity="0.45"/><rect x="220.0" y="20.0" width="6.67" height="10.00" fill="#3aa7ff" opacity="0.45"/><rect x="226.7" y="20.0" width="6.67" height="10.00" fill="#3aa7ff" opacity="0.45"/><rect x="233.3" y="20.0" width="6.67" height="10.00" fill="#3aa7ff" opacity="0.45"/><rect x="240.0" y="20.0" width="6.67" height="10.00" fill="#3aa7ff" opacity="0.45"/><rect x="413.3" y="20.0" width="6.67" height="10.00" fill="#1f4f86" opacity="0.50"/><rect x="420.0" y="20.0" width="6.67" height="10.00" fill="#5de3ff" opacity="0.60"/><rect x="440.0" y="20.0" width="6.67" height="10.00" fill="#3aa7ff" opacity="0.45"/><rect x="460.0" y="20.0" width="6.67" height="10.00" fill="#5de3ff" opacity="0.60"/><rect x="473.3" y="20.0" width="6.67" height="10.00" fill="#1f4f86" opacity="0.50"/><rect x="480.0" y="20.0" width="6.67" height="10.00" fill="#3aa7ff" opacity="0.45"/><rect x="493.3" y="20.0" width="6.67" height="10.00" fill="#1f4f86" opacity="0.50"/><rect x="600.0" y="20.0" width="6.67" height="10.00" fill="#1f4f86" opacity="0.50"/><rect x="620.0" y="20.0" width="6.67" height="10.00" fill="#3aa7ff" opacity="0.45"/><rect x="626.7" y="20.0" width="6.67" height="10.00" fill="#3aa7ff" opacity="0.45"/><rect x="6.7" y="30.0" width="6.67" height="10.00" fill="#3aa7ff" opacity="0.45"/><rect x="33.3" y="30.0" width="6.67" height="10.00" fill="#1f4f86" opacity="0.50"/><rect x="66.7" y="30.0" width="6.67" height="10.00" fill="#1f4f86" opacity="0.50"/><rect x="206.7" y="30.0" width="6.67" height="10.00" fill="#3aa7ff" opacity="0.45"/><rect x="213.3" y="30.0" width="6.67" height="10.00" fill="#3aa7ff" opacity="0.45"/><rect x="240.0" y="30.0" width="6.67" height="10.00" fill="#1f4f86" opacity="0.50"/><rect x="253.3" y="30.0" width="6.67" height="10.00" fill="#5de3ff" opacity="0.60"/><rect x="260.0" y="30.0" width="6.67" height="10.00" fill="#3aa7ff" opacity="0.45"/><rect x="266.7" y="30.0" width="6.67" height="10.00" fill="#5de3ff" opacity="0.60"/><rect x="273.3" y="30.0" width="6.67" height="10.00" fill="#3aa7ff" opacity="0.45"/><rect x="293.3" y="30.0" width="6.67" height="10.00" fill="#1f4f86" opacity="0.50"/><rect x="393.3" y="30.0" width="6.67" height="10.00" fill="#1f4f86" opacity="0.50"/><rect x="400.0" y="30.0" width="6.67" height="10.00" fill="#1f4f86" opacity="0.50"/><rect x="406.7" y="30.0" width="6.67" height="10.00" fill="#1f4f86" opacity="0.50"/><rect x="413.3" y="30.0" width="6.67" height="10.00" fill="#3aa7ff" opacity="0.45"/><rect x="420.0" y="30.0" width="6.67" height="10.00" fill="#5de3ff" opacity="0.60"/><rect x="426.7" y="30.0" width="6.67" height="10.00" fill="#1f4f86" opacity="0.50"/><rect x="440.0" y="30.0" width="6.67" height="10.00" fill="#1f4f86" opacity="0.50"/><rect x="446.7" y="30.0" width="6.67" height="10.00" fill="#5de3ff" opacity="0.60"/><rect x="453.3" y="30.0" width="6.67" height="10.00" fill="#3aa7ff" opacity="0.45"/><rect x="460.0" y="30.0" width="6.67" height="10.00" fill="#5de3ff" opacity="0.60"/><rect x="473.3" y="30.0" width="6.67" height="10.00" fill="#1f4f86" opacity="0.50"/><rect x="486.7" y="30.0" width="6.67" height="10.00" fill="#1f4f86" opacity="0.50"/><rect x="0.0" y="40.0" width="6.67" height="10.00" fill="#1f4f86" opacity="0.50"/><rect x="6.7" y="40.0" width="6.67" height="10.00" fill="#3aa7ff" opacity="0.45"/><rect x="20.0" y="40.0" width="6.67" height="10.00" fill="#1f4f86" opacity="0.50"/><rect x="26.7" y="40.0" width="6.67" height="10.00" fill="#3aa7ff" opacity="0.45"/><rect x="33.3" y="40.0" width="6.67" height="10.00" fill="#1f4f86" opacity="0.50"/><rect x="46.7" y="40.0" width="6.67" height="10.00" fill="#3aa7ff" opacity="0.45"/><rect x="60.0" y="40.0" width="6.67" height="10.00" fill="#3aa7ff" opacity="0.45"/><rect x="66.7" y="40.0" width="6.67" height="10.00" fill="#1f4f86" opacity="0.50"/><rect x="73.3" y="40.0" width="6.67" height="10.00" fill="#3aa7ff" opacity="0.45"/><rect x="80.0" y="40.0" width="6.67" height="10.00" fill="#1f4f86" opacity="0.50"/><rect x="213.3" y="40.0" width="6.67" height="10.00" fill="#3aa7ff" opacity="0.45"/><rect x="233.3" y="40.0" width="6.67" height="10.00" fill="#5de3ff" opacity="0.60"/><rect x="240.0" y="40.0" width="6.67" height="10.00" fill="#3aa7ff" opacity="0.45"/><rect x="246.7" y="40.0" width="6.67" height="10.00" fill="#3aa7ff" opacity="0.45"/><rect x="253.3" y="40.0" width="6.67" height="10.00" fill="#1f4f86" opacity="0.50"/><rect x="260.0" y="40.0" width="6.67" height="10.00" fill="#1f4f86" opacity="0.50"/><rect x="286.7" y="40.0" width="6.67" height="10.00" fill="#1f4f86" opacity="0.50"/><rect x="393.3" y="40.0" width="6.67" height="10.00" fill="#1f4f86" opacity="0.50"/><rect x="413.3" y="40.0" width="6.67" height="10.00" fill="#3aa7ff" opacity="0.45"/><rect x="433.3" y="40.0" width="6.67" height="10.00" fill="#3aa7ff" opacity="0.45"/><rect x="460.0" y="40.0" width="6.67" height="10.00" fill="#5de3ff" opacity="0.60"/><rect x="466.7" y="40.0" width="6.67" height="10.00" fill="#5de3ff" opacity="0.60"/><rect x="493.3" y="40.0" width="6.67" height="10.00" fill="#1f4f86" opacity="0.50"/><rect x="620.0" y="40.0" width="6.67" height="10.00" fill="#3aa7ff" opacity="0.45"/><rect x="0.0" y="50.0" width="6.67" height="10.00" fill="#1f4f86" opacity="0.50"/><rect x="6.7" y="50.0" width="6.67" height="10.00" fill="#1f4f86" opacity="0.50"/><rect x="26.7" y="50.0" width="6.67" height="10.00" fill="#3aa7ff" opacity="0.45"/><rect x="33.3" y="50.0" width="6.67" height="10.00" fill="#3aa7ff" opacity="0.45"/><rect x="40.0" y="50.0" width="6.67" height="10.00" fill="#8ef7e6" opacity="0.85"/><rect x="46.7" y="50.0" width="6.67" height="10.00" fill="#5de3ff" opacity="0.60"/><rect x="53.3" y="50.0" width="6.67" height="10.00" fill="#3aa7ff" opacity="0.45"/><rect x="60.0" y="50.0" width="6.67" height="10.00" fill="#1f4f86" opacity="0.50"/><rect x="73.3" y="50.0" width="6.67" height="10.00" fill="#1f4f86" opacity="0.50"/><rect x="93.3" y="50.0" width="6.67" height="10.00" fill="#1f4f86" opacity="0.50"/><rect x="193.3" y="50.0" width="6.67" height="10.00" fill="#1f4f86" opacity="0.50"/><rect x="200.0" y="50.0" width="6.67" height="10.00" fill="#1f4f86" opacity="0.50"/><rect x="206.7" y="50.0" width="6.67" height="10.00" fill="#3aa7ff" opacity="0.45"/><rect x="220.0" y="50.0" width="6.67" height="10.00" fill="#1f4f86" opacity="0.50"/><rect x="233.3" y="50.0" width="6.67" height="10.00" fill="#5de3ff" opacity="0.60"/><rect x="240.0" y="50.0" width="6.67" height="10.00" fill="#1f4f86" opacity="0.50"/><rect x="253.3" y="50.0" width="6.67" height="10.00" fill="#5de3ff" opacity="0.60"/><rect x="260.0" y="50.0" width="6.67" height="10.00" fill="#5de3ff" opacity="0.60"/><rect x="280.0" y="50.0" width="6.67" height="10.00" fill="#1f4f86" opacity="0.50"/><rect x="420.0" y="50.0" width="6.67" height="10.00" fill="#1f4f86" opacity="0.50"/><rect x="426.7" y="50.0" width="6.67" height="10.00" fill="#5de3ff" opacity="0.60"/><rect x="440.0" y="50.0" width="6.67" height="10.00" fill="#3aa7ff" opacity="0.45"/><rect x="446.7" y="50.0" width="6.67" height="10.00" fill="#3aa7ff" opacity="0.45"/><rect x="453.3" y="50.0" width="6.67" height="10.00" fill="#1f4f86" opacity="0.50"/><rect x="460.0" y="50.0" width="6.67" height="10.00" fill="#1f4f86" opacity="0.50"/><rect x="473.3" y="50.0" width="6.67" height="10.00" fill="#3aa7ff" opacity="0.45"/><rect x="493.3" y="50.0" width="6.67" height="10.00" fill="#1f4f86" opacity="0.50"/><rect x="613.3" y="50.0" width="6.67" height="10.00" fill="#3aa7ff" opacity="0.45"/><rect x="6.7" y="60.0" width="6.67" height="10.00" fill="#1f4f86" opacity="0.50"/><rect x="20.0" y="60.0" width="6.67" height="10.00" fill="#3aa7ff" opacity="0.45"/><rect x="33.3" y="60.0" width="6.67" height="10.00" fill="#1f4f86" opacity="0.50"/><rect x="40.0" y="60.0" width="6.67" height="10.00" fill="#5de3ff" opacity="0.60"/><rect x="60.0" y="60.0" width="6.67" height="10.00" fill="#3aa7ff" opacity="0.45"/><rect x="200.0" y="60.0" width="6.67" height="10.00" fill="#3aa7ff" opacity="0.45"/><rect x="213.3" y="60.0" width="6.67" height="10.00" fill="#3aa7ff" opacity="0.45"/><rect x="220.0" y="60.0" width="6.67" height="10.00" fill="#5de3ff" opacity="0.60"/><rect x="226.7" y="60.0" width="6.67" height="10.00" fill="#3aa7ff" opacity="0.45"/><rect x="233.3" y="60.0" width="6.67" height="10.00" fill="#3aa7ff" opacity="0.45"/><rect x="240.0" y="60.0" width="6.67" height="10.00" fill="#3aa7ff" opacity="0.45"/><rect x="253.3" y="60.0" width="6.67" height="10.00" fill="#5de3ff" opacity="0.60"/><rect x="266.7" y="60.0" width="6.67" height="10.00" fill="#3aa7ff" opacity="0.45"/><rect x="273.3" y="60.0" width="6.67" height="10.00" fill="#3aa7ff" opacity="0.45"/><rect x="280.0" y="60.0" width="6.67" height="10.00" fill="#3aa7ff" opacity="0.45"/><rect x="400.0" y="60.0" width="6.67" height="10.00" fill="#1f4f86" opacity="0.50"/><rect x="413.3" y="60.0" width="6.67" height="10.00" fill="#1f4f86" opacity="0.50"/><rect x="420.0" y="60.0" width="6.67" height="10.00" fill="#5de3ff" opacity="0.60"/><rect x="426.7" y="60.0" width="6.67" height="10.00" fill="#5de3ff" opacity="0.60"/><rect x="446.7" y="60.0" width="6.67" height="10.00" fill="#3aa7ff" opacity="0.45"/><rect x="453.3" y="60.0" width="6.67" height="10.00" fill="#1f4f86" opacity="0.50"/><rect x="460.0" y="60.0" width="6.67" height="10.00" fill="#5de3ff" opacity="0.60"/><rect x="480.0" y="60.0" width="6.67" height="10.00" fill="#1f4f86" opacity="0.50"/><rect x="586.7" y="60.0" width="6.67" height="10.00" fill="#1f4f86" opacity="0.50"/><rect x="600.0" y="60.0" width="6.67" height="10.00" fill="#1f4f86" opacity="0.50"/><rect x="613.3" y="60.0" width="6.67" height="10.00" fill="#1f4f86" opacity="0.50"/><rect x="620.0" y="60.0" width="6.67" height="10.00" fill="#3aa7ff" opacity="0.45"/><rect x="626.7" y="60.0" width="6.67" height="10.00" fill="#8ef7e6" opacity="0.85"/><rect x="633.3" y="60.0" width="6.67" height="10.00" fill="#3aa7ff" opacity="0.45"/><rect x="0.0" y="70.0" width="6.67" height="10.00" fill="#1f4f86" opacity="0.50"/><rect x="13.3" y="70.0" width="6.67" height="10.00" fill="#5de3ff" opacity="0.60"/><rect x="20.0" y="70.0" width="6.67" height="10.00" fill="#1f4f86" opacity="0.50"/><rect x="26.7" y="70.0" width="6.67" height="10.00" fill="#3aa7ff" opacity="0.45"/><rect x="40.0" y="70.0" width="6.67" height="10.00" fill="#5de3ff" opacity="0.60"/><rect x="46.7" y="70.0" width="6.67" height="10.00" fill="#5de3ff" opacity="0.60"/><rect x="66.7" y="70.0" width="6.67" height="10.00" fill="#3aa7ff" opacity="0.45"/><rect x="80.0" y="70.0" width="6.67" height="10.00" fill="#1f4f86" opacity="0.50"/><rect x="200.0" y="70.0" width="6.67" height="10.00" fill="#3aa7ff" opacity="0.45"/><rect x="233.3" y="70.0" width="6.67" height="10.00" fill="#5de3ff" opacity="0.60"/><rect x="240.0" y="70.0" width="6.67" height="10.00" fill="#1f4f86" opacity="0.50"/><rect x="246.7" y="70.0" width="6.67" height="10.00" fill="#5de3ff" opacity="0.60"/><rect x="253.3" y="70.0" width="6.67" height="10.00" fill="#1f4f86" opacity="0.50"/><rect x="260.0" y="70.0" width="6.67" height="10.00" fill="#1f4f86" opacity="0.50"/><rect x="266.7" y="70.0" width="6.67" height="10.00" fill="#3aa7ff" opacity="0.45"/><rect x="273.3" y="70.0" width="6.67" height="10.00" fill="#3aa7ff" opacity="0.45"/><rect x="400.0" y="70.0" width="6.67" height="10.00" fill="#1f4f86" opacity="0.50"/><rect x="420.0" y="70.0" width="6.67" height="10.00" fill="#1f4f86" opacity="0.50"/><rect x="440.0" y="70.0" width="6.67" height="10.00" fill="#8ef7e6" opacity="0.85"/><rect x="453.3" y="70.0" width="6.67" height="10.00" fill="#1f4f86" opacity="0.50"/><rect x="473.3" y="70.0" width="6.67" height="10.00" fill="#1f4f86" opacity="0.50"/><rect x="613.3" y="70.0" width="6.67" height="10.00" fill="#5de3ff" opacity="0.60"/><rect x="620.0" y="70.0" width="6.67" height="10.00" fill="#1f4f86" opacity="0.50"/><rect x="633.3" y="70.0" width="6.67" height="10.00" fill="#5de3ff" opacity="0.60"/><rect x="6.7" y="80.0" width="6.67" height="10.00" fill="#3aa7ff" opacity="0.45"/><rect x="20.0" y="80.0" width="6.67" height="10.00" fill="#1f4f86" opacity="0.50"/><rect x="33.3" y="80.0" width="6.67" height="10.00" fill="#5de3ff" opacity="0.60"/><rect x="40.0" y="80.0" width="6.67" height="10.00" fill="#5de3ff" opacity="0.60"/><rect x="46.7" y="80.0" width="6.67" height="10.00" fill="#3aa7ff" opacity="0.45"/><rect x="53.3" y="80.0" width="6.67" height="10.00" fill="#1f4f86" opacity="0.50"/><rect x="60.0" y="80.0" width="6.67" height="10.00" fill="#3aa7ff" opacity="0.45"/><rect x="66.7" y="80.0" width="6.67" height="10.00" fill="#1f4f86" opacity="0.50"/><rect x="86.7" y="80.0" width="6.67" height="10.00" fill="#1f4f86" opacity="0.50"/><rect x="193.3" y="80.0" width="6.67" height="10.00" fill="#1f4f86" opacity="0.50"/><rect x="220.0" y="80.0" width="6.67" height="10.00" fill="#1f4f86" opacity="0.50"/><rect x="233.3" y="80.0" width="6.67" height="10.00" fill="#1f4f86" opacity="0.50"/><rect x="246.7" y="80.0" width="6.67" height="10.00" fill="#1f4f86" opacity="0.50"/><rect x="266.7" y="80.0" width="6.67" height="10.00" fill="#3aa7ff" opacity="0.45"/><rect x="273.3" y="80.0" width="6.67" height="10.00" fill="#3aa7ff" opacity="0.45"/><rect x="400.0" y="80.0" width="6.67" height="10.00" fill="#3aa7ff" opacity="0.45"/><rect x="406.7" y="80.0" width="6.67" height="10.00" fill="#3aa7ff" opacity="0.45"/><rect x="413.3" y="80.0" width="6.67" height="10.00" fill="#1f4f86" opacity="0.50"/><rect x="420.0" y="80.0" width="6.67" height="10.00" fill="#1f4f86" opacity="0.50"/><rect x="426.7" y="80.0" width="6.67" height="10.00" fill="#3aa7ff" opacity="0.45"/><rect x="433.3" y="80.0" width="6.67" height="10.00" fill="#1f4f86" opacity="0.50"/><rect x="446.7" y="80.0" width="6.67" height="10.00" fill="#8ef7e6" opacity="0.85"/><rect x="453.3" y="80.0" width="6.67" height="10.00" fill="#5de3ff" opacity="0.60"/><rect x="606.7" y="80.0" width="6.67" height="10.00" fill="#3aa7ff" opacity="0.45"/><rect x="620.0" y="80.0" width="6.67" height="10.00" fill="#3aa7ff" opacity="0.45"/><rect x="0.0" y="90.0" width="6.67" height="10.00" fill="#1f4f86" opacity="0.50"/><rect x="6.7" y="90.0" width="6.67" height="10.00" fill="#1f4f86" opacity="0.50"/><rect x="13.3" y="90.0" width="6.67" height="10.00" fill="#3aa7ff" opacity="0.45"/><rect x="26.7" y="90.0" width="6.67" height="10.00" fill="#1f4f86" opacity="0.50"/><rect x="33.3" y="90.0" width="6.67" height="10.00" fill="#5de3ff" opacity="0.60"/><rect x="40.0" y="90.0" width="6.67" height="10.00" fill="#1f4f86" opacity="0.50"/><rect x="46.7" y="90.0" width="6.67" height="10.00" fill="#3aa7ff" opacity="0.45"/><rect x="73.3" y="90.0" width="6.67" height="10.00" fill="#1f4f86" opacity="0.50"/><rect x="193.3" y="90.0" width="6.67" height="10.00" fill="#1f4f86" opacity="0.50"/><rect x="200.0" y="90.0" width="6.67" height="10.00" fill="#1f4f86" opacity="0.50"/><rect x="213.3" y="90.0" width="6.67" height="10.00" fill="#3aa7ff" opacity="0.45"/><rect x="233.3" y="90.0" width="6.67" height="10.00" fill="#8ef7e6" opacity="0.85"/><rect x="240.0" y="90.0" width="6.67" height="10.00" fill="#8ef7e6" opacity="0.85"/><rect x="246.7" y="90.0" width="6.67" height="10.00" fill="#1f4f86" opacity="0.50"/><rect x="253.3" y="90.0" width="6.67" height="10.00" fill="#3aa7ff" opacity="0.45"/><rect x="260.0" y="90.0" width="6.67" height="10.00" fill="#5de3ff" opacity="0.60"/><rect x="280.0" y="90.0" width="6.67" height="10.00" fill="#1f4f86" opacity="0.50"/><rect x="286.7" y="90.0" width="6.67" height="10.00" fill="#1f4f86" opacity="0.50"/><rect x="380.0" y="90.0" width="6.67" height="10.00" fill="#1f4f86" opacity="0.50"/><rect x="400.0" y="90.0" width="6.67" height="10.00" fill="#1f4f86" opacity="0.50"/><rect x="406.7" y="90.0" width="6.67" height="10.00" fill="#5de3ff" opacity="0.60"/><rect x="420.0" y="90.0" width="6.67" height="10.00" fill="#5de3ff" opacity="0.60"/><rect x="426.7" y="90.0" width="6.67" height="10.00" fill="#3aa7ff" opacity="0.45"/><rect x="433.3" y="90.0" width="6.67" height="10.00" fill="#5de3ff" opacity="0.60"/><rect x="446.7" y="90.0" width="6.67" height="10.00" fill="#1f4f86" opacity="0.50"/><rect x="460.0" y="90.0" width="6.67" height="10.00" fill="#1f4f86" opacity="0.50"/><rect x="466.7" y="90.0" width="6.67" height="10.00" fill="#3aa7ff" opacity="0.45"/><rect x="473.3" y="90.0" width="6.67" height="10.00" fill="#1f4f86" opacity="0.50"/><rect x="600.0" y="90.0" width="6.67" height="10.00" fill="#1f4f86" opacity="0.50"/><rect x="633.3" y="90.0" width="6.67" height="10.00" fill="#1f4f86" opacity="0.50"/><rect x="0.0" y="100.0" width="6.67" height="10.00" fill="#3aa7ff" opacity="0.45"/><rect x="40.0" y="100.0" width="6.67" height="10.00" fill="#5de3ff" opacity="0.60"/><rect x="46.7" y="100.0" width="6.67" height="10.00" fill="#1f4f86" opacity="0.50"/><rect x="53.3" y="100.0" width="6.67" height="10.00" fill="#3aa7ff" opacity="0.45"/><rect x="73.3" y="100.0" width="6.67" height="10.00" fill="#3aa7ff" opacity="0.45"/><rect x="193.3" y="100.0" width="6.67" height="10.00" fill="#1f4f86" opacity="0.50"/><rect x="200.0" y="100.0" width="6.67" height="10.00" fill="#1f4f86" opacity="0.50"/><rect x="226.7" y="100.0" width="6.67" height="10.00" fill="#3aa7ff" opacity="0.45"/><rect x="240.0" y="100.0" width="6.67" height="10.00" fill="#5de3ff" opacity="0.60"/><rect x="246.7" y="100.0" width="6.67" height="10.00" fill="#3aa7ff" opacity="0.45"/><rect x="260.0" y="100.0" width="6.67" height="10.00" fill="#3aa7ff" opacity="0.45"/><rect x="280.0" y="100.0" width="6.67" height="10.00" fill="#1f4f86" opacity="0.50"/><rect x="400.0" y="100.0" width="6.67" height="10.00" fill="#3aa7ff" opacity="0.45"/><rect x="413.3" y="100.0" width="6.67" height="10.00" fill="#3aa7ff" opacity="0.45"/><rect x="420.0" y="100.0" width="6.67" height="10.00" fill="#1f4f86" opacity="0.50"/><rect x="440.0" y="100.0" width="6.67" height="10.00" fill="#3aa7ff" opacity="0.45"/><rect x="460.0" y="100.0" width="6.67" height="10.00" fill="#3aa7ff" opacity="0.45"/><rect x="466.7" y="100.0" width="6.67" height="10.00" fill="#1f4f86" opacity="0.50"/><rect x="473.3" y="100.0" width="6.67" height="10.00" fill="#1f4f86" opacity="0.50"/><rect x="593.3" y="100.0" width="6.67" height="10.00" fill="#1f4f86" opacity="0.50"/><rect x="606.7" y="100.0" width="6.67" height="10.00" fill="#3aa7ff" opacity="0.45"/><rect x="613.3" y="100.0" width="6.67" height="10.00" fill="#5de3ff" opacity="0.60"/><rect x="620.0" y="100.0" width="6.67" height="10.00" fill="#1f4f86" opacity="0.50"/><rect x="626.7" y="100.0" width="6.67" height="10.00" fill="#3aa7ff" opacity="0.45"/><rect x="6.7" y="110.0" width="6.67" height="10.00" fill="#3aa7ff" opacity="0.45"/><rect x="13.3" y="110.0" width="6.67" height="10.00" fill="#3aa7ff" opacity="0.45"/><rect x="26.7" y="110.0" width="6.67" height="10.00" fill="#1f4f86" opacity="0.50"/><rect x="33.3" y="110.0" width="6.67" height="10.00" fill="#1f4f86" opacity="0.50"/><rect x="46.7" y="110.0" width="6.67" height="10.00" fill="#1f4f86" opacity="0.50"/><rect x="60.0" y="110.0" width="6.67" height="10.00" fill="#3aa7ff" opacity="0.45"/><rect x="66.7" y="110.0" width="6.67" height="10.00" fill="#1f4f86" opacity="0.50"/><rect x="80.0" y="110.0" width="6.67" height="10.00" fill="#1f4f86" opacity="0.50"/><rect x="86.7" y="110.0" width="6.67" height="10.00" fill="#1f4f86" opacity="0.50"/><rect x="206.7" y="110.0" width="6.67" height="10.00" fill="#1f4f86" opacity="0.50"/><rect x="213.3" y="110.0" width="6.67" height="10.00" fill="#3aa7ff" opacity="0.45"/><rect x="226.7" y="110.0" width="6.67" height="10.00" fill="#8ef7e6" opacity="0.85"/><rect x="240.0" y="110.0" width="6.67" height="10.00" fill="#1f4f86" opacity="0.50"/><rect x="253.3" y="110.0" width="6.67" height="10.00" fill="#3aa7ff" opacity="0.45"/><rect x="260.0" y="110.0" width="6.67" height="10.00" fill="#3aa7ff" opacity="0.45"/><rect x="266.7" y="110.0" width="6.67" height="10.00" fill="#3aa7ff" opacity="0.45"/><rect x="400.0" y="110.0" width="6.67" height="10.00" fill="#1f4f86" opacity="0.50"/><rect x="413.3" y="110.0" width="6.67" height="10.00" fill="#3aa7ff" opacity="0.45"/><rect x="426.7" y="110.0" width="6.67" height="10.00" fill="#3aa7ff" opacity="0.45"/><rect x="433.3" y="110.0" width="6.67" height="10.00" fill="#5de3ff" opacity="0.60"/><rect x="440.0" y="110.0" width="6.67" height="10.00" fill="#1f4f86" opacity="0.50"/><rect x="453.3" y="110.0" width="6.67" height="10.00" fill="#3aa7ff" opacity="0.45"/><rect x="593.3" y="110.0" width="6.67" height="10.00" fill="#3aa7ff" opacity="0.45"/><rect x="606.7" y="110.0" width="6.67" height="10.00" fill="#5de3ff" opacity="0.60"/><rect x="633.3" y="110.0" width="6.67" height="10.00" fill="#5de3ff" opacity="0.60"/><rect x="0.0" y="120.0" width="6.67" height="10.00" fill="#1f4f86" opacity="0.50"/><rect x="20.0" y="120.0" width="6.67" height="10.00" fill="#3aa7ff" opacity="0.45"/><rect x="26.7" y="120.0" width="6.67" height="10.00" fill="#8ef7e6" opacity="0.85"/><rect x="33.3" y="120.0" width="6.67" height="10.00" fill="#3aa7ff" opacity="0.45"/><rect x="46.7" y="120.0" width="6.67" height="10.00" fill="#5de3ff" opacity="0.60"/><rect x="186.7" y="120.0" width="6.67" height="10.00" fill="#1f4f86" opacity="0.50"/><rect x="200.0" y="120.0" width="6.67" height="10.00" fill="#3aa7ff" opacity="0.45"/><rect x="206.7" y="120.0" width="6.67" height="10.00" fill="#3aa7ff" opacity="0.45"/><rect x="246.7" y="120.0" width="6.67" height="10.00" fill="#1f4f86" opacity="0.50"/><rect x="253.3" y="120.0" width="6.67" height="10.00" fill="#5de3ff" opacity="0.60"/><rect x="393.3" y="120.0" width="6.67" height="10.00" fill="#1f4f86" opacity="0.50"/><rect x="400.0" y="120.0" width="6.67" height="10.00" fill="#3aa7ff" opacity="0.45"/><rect x="420.0" y="120.0" width="6.67" height="10.00" fill="#1f4f86" opacity="0.50"/><rect x="426.7" y="120.0" width="6.67" height="10.00" fill="#1f4f86" opacity="0.50"/><rect x="433.3" y="120.0" width="6.67" height="10.00" fill="#1f4f86" opacity="0.50"/><rect x="440.0" y="120.0" width="6.67" height="10.00" fill="#1f4f86" opacity="0.50"/><rect x="466.7" y="120.0" width="6.67" height="10.00" fill="#1f4f86" opacity="0.50"/><rect x="473.3" y="120.0" width="6.67" height="10.00" fill="#1f4f86" opacity="0.50"/><rect x="586.7" y="120.0" width="6.67" height="10.00" fill="#1f4f86" opacity="0.50"/><rect x="600.0" y="120.0" width="6.67" height="10.00" fill="#1f4f86" opacity="0.50"/><rect x="620.0" y="120.0" width="6.67" height="10.00" fill="#3aa7ff" opacity="0.45"/><rect x="0.0" y="130.0" width="6.67" height="10.00" fill="#3aa7ff" opacity="0.45"/><rect x="13.3" y="130.0" width="6.67" height="10.00" fill="#3aa7ff" opacity="0.45"/><rect x="33.3" y="130.0" width="6.67" height="10.00" fill="#3aa7ff" opacity="0.45"/><rect x="46.7" y="130.0" width="6.67" height="10.00" fill="#5de3ff" opacity="0.60"/><rect x="53.3" y="130.0" width="6.67" height="10.00" fill="#3aa7ff" opacity="0.45"/><rect x="66.7" y="130.0" width="6.67" height="10.00" fill="#1f4f86" opacity="0.50"/><rect x="186.7" y="130.0" width="6.67" height="10.00" fill="#1f4f86" opacity="0.50"/><rect x="213.3" y="130.0" width="6.67" height="10.00" fill="#1f4f86" opacity="0.50"/><rect x="220.0" y="130.0" width="6.67" height="10.00" fill="#1f4f86" opacity="0.50"/><rect x="226.7" y="130.0" width="6.67" height="10.00" fill="#3aa7ff" opacity="0.45"/><rect x="246.7" y="130.0" width="6.67" height="10.00" fill="#5de3ff" opacity="0.60"/><rect x="266.7" y="130.0" width="6.67" height="10.00" fill="#1f4f86" opacity="0.50"/><rect x="400.0" y="130.0" width="6.67" height="10.00" fill="#3aa7ff" opacity="0.45"/><rect x="406.7" y="130.0" width="6.67" height="10.00" fill="#1f4f86" opacity="0.50"/><rect x="420.0" y="130.0" width="6.67" height="10.00" fill="#1f4f86" opacity="0.50"/><rect x="433.3" y="130.0" width="6.67" height="10.00" fill="#3aa7ff" opacity="0.45"/><rect x="440.0" y="130.0" width="6.67" height="10.00" fill="#3aa7ff" opacity="0.45"/><rect x="453.3" y="130.0" width="6.67" height="10.00" fill="#1f4f86" opacity="0.50"/><rect x="466.7" y="130.0" width="6.67" height="10.00" fill="#3aa7ff" opacity="0.45"/><rect x="613.3" y="130.0" width="6.67" height="10.00" fill="#3aa7ff" opacity="0.45"/><rect x="626.7" y="130.0" width="6.67" height="10.00" fill="#3aa7ff" opacity="0.45"/><rect x="0.0" y="140.0" width="6.67" height="10.00" fill="#1f4f86" opacity="0.50"/><rect x="6.7" y="140.0" width="6.67" height="10.00" fill="#5de3ff" opacity="0.60"/><rect x="13.3" y="140.0" width="6.67" height="10.00" fill="#3aa7ff" opacity="0.45"/><rect x="20.0" y="140.0" width="6.67" height="10.00" fill="#5de3ff" opacity="0.60"/><rect x="26.7" y="140.0" width="6.67" height="10.00" fill="#5de3ff" opacity="0.60"/><rect x="33.3" y="140.0" width="6.67" height="10.00" fill="#3aa7ff" opacity="0.45"/><rect x="46.7" y="140.0" width="6.67" height="10.00" fill="#3aa7ff" opacity="0.45"/><rect x="53.3" y="140.0" width="6.67" height="10.00" fill="#3aa7ff" opacity="0.45"/><rect x="60.0" y="140.0" width="6.67" height="10.00" fill="#1f4f86" opacity="0.50"/><rect x="66.7" y="140.0" width="6.67" height="10.00" fill="#1f4f86" opacity="0.50"/><rect x="73.3" y="140.0" width="6.67" height="10.00" fill="#1f4f86" opacity="0.50"/><rect x="200.0" y="140.0" width="6.67" height="10.00" fill="#5de3ff" opacity="0.60"/><rect x="226.7" y="140.0" width="6.67" height="10.00" fill="#3aa7ff" opacity="0.45"/><rect x="240.0" y="140.0" width="6.67" height="10.00" fill="#3aa7ff" opacity="0.45"/><rect x="253.3" y="140.0" width="6.67" height="10.00" fill="#3aa7ff" opacity="0.45"/><rect x="433.3" y="140.0" width="6.67" height="10.00" fill="#5de3ff" opacity="0.60"/><rect x="440.0" y="140.0" width="6.67" height="10.00" fill="#1f4f86" opacity="0.50"/><rect x="453.3" y="140.0" width="6.67" height="10.00" fill="#1f4f86" opacity="0.50"/><rect x="573.3" y="140.0" width="6.67" height="10.00" fill="#1f4f86" opacity="0.50"/><rect x="586.7" y="140.0" width="6.67" height="10.00" fill="#1f4f86" opacity="0.50"/><rect x="613.3" y="140.0" width="6.67" height="10.00" fill="#3aa7ff" opacity="0.45"/><rect x="626.7" y="140.0" width="6.67" height="10.00" fill="#1f4f86" opacity="0.50"/><rect x="633.3" y="140.0" width="6.67" height="10.00" fill="#5de3ff" opacity="0.60"/><rect x="0.0" y="150.0" width="6.67" height="10.00" fill="#1f4f86" opacity="0.50"/><rect x="33.3" y="150.0" width="6.67" height="10.00" fill="#3aa7ff" opacity="0.45"/><rect x="46.7" y="150.0" width="6.67" height="10.00" fill="#5de3ff" opacity="0.60"/><rect x="180.0" y="150.0" width="6.67" height="10.00" fill="#1f4f86" opacity="0.50"/><rect x="200.0" y="150.0" width="6.67" height="10.00" fill="#1f4f86" opacity="0.50"/><rect x="220.0" y="150.0" width="6.67" height="10.00" fill="#3aa7ff" opacity="0.45"/><rect x="240.0" y="150.0" width="6.67" height="10.00" fill="#1f4f86" opacity="0.50"/><rect x="246.7" y="150.0" width="6.67" height="10.00" fill="#1f4f86" opacity="0.50"/><rect x="260.0" y="150.0" width="6.67" height="10.00" fill="#1f4f86" opacity="0.50"/><rect x="393.3" y="150.0" width="6.67" height="10.00" fill="#3aa7ff" opacity="0.45"/><rect x="400.0" y="150.0" width="6.67" height="10.00" fill="#3aa7ff" opacity="0.45"/><rect x="406.7" y="150.0" width="6.67" height="10.00" fill="#1f4f86" opacity="0.50"/><rect x="413.3" y="150.0" width="6.67" height="10.00" fill="#3aa7ff" opacity="0.45"/><rect x="420.0" y="150.0" width="6.67" height="10.00" fill="#1f4f86" opacity="0.50"/><rect x="426.7" y="150.0" width="6.67" height="10.00" fill="#3aa7ff" opacity="0.45"/><rect x="440.0" y="150.0" width="6.67" height="10.00" fill="#3aa7ff" opacity="0.45"/><rect x="446.7" y="150.0" width="6.67" height="10.00" fill="#5de3ff" opacity="0.60"/><rect x="453.3" y="150.0" width="6.67" height="10.00" fill="#1f4f86" opacity="0.50"/><rect x="466.7" y="150.0" width="6.67" height="10.00" fill="#3aa7ff" opacity="0.45"/><rect x="593.3" y="150.0" width="6.67" height="10.00" fill="#1f4f86" opacity="0.50"/><rect x="606.7" y="150.0" width="6.67" height="10.00" fill="#3aa7ff" opacity="0.45"/><rect x="620.0" y="150.0" width="6.67" height="10.00" fill="#1f4f86" opacity="0.50"/></g>
  <polyline points="0,362.4 4,369.5 8,368.4 12,363.5 16,361.0 20,368.6 24,361.1 28,363.6 32,358.1 36,349.9 40,349.1 44,349.9 48,354.6 52,365.5 56,361.5 60,362.4 64,359.9 68,363.3 72,359.2 76,355.8 80,354.0 84,361.9 88,365.8 92,369.1 96,361.6 100,366.9 104,373.7 108,359.8 112,373.5 116,373.4 120,363.3 124,369.1 128,365.3 132,369.3 136,378.2 140,377.3 144,375.3 148,378.2 152,372.3 156,366.8 160,366.7 164,367.7 168,372.3 172,377.6 176,369.3 180,370.8 184,359.9 188,349.1 192,345.8 196,336.6 200,332.3 204,306.2 208,302.4 212,290.3 216,292.9 220,292.6 224,291.9 228,299.9 232,309.9 236,322.0 240,332.4 244,337.8 248,349.4 252,349.4 256,363.1 260,357.6 264,354.2 268,355.1 272,365.0 276,361.8 280,369.1 284,370.7 288,359.8 292,373.1 296,364.5 300,374.0 304,366.4 308,364.2 312,378.8 316,362.3 320,364.7 324,373.8 328,373.9 332,378.9 336,364.6 340,366.8 344,376.2 348,380.6 352,379.3 356,368.9 360,372.5 364,370.1 368,371.2 372,370.1 376,375.2 380,371.3 384,366.6 388,359.6 392,360.3 396,355.3 400,361.3 404,354.8 408,353.4 412,363.4 416,353.2 420,364.3 424,360.5 428,360.1 432,355.9 436,353.8 440,351.9 444,357.2 448,349.4 452,364.1 456,351.6 460,361.3 464,370.2 468,367.8 472,355.2 476,358.6 480,358.8 484,369.6 488,365.1 492,369.1 496,362.0 500,374.8 504,369.1 508,378.7 512,378.5 516,381.5 520,379.1 524,379.9 528,381.6 532,380.1 536,380.2 540,373.1 544,369.4 548,376.8 552,372.6 556,364.1 560,359.8 564,363.9 568,370.3 572,364.0 576,371.3 580,362.0 584,368.3 588,358.0 592,364.4 596,351.0 600,360.4 604,359.7 608,357.0 612,364.1 616,366.5 620,364.7 624,349.9 628,349.0 632,362.8 636,363.3 640,360.8" fill="none" stroke="url(#trace)" stroke-width="2.2" stroke-linejoin="round" filter="url(#glow)"/>
  <polygon points="0,560 0,362.4 4,369.5 8,368.4 12,363.5 16,361.0 20,368.6 24,361.1 28,363.6 32,358.1 36,349.9 40,349.1 44,349.9 48,354.6 52,365.5 56,361.5 60,362.4 64,359.9 68,363.3 72,359.2 76,355.8 80,354.0 84,361.9 88,365.8 92,369.1 96,361.6 100,366.9 104,373.7 108,359.8 112,373.5 116,373.4 120,363.3 124,369.1 128,365.3 132,369.3 136,378.2 140,377.3 144,375.3 148,378.2 152,372.3 156,366.8 160,366.7 164,367.7 168,372.3 172,377.6 176,369.3 180,370.8 184,359.9 188,349.1 192,345.8 196,336.6 200,332.3 204,306.2 208,302.4 212,290.3 216,292.9 220,292.6 224,291.9 228,299.9 232,309.9 236,322.0 240,332.4 244,337.8 248,349.4 252,349.4 256,363.1 260,357.6 264,354.2 268,355.1 272,365.0 276,361.8 280,369.1 284,370.7 288,359.8 292,373.1 296,364.5 300,374.0 304,366.4 308,364.2 312,378.8 316,362.3 320,364.7 324,373.8 328,373.9 332,378.9 336,364.6 340,366.8 344,376.2 348,380.6 352,379.3 356,368.9 360,372.5 364,370.1 368,371.2 372,370.1 376,375.2 380,371.3 384,366.6 388,359.6 392,360.3 396,355.3 400,361.3 404,354.8 408,353.4 412,363.4 416,353.2 420,364.3 424,360.5 428,360.1 432,355.9 436,353.8 440,351.9 444,357.2 448,349.4 452,364.1 456,351.6 460,361.3 464,370.2 468,367.8 472,355.2 476,358.6 480,358.8 484,369.6 488,365.1 492,369.1 496,362.0 500,374.8 504,369.1 508,378.7 512,378.5 516,381.5 520,379.1 524,379.9 528,381.6 532,380.1 536,380.2 540,373.1 544,369.4 548,376.8 552,372.6 556,364.1 560,359.8 564,363.9 568,370.3 572,364.0 576,371.3 580,362.0 584,368.3 588,358.0 592,364.4 596,351.0 600,360.4 604,359.7 608,357.0 612,364.1 616,366.5 620,364.7 624,349.9 628,349.0 632,362.8 636,363.3 640,360.8 640,560" fill="url(#trace)" opacity="0.07"/>
  <text x="320" y="108" font-family="ui-monospace, 'SF Mono', SFMono-Regular, Menlo, Consolas, monospace" font-size="15" letter-spacing="3.6" text-anchor="middle" fill="#5f708a">FOUR SKIMMERS, ONE STREAM</text>
  <text x="320" y="174" font-family="ui-monospace, 'SF Mono', SFMono-Regular, Menlo, Consolas, monospace" font-size="58" font-weight="700" letter-spacing="-1" text-anchor="middle" fill="url(#accent)">v26.9.2</text>
  <circle cx="320" cy="296" r="88" fill="#8ef7e6" opacity="0.09" filter="url(#softglow)"/>
  <g transform="translate(320 296) scale(0.92)" color="#5de3ff" filter="url(#glow)"><path d="M-84-70V70" stroke="currentColor" stroke-width="3.2" stroke-linecap="round" opacity=".55"/><circle cx="-84" r="9" fill="currentColor"/><path d="M-84 -66h26" stroke="currentColor" stroke-width="2.4" stroke-linecap="round" opacity=".5"/><circle cx="-58" cy="-66" r="4.5" fill="currentColor" opacity=".8"/><path d="M-58 -66h22l9 -20l9 20h100" fill="none" stroke="currentColor" stroke-width="2.8" stroke-linejoin="round" stroke-linecap="round"/><path d="M-84 -22h26" stroke="currentColor" stroke-width="2.4" stroke-linecap="round" opacity=".5"/><circle cx="-58" cy="-22" r="4.5" fill="currentColor" opacity=".8"/><path d="M-58 -22h60l9 -26l9 26h62" fill="none" stroke="currentColor" stroke-width="2.8" stroke-linejoin="round" stroke-linecap="round"/><path d="M-84 22h26" stroke="currentColor" stroke-width="2.4" stroke-linecap="round" opacity=".5"/><circle cx="-58" cy="22" r="4.5" fill="currentColor" opacity=".8"/><path d="M-58 22h96l9 -16l9 16h26" fill="none" stroke="currentColor" stroke-width="2.8" stroke-linejoin="round" stroke-linecap="round"/><path d="M-84 66h26" stroke="currentColor" stroke-width="2.4" stroke-linecap="round" opacity=".5"/><circle cx="-58" cy="66" r="4.5" fill="currentColor" opacity=".8"/><path d="M-58 66h40l9 -22l9 22h82" fill="none" stroke="currentColor" stroke-width="2.8" stroke-linejoin="round" stroke-linecap="round"/></g>
</svg>
