<svg xmlns="http://www.w3.org/2000/svg" viewBox="0 0 640 560" width="640" height="560" role="img" aria-label="AetherSDR v26.7.2 — Digital voice">
  <defs>
    <linearGradient id="bg" x1="0" y1="0" x2="0.35" y2="1">
      <stop offset="0" stop-color="#0a121e"/>
      <stop offset="0.55" stop-color="#060b13"/>
      <stop offset="1" stop-color="#070d17"/>
    </linearGradient>
    <linearGradient id="chain" gradientUnits="userSpaceOnUse"
        x1="0" y1="0" x2="0" y2="0">
      <stop offset="0" stop-color="#3aa7ff" stop-opacity="0.30"/>
      <stop offset="0.5" stop-color="#5de3ff" stop-opacity="0.7"/>
      <stop offset="1" stop-color="#8ef7e6" stop-opacity="1"/>
    </linearGradient>
    <linearGradient id="accent" x1="0" y1="0" x2="1" y2="1">
      <stop offset="0" stop-color="#3aa7ff"/>
      <stop offset="0.45" stop-color="#5de3ff"/>
      <stop offset="1" stop-color="#8ef7e6"/>
    </linearGradient>
    <linearGradient id="trace" x1="0" y1="0" x2="1" y2="0">
      <stop offset="0" stop-color="#3aa7ff" stop-opacity="0.35"/>
      <stop offset="0.6" stop-color="#5de3ff" stop-opacity="0.9"/>
      <stop offset="1" stop-color="#8ef7e6"/>
    </linearGradient>
    <linearGradient id="fade" x1="0" y1="0" x2="0" y2="1">
      <stop offset="0" stop-color="#ffffff" stop-opacity="0.85"/>
      <stop offset="1" stop-color="#ffffff" stop-opacity="0"/>
    </linearGradient>
    <mask id="wfmask">
      <rect x="0" y="0" width="640" height="560" fill="url(#fade)"/>
    </mask>
    <filter id="glow" x="-60%" y="-60%" width="220%" height="220%">
      <feGaussianBlur stdDeviation="7" result="b"/>
      <feMerge><feMergeNode in="b"/><feMergeNode in="SourceGraphic"/></feMerge>
    </filter>
    <filter id="softglow" x="-80%" y="-80%" width="260%" height="260%">
      <feGaussianBlur stdDeviation="14"/>
    </filter>
  </defs>
  <rect width="640" height="560" fill="url(#bg)"/>
  <path d="M34 0V560M68 0V560M102 0V560M136 0V560M170 0V560M204 0V560M238 0V560M272 0V560M306 0V560M340 0V560M374 0V560M408 0V560M442 0V560M476 0V560M510 0V560M544 0V560M578 0V560M612 0V560M0 34H640M0 68H640M0 102H640M0 136H640M0 170H640M0 204H640M0 238H640M0 272H640M0 306H640M0 340H640M0 374H640M0 408H640M0 442H640M0 476H640M0 510H640M0 544H640" stroke="rgba(120,165,210,0.055)" stroke-width="1" fill="none"/>
  <g mask="url(#wfmask)" transform="translate(0 400)"><rect x="20.0" y="0.0" width="6.67" height="10.00" fill="#1f4f86" opacity="0.50"/><rect x="40.0" y="0.0" width="6.67" height="10.00" fill="#5de3ff" opacity="0.60"/><rect x="200.0" y="0.0" width="6.67" height="10.00" fill="#1f4f86" opacity="0.50"/><rect x="206.7" y="0.0" width="6.67" height="10.00" fill="#1f4f86" opacity="0.50"/><rect x="213.3" y="0.0" width="6.67" height="10.00" fill="#1f4f86" opacity="0.50"/><rect x="220.0" y="0.0" width="6.67" height="10.00" fill="#3aa7ff" opacity="0.45"/><rect x="226.7" y="0.0" width="6.67" height="10.00" fill="#1f4f86" opacity="0.50"/><rect x="233.3" y="0.0" width="6.67" height="10.00" fill="#3aa7ff" opacity="0.45"/><rect x="240.0" y="0.0" width="6.67" height="10.00" fill="#3aa7ff" opacity="0.45"/><rect x="253.3" y="0.0" width="6.67" height="10.00" fill="#1f4f86" opacity="0.50"/><rect x="433.3" y="0.0" width="6.67" height="10.00" fill="#1f4f86" opacity="0.50"/><rect x="446.7" y="0.0" width="6.67" height="10.00" fill="#1f4f86" opacity="0.50"/><rect x="453.3" y="0.0" width="6.67" height="10.00" fill="#8ef7e6" opacity="0.85"/><rect x="473.3" y="0.0" width="6.67" height="10.00" fill="#5de3ff" opacity="0.60"/><rect x="480.0" y="0.0" width="6.67" height="10.00" fill="#3aa7ff" opacity="0.45"/><rect x="500.0" y="0.0" width="6.67" height="10.00" fill="#1f4f86" opacity="0.50"/><rect x="606.7" y="0.0" width="6.67" height="10.00" fill="#1f4f86" opacity="0.50"/><rect x="620.0" y="0.0" width="6.67" height="10.00" fill="#3aa7ff" opacity="0.45"/><rect x="13.3" y="10.0" width="6.67" height="10.00" fill="#3aa7ff" opacity="0.45"/><rect x="20.0" y="10.0" width="6.67" height="10.00" fill="#1f4f86" opacity="0.50"/><rect x="26.7" y="10.0" width="6.67" height="10.00" fill="#1f4f86" opacity="0.50"/><rect x="33.3" y="10.0" width="6.67" height="10.00" fill="#3aa7ff" opacity="0.45"/><rect x="40.0" y="10.0" width="6.67" height="10.00" fill="#3aa7ff" opacity="0.45"/><rect x="53.3" y="10.0" width="6.67" height="10.00" fill="#1f4f86" opacity="0.50"/><rect x="60.0" y="10.0" width="6.67" height="10.00" fill="#3aa7ff" opacity="0.45"/><rect x="80.0" y="10.0" width="6.67" height="10.00" fill="#3aa7ff" opacity="0.45"/><rect x="86.7" y="10.0" width="6.67" height="10.00" fill="#3aa7ff" opacity="0.45"/><rect x="206.7" y="10.0" width="6.67" height="10.00" fill="#1f4f86" opacity="0.50"/><rect x="233.3" y="10.0" width="6.67" height="10.00" fill="#5de3ff" opacity="0.60"/><rect x="253.3" y="10.0" width="6.67" height="10.00" fill="#1f4f86" opacity="0.50"/><rect x="293.3" y="10.0" width="6.67" height="10.00" fill="#1f4f86" opacity="0.50"/><rect x="406.7" y="10.0" width="6.67" height="10.00" fill="#3aa7ff" opacity="0.45"/><rect x="420.0" y="10.0" width="6.67" height="10.00" fill="#3aa7ff" opacity="0.45"/><rect x="433.3" y="10.0" width="6.67" height="10.00" fill="#8ef7e6" opacity="0.85"/><rect x="446.7" y="10.0" width="6.67" height="10.00" fill="#8ef7e6" opacity="0.85"/><rect x="613.3" y="10.0" width="6.67" height="10.00" fill="#1f4f86" opacity="0.50"/><rect x="626.7" y="10.0" width="6.67" height="10.00" fill="#3aa7ff" opacity="0.45"/><rect x="13.3" y="20.0" width="6.67" height="10.00" fill="#1f4f86" opacity="0.50"/><rect x="20.0" y="20.0" width="6.67" height="10.00" fill="#5de3ff" opacity="0.60"/><rect x="33.3" y="20.0" width="6.67" height="10.00" fill="#5de3ff" opacity="0.60"/><rect x="40.0" y="20.0" width="6.67" height="10.00" fill="#1f4f86" opacity="0.50"/><rect x="46.7" y="20.0" width="6.67" height="10.00" fill="#5de3ff" opacity="0.60"/><rect x="60.0" y="20.0" width="6.67" height="10.00" fill="#3aa7ff" opacity="0.45"/><rect x="66.7" y="20.0" width="6.67" height="10.00" fill="#3aa7ff" opacity="0.45"/><rect x="73.3" y="20.0" width="6.67" height="10.00" fill="#1f4f86" opacity="0.50"/><rect x="226.7" y="20.0" width="6.67" height="10.00" fill="#5de3ff" opacity="0.60"/><rect x="233.3" y="20.0" width="6.67" height="10.00" fill="#5de3ff" opacity="0.60"/><rect x="240.0" y="20.0" width="6.67" height="10.00" fill="#5de3ff" opacity="0.60"/><rect x="253.3" y="20.0" width="6.67" height="10.00" fill="#1f4f86" opacity="0.50"/><rect x="266.7" y="20.0" width="6.67" height="10.00" fill="#3aa7ff" opacity="0.45"/><rect x="286.7" y="20.0" width="6.67" height="10.00" fill="#3aa7ff" opacity="0.45"/><rect x="433.3" y="20.0" width="6.67" height="10.00" fill="#1f4f86" opacity="0.50"/><rect x="440.0" y="20.0" width="6.67" height="10.00" fill="#1f4f86" opacity="0.50"/><rect x="606.7" y="20.0" width="6.67" height="10.00" fill="#1f4f86" opacity="0.50"/><rect x="620.0" y="20.0" width="6.67" height="10.00" fill="#3aa7ff" opacity="0.45"/><rect x="0.0" y="30.0" width="6.67" height="10.00" fill="#1f4f86" opacity="0.50"/><rect x="13.3" y="30.0" width="6.67" height="10.00" fill="#1f4f86" opacity="0.50"/><rect x="20.0" y="30.0" width="6.67" height="10.00" fill="#1f4f86" opacity="0.50"/><rect x="33.3" y="30.0" width="6.67" height="10.00" fill="#1f4f86" opacity="0.50"/><rect x="40.0" y="30.0" width="6.67" height="10.00" fill="#1f4f86" opacity="0.50"/><rect x="46.7" y="30.0" width="6.67" height="10.00" fill="#5de3ff" opacity="0.60"/><rect x="60.0" y="30.0" width="6.67" height="10.00" fill="#3aa7ff" opacity="0.45"/><rect x="246.7" y="30.0" width="6.67" height="10.00" fill="#1f4f86" opacity="0.50"/><rect x="253.3" y="30.0" width="6.67" height="10.00" fill="#5de3ff" opacity="0.60"/><rect x="273.3" y="30.0" width="6.67" height="10.00" fill="#1f4f86" opacity="0.50"/><rect x="286.7" y="30.0" width="6.67" height="10.00" fill="#1f4f86" opacity="0.50"/><rect x="426.7" y="30.0" width="6.67" height="10.00" fill="#1f4f86" opacity="0.50"/><rect x="440.0" y="30.0" width="6.67" height="10.00" fill="#3aa7ff" opacity="0.45"/><rect x="453.3" y="30.0" width="6.67" height="10.00" fill="#3aa7ff" opacity="0.45"/><rect x="460.0" y="30.0" width="6.67" height="10.00" fill="#1f4f86" opacity="0.50"/><rect x="466.7" y="30.0" width="6.67" height="10.00" fill="#3aa7ff" opacity="0.45"/><rect x="486.7" y="30.0" width="6.67" height="10.00" fill="#3aa7ff" opacity="0.45"/><rect x="593.3" y="30.0" width="6.67" height="10.00" fill="#1f4f86" opacity="0.50"/><rect x="613.3" y="30.0" width="6.67" height="10.00" fill="#1f4f86" opacity="0.50"/><rect x="620.0" y="30.0" width="6.67" height="10.00" fill="#5de3ff" opacity="0.60"/><rect x="0.0" y="40.0" width="6.67" height="10.00" fill="#1f4f86" opacity="0.50"/><rect x="6.7" y="40.0" width="6.67" height="10.00" fill="#3aa7ff" opacity="0.45"/><rect x="20.0" y="40.0" width="6.67" height="10.00" fill="#1f4f86" opacity="0.50"/><rect x="33.3" y="40.0" width="6.67" height="10.00" fill="#1f4f86" opacity="0.50"/><rect x="40.0" y="40.0" width="6.67" height="10.00" fill="#3aa7ff" opacity="0.45"/><rect x="46.7" y="40.0" width="6.67" height="10.00" fill="#8ef7e6" opacity="0.85"/><rect x="60.0" y="40.0" width="6.67" height="10.00" fill="#5de3ff" opacity="0.60"/><rect x="80.0" y="40.0" width="6.67" height="10.00" fill="#3aa7ff" opacity="0.45"/><rect x="193.3" y="40.0" width="6.67" height="10.00" fill="#1f4f86" opacity="0.50"/><rect x="200.0" y="40.0" width="6.67" height="10.00" fill="#1f4f86" opacity="0.50"/><rect x="213.3" y="40.0" width="6.67" height="10.00" fill="#1f4f86" opacity="0.50"/><rect x="220.0" y="40.0" width="6.67" height="10.00" fill="#1f4f86" opacity="0.50"/><rect x="226.7" y="40.0" width="6.67" height="10.00" fill="#1f4f86" opacity="0.50"/><rect x="233.3" y="40.0" width="6.67" height="10.00" fill="#5de3ff" opacity="0.60"/><rect x="246.7" y="40.0" width="6.67" height="10.00" fill="#3aa7ff" opacity="0.45"/><rect x="253.3" y="40.0" width="6.67" height="10.00" fill="#1f4f86" opacity="0.50"/><rect x="280.0" y="40.0" width="6.67" height="10.00" fill="#1f4f86" opacity="0.50"/><rect x="286.7" y="40.0" width="6.67" height="10.00" fill="#1f4f86" opacity="0.50"/><rect x="400.0" y="40.0" width="6.67" height="10.00" fill="#1f4f86" opacity="0.50"/><rect x="406.7" y="40.0" width="6.67" height="10.00" fill="#1f4f86" opacity="0.50"/><rect x="413.3" y="40.0" width="6.67" height="10.00" fill="#3aa7ff" opacity="0.45"/><rect x="420.0" y="40.0" width="6.67" height="10.00" fill="#3aa7ff" opacity="0.45"/><rect x="426.7" y="40.0" width="6.67" height="10.00" fill="#1f4f86" opacity="0.50"/><rect x="446.7" y="40.0" width="6.67" height="10.00" fill="#5de3ff" opacity="0.60"/><rect x="453.3" y="40.0" width="6.67" height="10.00" fill="#5de3ff" opacity="0.60"/><rect x="466.7" y="40.0" width="6.67" height="10.00" fill="#1f4f86" opacity="0.50"/><rect x="473.3" y="40.0" width="6.67" height="10.00" fill="#3aa7ff" opacity="0.45"/><rect x="486.7" y="40.0" width="6.67" height="10.00" fill="#1f4f86" opacity="0.50"/><rect x="606.7" y="40.0" width="6.67" height="10.00" fill="#3aa7ff" opacity="0.45"/><rect x="613.3" y="40.0" width="6.67" height="10.00" fill="#3aa7ff" opacity="0.45"/><rect x="626.7" y="40.0" width="6.67" height="10.00" fill="#1f4f86" opacity="0.50"/><rect x="0.0" y="50.0" width="6.67" height="10.00" fill="#1f4f86" opacity="0.50"/><rect x="13.3" y="50.0" width="6.67" height="10.00" fill="#1f4f86" opacity="0.50"/><rect x="26.7" y="50.0" width="6.67" height="10.00" fill="#5de3ff" opacity="0.60"/><rect x="40.0" y="50.0" width="6.67" height="10.00" fill="#5de3ff" opacity="0.60"/><rect x="46.7" y="50.0" width="6.67" height="10.00" fill="#3aa7ff" opacity="0.45"/><rect x="53.3" y="50.0" width="6.67" height="10.00" fill="#3aa7ff" opacity="0.45"/><rect x="60.0" y="50.0" width="6.67" height="10.00" fill="#5de3ff" opacity="0.60"/><rect x="66.7" y="50.0" width="6.67" height="10.00" fill="#1f4f86" opacity="0.50"/><rect x="73.3" y="50.0" width="6.67" height="10.00" fill="#3aa7ff" opacity="0.45"/><rect x="80.0" y="50.0" width="6.67" height="10.00" fill="#3aa7ff" opacity="0.45"/><rect x="86.7" y="50.0" width="6.67" height="10.00" fill="#1f4f86" opacity="0.50"/><rect x="206.7" y="50.0" width="6.67" height="10.00" fill="#3aa7ff" opacity="0.45"/><rect x="213.3" y="50.0" width="6.67" height="10.00" fill="#1f4f86" opacity="0.50"/><rect x="220.0" y="50.0" width="6.67" height="10.00" fill="#1f4f86" opacity="0.50"/><rect x="226.7" y="50.0" width="6.67" height="10.00" fill="#5de3ff" opacity="0.60"/><rect x="246.7" y="50.0" width="6.67" height="10.00" fill="#1f4f86" opacity="0.50"/><rect x="260.0" y="50.0" width="6.67" height="10.00" fill="#3aa7ff" opacity="0.45"/><rect x="266.7" y="50.0" width="6.67" height="10.00" fill="#1f4f86" opacity="0.50"/><rect x="286.7" y="50.0" width="6.67" height="10.00" fill="#1f4f86" opacity="0.50"/><rect x="420.0" y="50.0" width="6.67" height="10.00" fill="#1f4f86" opacity="0.50"/><rect x="446.7" y="50.0" width="6.67" height="10.00" fill="#3aa7ff" opacity="0.45"/><rect x="606.7" y="50.0" width="6.67" height="10.00" fill="#3aa7ff" opacity="0.45"/><rect x="620.0" y="50.0" width="6.67" height="10.00" fill="#3aa7ff" opacity="0.45"/><rect x="633.3" y="50.0" width="6.67" height="10.00" fill="#1f4f86" opacity="0.50"/><rect x="6.7" y="60.0" width="6.67" height="10.00" fill="#1f4f86" opacity="0.50"/><rect x="13.3" y="60.0" width="6.67" height="10.00" fill="#1f4f86" opacity="0.50"/><rect x="40.0" y="60.0" width="6.67" height="10.00" fill="#5de3ff" opacity="0.60"/><rect x="46.7" y="60.0" width="6.67" height="10.00" fill="#3aa7ff" opacity="0.45"/><rect x="60.0" y="60.0" width="6.67" height="10.00" fill="#3aa7ff" opacity="0.45"/><rect x="66.7" y="60.0" width="6.67" height="10.00" fill="#3aa7ff" opacity="0.45"/><rect x="73.3" y="60.0" width="6.67" height="10.00" fill="#1f4f86" opacity="0.50"/><rect x="80.0" y="60.0" width="6.67" height="10.00" fill="#3aa7ff" opacity="0.45"/><rect x="93.3" y="60.0" width="6.67" height="10.00" fill="#1f4f86" opacity="0.50"/><rect x="200.0" y="60.0" width="6.67" height="10.00" fill="#1f4f86" opacity="0.50"/><rect x="213.3" y="60.0" width="6.67" height="10.00" fill="#1f4f86" opacity="0.50"/><rect x="220.0" y="60.0" width="6.67" height="10.00" fill="#3aa7ff" opacity="0.45"/><rect x="226.7" y="60.0" width="6.67" height="10.00" fill="#1f4f86" opacity="0.50"/><rect x="233.3" y="60.0" width="6.67" height="10.00" fill="#5de3ff" opacity="0.60"/><rect x="240.0" y="60.0" width="6.67" height="10.00" fill="#5de3ff" opacity="0.60"/><rect x="253.3" y="60.0" width="6.67" height="10.00" fill="#1f4f86" opacity="0.50"/><rect x="266.7" y="60.0" width="6.67" height="10.00" fill="#3aa7ff" opacity="0.45"/><rect x="273.3" y="60.0" width="6.67" height="10.00" fill="#3aa7ff" opacity="0.45"/><rect x="286.7" y="60.0" width="6.67" height="10.00" fill="#1f4f86" opacity="0.50"/><rect x="406.7" y="60.0" width="6.67" height="10.00" fill="#3aa7ff" opacity="0.45"/><rect x="413.3" y="60.0" width="6.67" height="10.00" fill="#3aa7ff" opacity="0.45"/><rect x="420.0" y="60.0" width="6.67" height="10.00" fill="#1f4f86" opacity="0.50"/><rect x="433.3" y="60.0" width="6.67" height="10.00" fill="#3aa7ff" opacity="0.45"/><rect x="440.0" y="60.0" width="6.67" height="10.00" fill="#1f4f86" opacity="0.50"/><rect x="446.7" y="60.0" width="6.67" height="10.00" fill="#8ef7e6" opacity="0.85"/><rect x="453.3" y="60.0" width="6.67" height="10.00" fill="#1f4f86" opacity="0.50"/><rect x="460.0" y="60.0" width="6.67" height="10.00" fill="#3aa7ff" opacity="0.45"/><rect x="466.7" y="60.0" width="6.67" height="10.00" fill="#3aa7ff" opacity="0.45"/><rect x="593.3" y="60.0" width="6.67" height="10.00" fill="#1f4f86" opacity="0.50"/><rect x="606.7" y="60.0" width="6.67" height="10.00" fill="#3aa7ff" opacity="0.45"/><rect x="613.3" y="60.0" width="6.67" height="10.00" fill="#3aa7ff" opacity="0.45"/><rect x="626.7" y="60.0" width="6.67" height="10.00" fill="#3aa7ff" opacity="0.45"/><rect x="633.3" y="60.0" width="6.67" height="10.00" fill="#1f4f86" opacity="0.50"/><rect x="6.7" y="70.0" width="6.67" height="10.00" fill="#3aa7ff" opacity="0.45"/><rect x="13.3" y="70.0" width="6.67" height="10.00" fill="#3aa7ff" opacity="0.45"/><rect x="26.7" y="70.0" width="6.67" height="10.00" fill="#3aa7ff" opacity="0.45"/><rect x="33.3" y="70.0" width="6.67" height="10.00" fill="#8ef7e6" opacity="0.85"/><rect x="60.0" y="70.0" width="6.67" height="10.00" fill="#1f4f86" opacity="0.50"/><rect x="66.7" y="70.0" width="6.67" height="10.00" fill="#3aa7ff" opacity="0.45"/><rect x="73.3" y="70.0" width="6.67" height="10.00" fill="#3aa7ff" opacity="0.45"/><rect x="80.0" y="70.0" width="6.67" height="10.00" fill="#1f4f86" opacity="0.50"/><rect x="186.7" y="70.0" width="6.67" height="10.00" fill="#1f4f86" opacity="0.50"/><rect x="200.0" y="70.0" width="6.67" height="10.00" fill="#1f4f86" opacity="0.50"/><rect x="206.7" y="70.0" width="6.67" height="10.00" fill="#1f4f86" opacity="0.50"/><rect x="226.7" y="70.0" width="6.67" height="10.00" fill="#5de3ff" opacity="0.60"/><rect x="233.3" y="70.0" width="6.67" height="10.00" fill="#5de3ff" opacity="0.60"/><rect x="240.0" y="70.0" width="6.67" height="10.00" fill="#3aa7ff" opacity="0.45"/><rect x="253.3" y="70.0" width="6.67" height="10.00" fill="#1f4f86" opacity="0.50"/><rect x="260.0" y="70.0" width="6.67" height="10.00" fill="#3aa7ff" opacity="0.45"/><rect x="266.7" y="70.0" width="6.67" height="10.00" fill="#3aa7ff" opacity="0.45"/><rect x="273.3" y="70.0" width="6.67" height="10.00" fill="#3aa7ff" opacity="0.45"/><rect x="393.3" y="70.0" width="6.67" height="10.00" fill="#1f4f86" opacity="0.50"/><rect x="413.3" y="70.0" width="6.67" height="10.00" fill="#1f4f86" opacity="0.50"/><rect x="420.0" y="70.0" width="6.67" height="10.00" fill="#3aa7ff" opacity="0.45"/><rect x="433.3" y="70.0" width="6.67" height="10.00" fill="#3aa7ff" opacity="0.45"/><rect x="446.7" y="70.0" width="6.67" height="10.00" fill="#5de3ff" opacity="0.60"/><rect x="453.3" y="70.0" width="6.67" height="10.00" fill="#3aa7ff" opacity="0.45"/><rect x="466.7" y="70.0" width="6.67" height="10.00" fill="#3aa7ff" opacity="0.45"/><rect x="473.3" y="70.0" width="6.67" height="10.00" fill="#1f4f86" opacity="0.50"/><rect x="486.7" y="70.0" width="6.67" height="10.00" fill="#1f4f86" opacity="0.50"/><rect x="586.7" y="70.0" width="6.67" height="10.00" fill="#1f4f86" opacity="0.50"/><rect x="600.0" y="70.0" width="6.67" height="10.00" fill="#1f4f86" opacity="0.50"/><rect x="633.3" y="70.0" width="6.67" height="10.00" fill="#1f4f86" opacity="0.50"/><rect x="0.0" y="80.0" width="6.67" height="10.00" fill="#1f4f86" opacity="0.50"/><rect x="6.7" y="80.0" width="6.67" height="10.00" fill="#1f4f86" opacity="0.50"/><rect x="13.3" y="80.0" width="6.67" height="10.00" fill="#1f4f86" opacity="0.50"/><rect x="26.7" y="80.0" width="6.67" height="10.00" fill="#3aa7ff" opacity="0.45"/><rect x="53.3" y="80.0" width="6.67" height="10.00" fill="#1f4f86" opacity="0.50"/><rect x="60.0" y="80.0" width="6.67" height="10.00" fill="#1f4f86" opacity="0.50"/><rect x="66.7" y="80.0" width="6.67" height="10.00" fill="#3aa7ff" opacity="0.45"/><rect x="200.0" y="80.0" width="6.67" height="10.00" fill="#3aa7ff" opacity="0.45"/><rect x="213.3" y="80.0" width="6.67" height="10.00" fill="#1f4f86" opacity="0.50"/><rect x="233.3" y="80.0" width="6.67" height="10.00" fill="#1f4f86" opacity="0.50"/><rect x="266.7" y="80.0" width="6.67" height="10.00" fill="#1f4f86" opacity="0.50"/><rect x="286.7" y="80.0" width="6.67" height="10.00" fill="#1f4f86" opacity="0.50"/><rect x="386.7" y="80.0" width="6.67" height="10.00" fill="#1f4f86" opacity="0.50"/><rect x="426.7" y="80.0" width="6.67" height="10.00" fill="#1f4f86" opacity="0.50"/><rect x="433.3" y="80.0" width="6.67" height="10.00" fill="#3aa7ff" opacity="0.45"/><rect x="440.0" y="80.0" width="6.67" height="10.00" fill="#8ef7e6" opacity="0.85"/><rect x="446.7" y="80.0" width="6.67" height="10.00" fill="#3aa7ff" opacity="0.45"/><rect x="453.3" y="80.0" width="6.67" height="10.00" fill="#3aa7ff" opacity="0.45"/><rect x="466.7" y="80.0" width="6.67" height="10.00" fill="#1f4f86" opacity="0.50"/><rect x="586.7" y="80.0" width="6.67" height="10.00" fill="#1f4f86" opacity="0.50"/><rect x="593.3" y="80.0" width="6.67" height="10.00" fill="#1f4f86" opacity="0.50"/><rect x="600.0" y="80.0" width="6.67" height="10.00" fill="#3aa7ff" opacity="0.45"/><rect x="606.7" y="80.0" width="6.67" height="10.00" fill="#5de3ff" opacity="0.60"/><rect x="626.7" y="80.0" width="6.67" height="10.00" fill="#3aa7ff" opacity="0.45"/><rect x="13.3" y="90.0" width="6.67" height="10.00" fill="#5de3ff" opacity="0.60"/><rect x="20.0" y="90.0" width="6.67" height="10.00" fill="#1f4f86" opacity="0.50"/><rect x="33.3" y="90.0" width="6.67" height="10.00" fill="#5de3ff" opacity="0.60"/><rect x="40.0" y="90.0" width="6.67" height="10.00" fill="#3aa7ff" opacity="0.45"/><rect x="53.3" y="90.0" width="6.67" height="10.00" fill="#5de3ff" opacity="0.60"/><rect x="193.3" y="90.0" width="6.67" height="10.00" fill="#1f4f86" opacity="0.50"/><rect x="226.7" y="90.0" width="6.67" height="10.00" fill="#3aa7ff" opacity="0.45"/><rect x="233.3" y="90.0" width="6.67" height="10.00" fill="#3aa7ff" opacity="0.45"/><rect x="240.0" y="90.0" width="6.67" height="10.00" fill="#1f4f86" opacity="0.50"/><rect x="253.3" y="90.0" width="6.67" height="10.00" fill="#3aa7ff" opacity="0.45"/><rect x="266.7" y="90.0" width="6.67" height="10.00" fill="#1f4f86" opacity="0.50"/><rect x="273.3" y="90.0" width="6.67" height="10.00" fill="#3aa7ff" opacity="0.45"/><rect x="393.3" y="90.0" width="6.67" height="10.00" fill="#1f4f86" opacity="0.50"/><rect x="406.7" y="90.0" width="6.67" height="10.00" fill="#1f4f86" opacity="0.50"/><rect x="413.3" y="90.0" width="6.67" height="10.00" fill="#3aa7ff" opacity="0.45"/><rect x="420.0" y="90.0" width="6.67" height="10.00" fill="#3aa7ff" opacity="0.45"/><rect x="433.3" y="90.0" width="6.67" height="10.00" fill="#5de3ff" opacity="0.60"/><rect x="460.0" y="90.0" width="6.67" height="10.00" fill="#3aa7ff" opacity="0.45"/><rect x="473.3" y="90.0" width="6.67" height="10.00" fill="#3aa7ff" opacity="0.45"/><rect x="620.0" y="90.0" width="6.67" height="10.00" fill="#3aa7ff" opacity="0.45"/><rect x="633.3" y="90.0" width="6.67" height="10.00" fill="#3aa7ff" opacity="0.45"/><rect x="0.0" y="100.0" width="6.67" height="10.00" fill="#1f4f86" opacity="0.50"/><rect x="33.3" y="100.0" width="6.67" height="10.00" fill="#5de3ff" opacity="0.60"/><rect x="46.7" y="100.0" width="6.67" height="10.00" fill="#1f4f86" opacity="0.50"/><rect x="60.0" y="100.0" width="6.67" height="10.00" fill="#1f4f86" opacity="0.50"/><rect x="66.7" y="100.0" width="6.67" height="10.00" fill="#3aa7ff" opacity="0.45"/><rect x="193.3" y="100.0" width="6.67" height="10.00" fill="#1f4f86" opacity="0.50"/><rect x="200.0" y="100.0" width="6.67" height="10.00" fill="#1f4f86" opacity="0.50"/><rect x="206.7" y="100.0" width="6.67" height="10.00" fill="#1f4f86" opacity="0.50"/><rect x="213.3" y="100.0" width="6.67" height="10.00" fill="#3aa7ff" opacity="0.45"/><rect x="240.0" y="100.0" width="6.67" height="10.00" fill="#5de3ff" opacity="0.60"/><rect x="246.7" y="100.0" width="6.67" height="10.00" fill="#5de3ff" opacity="0.60"/><rect x="393.3" y="100.0" width="6.67" height="10.00" fill="#1f4f86" opacity="0.50"/><rect x="400.0" y="100.0" width="6.67" height="10.00" fill="#1f4f86" opacity="0.50"/><rect x="406.7" y="100.0" width="6.67" height="10.00" fill="#1f4f86" opacity="0.50"/><rect x="413.3" y="100.0" width="6.67" height="10.00" fill="#3aa7ff" opacity="0.45"/><rect x="420.0" y="100.0" width="6.67" height="10.00" fill="#1f4f86" opacity="0.50"/><rect x="433.3" y="100.0" width="6.67" height="10.00" fill="#5de3ff" opacity="0.60"/><rect x="440.0" y="100.0" width="6.67" height="10.00" fill="#1f4f86" opacity="0.50"/><rect x="446.7" y="100.0" width="6.67" height="10.00" fill="#3aa7ff" opacity="0.45"/><rect x="453.3" y="100.0" width="6.67" height="10.00" fill="#3aa7ff" opacity="0.45"/><rect x="466.7" y="100.0" width="6.67" height="10.00" fill="#1f4f86" opacity="0.50"/><rect x="473.3" y="100.0" width="6.67" height="10.00" fill="#1f4f86" opacity="0.50"/><rect x="580.0" y="100.0" width="6.67" height="10.00" fill="#1f4f86" opacity="0.50"/><rect x="593.3" y="100.0" width="6.67" height="10.00" fill="#3aa7ff" opacity="0.45"/><rect x="606.7" y="100.0" width="6.67" height="10.00" fill="#1f4f86" opacity="0.50"/><rect x="613.3" y="100.0" width="6.67" height="10.00" fill="#1f4f86" opacity="0.50"/><rect x="620.0" y="100.0" width="6.67" height="10.00" fill="#5de3ff" opacity="0.60"/><rect x="633.3" y="100.0" width="6.67" height="10.00" fill="#5de3ff" opacity="0.60"/><rect x="6.7" y="110.0" width="6.67" height="10.00" fill="#3aa7ff" opacity="0.45"/><rect x="13.3" y="110.0" width="6.67" height="10.00" fill="#1f4f86" opacity="0.50"/><rect x="20.0" y="110.0" width="6.67" height="10.00" fill="#3aa7ff" opacity="0.45"/><rect x="26.7" y="110.0" width="6.67" height="10.00" fill="#1f4f86" opacity="0.50"/><rect x="33.3" y="110.0" width="6.67" height="10.00" fill="#1f4f86" opacity="0.50"/><rect x="46.7" y="110.0" width="6.67" height="10.00" fill="#1f4f86" opacity="0.50"/><rect x="53.3" y="110.0" width="6.67" height="10.00" fill="#1f4f86" opacity="0.50"/><rect x="73.3" y="110.0" width="6.67" height="10.00" fill="#3aa7ff" opacity="0.45"/><rect x="80.0" y="110.0" width="6.67" height="10.00" fill="#1f4f86" opacity="0.50"/><rect x="200.0" y="110.0" width="6.67" height="10.00" fill="#3aa7ff" opacity="0.45"/><rect x="206.7" y="110.0" width="6.67" height="10.00" fill="#1f4f86" opacity="0.50"/><rect x="213.3" y="110.0" width="6.67" height="10.00" fill="#3aa7ff" opacity="0.45"/><rect x="233.3" y="110.0" width="6.67" height="10.00" fill="#5de3ff" opacity="0.60"/><rect x="240.0" y="110.0" width="6.67" height="10.00" fill="#5de3ff" opacity="0.60"/><rect x="246.7" y="110.0" width="6.67" height="10.00" fill="#3aa7ff" opacity="0.45"/><rect x="266.7" y="110.0" width="6.67" height="10.00" fill="#3aa7ff" opacity="0.45"/><rect x="280.0" y="110.0" width="6.67" height="10.00" fill="#1f4f86" opacity="0.50"/><rect x="393.3" y="110.0" width="6.67" height="10.00" fill="#1f4f86" opacity="0.50"/><rect x="400.0" y="110.0" width="6.67" height="10.00" fill="#1f4f86" opacity="0.50"/><rect x="420.0" y="110.0" width="6.67" height="10.00" fill="#1f4f86" opacity="0.50"/><rect x="440.0" y="110.0" width="6.67" height="10.00" fill="#1f4f86" opacity="0.50"/><rect x="446.7" y="110.0" width="6.67" height="10.00" fill="#1f4f86" opacity="0.50"/><rect x="460.0" y="110.0" width="6.67" height="10.00" fill="#3aa7ff" opacity="0.45"/><rect x="593.3" y="110.0" width="6.67" height="10.00" fill="#1f4f86" opacity="0.50"/><rect x="613.3" y="110.0" width="6.67" height="10.00" fill="#5de3ff" opacity="0.60"/><rect x="620.0" y="110.0" width="6.67" height="10.00" fill="#5de3ff" opacity="0.60"/><rect x="626.7" y="110.0" width="6.67" height="10.00" fill="#3aa7ff" opacity="0.45"/><rect x="633.3" y="110.0" width="6.67" height="10.00" fill="#5de3ff" opacity="0.60"/><rect x="6.7" y="120.0" width="6.67" height="10.00" fill="#3aa7ff" opacity="0.45"/><rect x="13.3" y="120.0" width="6.67" height="10.00" fill="#3aa7ff" opacity="0.45"/><rect x="20.0" y="120.0" width="6.67" height="10.00" fill="#1f4f86" opacity="0.50"/><rect x="73.3" y="120.0" width="6.67" height="10.00" fill="#1f4f86" opacity="0.50"/><rect x="206.7" y="120.0" width="6.67" height="10.00" fill="#5de3ff" opacity="0.60"/><rect x="213.3" y="120.0" width="6.67" height="10.00" fill="#1f4f86" opacity="0.50"/><rect x="220.0" y="120.0" width="6.67" height="10.00" fill="#1f4f86" opacity="0.50"/><rect x="233.3" y="120.0" width="6.67" height="10.00" fill="#1f4f86" opacity="0.50"/><rect x="240.0" y="120.0" width="6.67" height="10.00" fill="#5de3ff" opacity="0.60"/><rect x="246.7" y="120.0" width="6.67" height="10.00" fill="#1f4f86" opacity="0.50"/><rect x="253.3" y="120.0" width="6.67" height="10.00" fill="#5de3ff" opacity="0.60"/><rect x="260.0" y="120.0" width="6.67" height="10.00" fill="#3aa7ff" opacity="0.45"/><rect x="266.7" y="120.0" width="6.67" height="10.00" fill="#1f4f86" opacity="0.50"/><rect x="386.7" y="120.0" width="6.67" height="10.00" fill="#1f4f86" opacity="0.50"/><rect x="413.3" y="120.0" width="6.67" height="10.00" fill="#5de3ff" opacity="0.60"/><rect x="426.7" y="120.0" width="6.67" height="10.00" fill="#3aa7ff" opacity="0.45"/><rect x="433.3" y="120.0" width="6.67" height="10.00" fill="#5de3ff" opacity="0.60"/><rect x="440.0" y="120.0" width="6.67" height="10.00" fill="#3aa7ff" opacity="0.45"/><rect x="446.7" y="120.0" width="6.67" height="10.00" fill="#1f4f86" opacity="0.50"/><rect x="466.7" y="120.0" width="6.67" height="10.00" fill="#1f4f86" opacity="0.50"/><rect x="480.0" y="120.0" width="6.67" height="10.00" fill="#1f4f86" opacity="0.50"/><rect x="580.0" y="120.0" width="6.67" height="10.00" fill="#1f4f86" opacity="0.50"/><rect x="633.3" y="120.0" width="6.67" height="10.00" fill="#3aa7ff" opacity="0.45"/><rect x="6.7" y="130.0" width="6.67" height="10.00" fill="#3aa7ff" opacity="0.45"/><rect x="13.3" y="130.0" width="6.67" height="10.00" fill="#5de3ff" opacity="0.60"/><rect x="26.7" y="130.0" width="6.67" height="10.00" fill="#1f4f86" opacity="0.50"/><rect x="33.3" y="130.0" width="6.67" height="10.00" fill="#5de3ff" opacity="0.60"/><rect x="53.3" y="130.0" width="6.67" height="10.00" fill="#3aa7ff" opacity="0.45"/><rect x="66.7" y="130.0" width="6.67" height="10.00" fill="#1f4f86" opacity="0.50"/><rect x="180.0" y="130.0" width="6.67" height="10.00" fill="#1f4f86" opacity="0.50"/><rect x="186.7" y="130.0" width="6.67" height="10.00" fill="#1f4f86" opacity="0.50"/><rect x="206.7" y="130.0" width="6.67" height="10.00" fill="#5de3ff" opacity="0.60"/><rect x="213.3" y="130.0" width="6.67" height="10.00" fill="#5de3ff" opacity="0.60"/><rect x="226.7" y="130.0" width="6.67" height="10.00" fill="#3aa7ff" opacity="0.45"/><rect x="240.0" y="130.0" width="6.67" height="10.00" fill="#3aa7ff" opacity="0.45"/><rect x="246.7" y="130.0" width="6.67" height="10.00" fill="#5de3ff" opacity="0.60"/><rect x="266.7" y="130.0" width="6.67" height="10.00" fill="#1f4f86" opacity="0.50"/><rect x="386.7" y="130.0" width="6.67" height="10.00" fill="#1f4f86" opacity="0.50"/><rect x="393.3" y="130.0" width="6.67" height="10.00" fill="#3aa7ff" opacity="0.45"/><rect x="413.3" y="130.0" width="6.67" height="10.00" fill="#3aa7ff" opacity="0.45"/><rect x="426.7" y="130.0" width="6.67" height="10.00" fill="#1f4f86" opacity="0.50"/><rect x="433.3" y="130.0" width="6.67" height="10.00" fill="#8ef7e6" opacity="0.85"/><rect x="460.0" y="130.0" width="6.67" height="10.00" fill="#1f4f86" opacity="0.50"/><rect x="586.7" y="130.0" width="6.67" height="10.00" fill="#1f4f86" opacity="0.50"/><rect x="600.0" y="130.0" width="6.67" height="10.00" fill="#1f4f86" opacity="0.50"/><rect x="613.3" y="130.0" width="6.67" height="10.00" fill="#5de3ff" opacity="0.60"/><rect x="626.7" y="130.0" width="6.67" height="10.00" fill="#8ef7e6" opacity="0.85"/><rect x="633.3" y="130.0" width="6.67" height="10.00" fill="#5de3ff" opacity="0.60"/><rect x="0.0" y="140.0" width="6.67" height="10.00" fill="#3aa7ff" opacity="0.45"/><rect x="6.7" y="140.0" width="6.67" height="10.00" fill="#1f4f86" opacity="0.50"/><rect x="20.0" y="140.0" width="6.67" height="10.00" fill="#1f4f86" opacity="0.50"/><rect x="26.7" y="140.0" width="6.67" height="10.00" fill="#8ef7e6" opacity="0.85"/><rect x="40.0" y="140.0" width="6.67" height="10.00" fill="#1f4f86" opacity="0.50"/><rect x="46.7" y="140.0" width="6.67" height="10.00" fill="#5de3ff" opacity="0.60"/><rect x="66.7" y="140.0" width="6.67" height="10.00" fill="#1f4f86" opacity="0.50"/><rect x="73.3" y="140.0" width="6.67" height="10.00" fill="#1f4f86" opacity="0.50"/><rect x="193.3" y="140.0" width="6.67" height="10.00" fill="#1f4f86" opacity="0.50"/><rect x="200.0" y="140.0" width="6.67" height="10.00" fill="#3aa7ff" opacity="0.45"/><rect x="206.7" y="140.0" width="6.67" height="10.00" fill="#3aa7ff" opacity="0.45"/><rect x="213.3" y="140.0" width="6.67" height="10.00" fill="#1f4f86" opacity="0.50"/><rect x="226.7" y="140.0" width="6.67" height="10.00" fill="#3aa7ff" opacity="0.45"/><rect x="266.7" y="140.0" width="6.67" height="10.00" fill="#1f4f86" opacity="0.50"/><rect x="273.3" y="140.0" width="6.67" height="10.00" fill="#1f4f86" opacity="0.50"/><rect x="386.7" y="140.0" width="6.67" height="10.00" fill="#1f4f86" opacity="0.50"/><rect x="413.3" y="140.0" width="6.67" height="10.00" fill="#5de3ff" opacity="0.60"/><rect x="420.0" y="140.0" width="6.67" height="10.00" fill="#3aa7ff" opacity="0.45"/><rect x="440.0" y="140.0" width="6.67" height="10.00" fill="#1f4f86" opacity="0.50"/><rect x="446.7" y="140.0" width="6.67" height="10.00" fill="#3aa7ff" opacity="0.45"/><rect x="453.3" y="140.0" width="6.67" height="10.00" fill="#1f4f86" opacity="0.50"/><rect x="460.0" y="140.0" width="6.67" height="10.00" fill="#1f4f86" opacity="0.50"/><rect x="466.7" y="140.0" width="6.67" height="10.00" fill="#1f4f86" opacity="0.50"/><rect x="580.0" y="140.0" width="6.67" height="10.00" fill="#1f4f86" opacity="0.50"/><rect x="593.3" y="140.0" width="6.67" height="10.00" fill="#3aa7ff" opacity="0.45"/><rect x="606.7" y="140.0" width="6.67" height="10.00" fill="#1f4f86" opacity="0.50"/><rect x="620.0" y="140.0" width="6.67" height="10.00" fill="#8ef7e6" opacity="0.85"/><rect x="633.3" y="140.0" width="6.67" height="10.00" fill="#3aa7ff" opacity="0.45"/><rect x="0.0" y="150.0" width="6.67" height="10.00" fill="#5de3ff" opacity="0.60"/><rect x="6.7" y="150.0" width="6.67" height="10.00" fill="#3aa7ff" opacity="0.45"/><rect x="20.0" y="150.0" width="6.67" height="10.00" fill="#3aa7ff" opacity="0.45"/><rect x="33.3" y="150.0" width="6.67" height="10.00" fill="#5de3ff" opacity="0.60"/><rect x="40.0" y="150.0" width="6.67" height="10.00" fill="#1f4f86" opacity="0.50"/><rect x="46.7" y="150.0" width="6.67" height="10.00" fill="#1f4f86" opacity="0.50"/><rect x="60.0" y="150.0" width="6.67" height="10.00" fill="#3aa7ff" opacity="0.45"/><rect x="73.3" y="150.0" width="6.67" height="10.00" fill="#1f4f86" opacity="0.50"/><rect x="180.0" y="150.0" width="6.67" height="10.00" fill="#1f4f86" opacity="0.50"/><rect x="206.7" y="150.0" width="6.67" height="10.00" fill="#3aa7ff" opacity="0.45"/><rect x="213.3" y="150.0" width="6.67" height="10.00" fill="#3aa7ff" opacity="0.45"/><rect x="220.0" y="150.0" width="6.67" height="10.00" fill="#3aa7ff" opacity="0.45"/><rect x="226.7" y="150.0" width="6.67" height="10.00" fill="#3aa7ff" opacity="0.45"/><rect x="240.0" y="150.0" width="6.67" height="10.00" fill="#5de3ff" opacity="0.60"/><rect x="246.7" y="150.0" width="6.67" height="10.00" fill="#3aa7ff" opacity="0.45"/><rect x="393.3" y="150.0" width="6.67" height="10.00" fill="#1f4f86" opacity="0.50"/><rect x="400.0" y="150.0" width="6.67" height="10.00" fill="#1f4f86" opacity="0.50"/><rect x="420.0" y="150.0" width="6.67" height="10.00" fill="#3aa7ff" opacity="0.45"/><rect x="426.7" y="150.0" width="6.67" height="10.00" fill="#3aa7ff" opacity="0.45"/><rect x="440.0" y="150.0" width="6.67" height="10.00" fill="#1f4f86" opacity="0.50"/><rect x="446.7" y="150.0" width="6.67" height="10.00" fill="#3aa7ff" opacity="0.45"/><rect x="453.3" y="150.0" width="6.67" height="10.00" fill="#1f4f86" opacity="0.50"/><rect x="580.0" y="150.0" width="6.67" height="10.00" fill="#1f4f86" opacity="0.50"/><rect x="586.7" y="150.0" width="6.67" height="10.00" fill="#1f4f86" opacity="0.50"/><rect x="600.0" y="150.0" width="6.67" height="10.00" fill="#3aa7ff" opacity="0.45"/><rect x="606.7" y="150.0" width="6.67" height="10.00" fill="#5de3ff" opacity="0.60"/><rect x="613.3" y="150.0" width="6.67" height="10.00" fill="#3aa7ff" opacity="0.45"/><rect x="620.0" y="150.0" width="6.67" height="10.00" fill="#5de3ff" opacity="0.60"/><rect x="626.7" y="150.0" width="6.67" height="10.00" fill="#3aa7ff" opacity="0.45"/><rect x="633.3" y="150.0" width="6.67" height="10.00" fill="#5de3ff" opacity="0.60"/></g>
  <polyline points="0,374.2 4,372.2 8,356.4 12,362.8 16,367.2 20,356.2 24,359.4 28,363.6 32,351.4 36,351.8 40,349.2 44,358.8 48,357.2 52,351.6 56,348.8 60,354.1 64,352.4 68,364.3 72,362.4 76,352.9 80,362.2 84,358.2 88,354.7 92,368.8 96,363.2 100,361.7 104,358.9 108,368.7 112,377.8 116,363.8 120,372.3 124,366.5 128,363.2 132,367.6 136,373.9 140,370.5 144,374.1 148,368.1 152,365.7 156,371.3 160,379.2 164,366.4 168,370.2 172,364.3 176,363.9 180,371.4 184,351.8 188,349.8 192,342.9 196,334.4 200,331.7 204,306.6 208,295.9 212,293.7 216,300.2 220,300.7 224,287.8 228,312.0 232,314.4 236,327.3 240,335.7 244,348.9 248,344.4 252,350.5 256,349.4 260,359.0 264,365.9 268,351.3 272,370.2 276,365.4 280,360.4 284,365.4 288,360.5 292,362.2 296,363.8 300,361.1 304,370.8 308,378.9 312,370.4 316,362.9 320,363.8 324,368.8 328,376.9 332,377.3 336,376.6 340,373.2 344,371.2 348,364.4 352,375.5 356,367.5 360,366.2 364,369.0 368,370.0 372,368.9 376,364.4 380,374.5 384,370.5 388,367.2 392,363.3 396,362.8 400,359.0 404,352.2 408,364.3 412,357.3 416,365.5 420,359.2 424,365.0 428,348.9 432,353.0 436,360.6 440,364.2 444,352.0 448,351.0 452,352.5 456,358.1 460,366.5 464,362.4 468,369.3 472,358.4 476,363.7 480,370.4 484,365.0 488,362.7 492,370.7 496,368.4 500,373.7 504,378.2 508,364.4 512,364.8 516,371.4 520,364.7 524,369.3 528,366.1 532,370.5 536,367.1 540,377.7 544,370.4 548,365.9 552,364.7 556,373.5 560,364.6 564,373.2 568,373.5 572,358.5 576,360.9 580,370.0 584,367.7 588,368.4 592,356.8 596,354.0 600,350.6 604,353.5 608,365.6 612,359.5 616,351.2 620,360.1 624,365.6 628,353.0 632,356.8 636,351.6 640,355.2" fill="none" stroke="url(#trace)" stroke-width="2.2" stroke-linejoin="round" filter="url(#glow)"/>
  <polygon points="0,560 0,374.2 4,372.2 8,356.4 12,362.8 16,367.2 20,356.2 24,359.4 28,363.6 32,351.4 36,351.8 40,349.2 44,358.8 48,357.2 52,351.6 56,348.8 60,354.1 64,352.4 68,364.3 72,362.4 76,352.9 80,362.2 84,358.2 88,354.7 92,368.8 96,363.2 100,361.7 104,358.9 108,368.7 112,377.8 116,363.8 120,372.3 124,366.5 128,363.2 132,367.6 136,373.9 140,370.5 144,374.1 148,368.1 152,365.7 156,371.3 160,379.2 164,366.4 168,370.2 172,364.3 176,363.9 180,371.4 184,351.8 188,349.8 192,342.9 196,334.4 200,331.7 204,306.6 208,295.9 212,293.7 216,300.2 220,300.7 224,287.8 228,312.0 232,314.4 236,327.3 240,335.7 244,348.9 248,344.4 252,350.5 256,349.4 260,359.0 264,365.9 268,351.3 272,370.2 276,365.4 280,360.4 284,365.4 288,360.5 292,362.2 296,363.8 300,361.1 304,370.8 308,378.9 312,370.4 316,362.9 320,363.8 324,368.8 328,376.9 332,377.3 336,376.6 340,373.2 344,371.2 348,364.4 352,375.5 356,367.5 360,366.2 364,369.0 368,370.0 372,368.9 376,364.4 380,374.5 384,370.5 388,367.2 392,363.3 396,362.8 400,359.0 404,352.2 408,364.3 412,357.3 416,365.5 420,359.2 424,365.0 428,348.9 432,353.0 436,360.6 440,364.2 444,352.0 448,351.0 452,352.5 456,358.1 460,366.5 464,362.4 468,369.3 472,358.4 476,363.7 480,370.4 484,365.0 488,362.7 492,370.7 496,368.4 500,373.7 504,378.2 508,364.4 512,364.8 516,371.4 520,364.7 524,369.3 528,366.1 532,370.5 536,367.1 540,377.7 544,370.4 548,365.9 552,364.7 556,373.5 560,364.6 564,373.2 568,373.5 572,358.5 576,360.9 580,370.0 584,367.7 588,368.4 592,356.8 596,354.0 600,350.6 604,353.5 608,365.6 612,359.5 616,351.2 620,360.1 624,365.6 628,353.0 632,356.8 636,351.6 640,355.2 640,560" fill="url(#trace)" opacity="0.07"/>
  <text x="320" y="108" font-family="ui-monospace, 'SF Mono', SFMono-Regular, Menlo, Consolas, monospace" font-size="15" letter-spacing="3.6" text-anchor="middle" fill="#5f708a">DIGITAL VOICE</text>
  <text x="320" y="174" font-family="ui-monospace, 'SF Mono', SFMono-Regular, Menlo, Consolas, monospace" font-size="58" font-weight="700" letter-spacing="-1" text-anchor="middle" fill="url(#accent)">v26.7.2</text>
  <circle cx="320" cy="296" r="88" fill="#8ef7e6" opacity="0.09" filter="url(#softglow)"/>
  <g transform="translate(320 296) scale(0.92)" color="#5de3ff" filter="url(#glow)"><circle r="34" fill="none" stroke="currentColor" stroke-width="3"/><path d="M-18 0h8v-12h8v22h8v-14h8v4h6" fill="none" stroke="currentColor" stroke-width="3" stroke-linejoin="round" stroke-linecap="round"/><path d="M52 -32a52 52 0 0 1 0 64" fill="none" stroke="currentColor" stroke-width="2.6" stroke-linecap="round" opacity=".62"/><path d="M-52 -32a52 52 0 0 0 0 64" fill="none" stroke="currentColor" stroke-width="2.6" stroke-linecap="round" opacity=".62"/><path d="M74 -45a74 74 0 0 1 0 91" fill="none" stroke="currentColor" stroke-width="2.6" stroke-linecap="round" opacity=".34"/><path d="M-74 -45a74 74 0 0 0 0 91" fill="none" stroke="currentColor" stroke-width="2.6" stroke-linecap="round" opacity=".34"/></g>
</svg>
