<svg xmlns="http://www.w3.org/2000/svg" viewBox="0 0 640 560" width="640" height="560" role="img" aria-label="AetherSDR v26.7.1 — The band, over time">
  <defs>
    <linearGradient id="bg" x1="0" y1="0" x2="0.35" y2="1">
      <stop offset="0" stop-color="#0a121e"/>
      <stop offset="0.55" stop-color="#060b13"/>
      <stop offset="1" stop-color="#070d17"/>
    </linearGradient>
    <linearGradient id="chain" gradientUnits="userSpaceOnUse"
        x1="0" y1="0" x2="0" y2="0">
      <stop offset="0" stop-color="#3aa7ff" stop-opacity="0.30"/>
      <stop offset="0.5" stop-color="#5de3ff" stop-opacity="0.7"/>
      <stop offset="1" stop-color="#8ef7e6" stop-opacity="1"/>
    </linearGradient>
    <linearGradient id="accent" x1="0" y1="0" x2="1" y2="1">
      <stop offset="0" stop-color="#3aa7ff"/>
      <stop offset="0.45" stop-color="#5de3ff"/>
      <stop offset="1" stop-color="#8ef7e6"/>
    </linearGradient>
    <linearGradient id="trace" x1="0" y1="0" x2="1" y2="0">
      <stop offset="0" stop-color="#3aa7ff" stop-opacity="0.35"/>
      <stop offset="0.6" stop-color="#5de3ff" stop-opacity="0.9"/>
      <stop offset="1" stop-color="#8ef7e6"/>
    </linearGradient>
    <linearGradient id="fade" x1="0" y1="0" x2="0" y2="1">
      <stop offset="0" stop-color="#ffffff" stop-opacity="0.85"/>
      <stop offset="1" stop-color="#ffffff" stop-opacity="0"/>
    </linearGradient>
    <mask id="wfmask">
      <rect x="0" y="0" width="640" height="560" fill="url(#fade)"/>
    </mask>
    <filter id="glow" x="-60%" y="-60%" width="220%" height="220%">
      <feGaussianBlur stdDeviation="7" result="b"/>
      <feMerge><feMergeNode in="b"/><feMergeNode in="SourceGraphic"/></feMerge>
    </filter>
    <filter id="softglow" x="-80%" y="-80%" width="260%" height="260%">
      <feGaussianBlur stdDeviation="14"/>
    </filter>
  </defs>
  <rect width="640" height="560" fill="url(#bg)"/>
  <path d="M34 0V560M68 0V560M102 0V560M136 0V560M170 0V560M204 0V560M238 0V560M272 0V560M306 0V560M340 0V560M374 0V560M408 0V560M442 0V560M476 0V560M510 0V560M544 0V560M578 0V560M612 0V560M0 34H640M0 68H640M0 102H640M0 136H640M0 170H640M0 204H640M0 238H640M0 272H640M0 306H640M0 340H640M0 374H640M0 408H640M0 442H640M0 476H640M0 510H640M0 544H640" stroke="rgba(120,165,210,0.055)" stroke-width="1" fill="none"/>
  <g mask="url(#wfmask)" transform="translate(0 400)"><rect x="20.0" y="0.0" width="6.67" height="10.00" fill="#1f4f86" opacity="0.50"/><rect x="26.7" y="0.0" width="6.67" height="10.00" fill="#3aa7ff" opacity="0.45"/><rect x="40.0" y="0.0" width="6.67" height="10.00" fill="#1f4f86" opacity="0.50"/><rect x="46.7" y="0.0" width="6.67" height="10.00" fill="#5de3ff" opacity="0.60"/><rect x="66.7" y="0.0" width="6.67" height="10.00" fill="#5de3ff" opacity="0.60"/><rect x="80.0" y="0.0" width="6.67" height="10.00" fill="#3aa7ff" opacity="0.45"/><rect x="86.7" y="0.0" width="6.67" height="10.00" fill="#3aa7ff" opacity="0.45"/><rect x="213.3" y="0.0" width="6.67" height="10.00" fill="#3aa7ff" opacity="0.45"/><rect x="246.7" y="0.0" width="6.67" height="10.00" fill="#5de3ff" opacity="0.60"/><rect x="253.3" y="0.0" width="6.67" height="10.00" fill="#5de3ff" opacity="0.60"/><rect x="260.0" y="0.0" width="6.67" height="10.00" fill="#8ef7e6" opacity="0.85"/><rect x="273.3" y="0.0" width="6.67" height="10.00" fill="#3aa7ff" opacity="0.45"/><rect x="293.3" y="0.0" width="6.67" height="10.00" fill="#1f4f86" opacity="0.50"/><rect x="413.3" y="0.0" width="6.67" height="10.00" fill="#1f4f86" opacity="0.50"/><rect x="420.0" y="0.0" width="6.67" height="10.00" fill="#5de3ff" opacity="0.60"/><rect x="426.7" y="0.0" width="6.67" height="10.00" fill="#5de3ff" opacity="0.60"/><rect x="433.3" y="0.0" width="6.67" height="10.00" fill="#3aa7ff" opacity="0.45"/><rect x="453.3" y="0.0" width="6.67" height="10.00" fill="#8ef7e6" opacity="0.85"/><rect x="460.0" y="0.0" width="6.67" height="10.00" fill="#3aa7ff" opacity="0.45"/><rect x="600.0" y="0.0" width="6.67" height="10.00" fill="#1f4f86" opacity="0.50"/><rect x="606.7" y="0.0" width="6.67" height="10.00" fill="#1f4f86" opacity="0.50"/><rect x="613.3" y="0.0" width="6.67" height="10.00" fill="#1f4f86" opacity="0.50"/><rect x="620.0" y="0.0" width="6.67" height="10.00" fill="#3aa7ff" opacity="0.45"/><rect x="626.7" y="0.0" width="6.67" height="10.00" fill="#5de3ff" opacity="0.60"/><rect x="13.3" y="10.0" width="6.67" height="10.00" fill="#1f4f86" opacity="0.50"/><rect x="20.0" y="10.0" width="6.67" height="10.00" fill="#3aa7ff" opacity="0.45"/><rect x="26.7" y="10.0" width="6.67" height="10.00" fill="#1f4f86" opacity="0.50"/><rect x="46.7" y="10.0" width="6.67" height="10.00" fill="#5de3ff" opacity="0.60"/><rect x="60.0" y="10.0" width="6.67" height="10.00" fill="#8ef7e6" opacity="0.85"/><rect x="66.7" y="10.0" width="6.67" height="10.00" fill="#1f4f86" opacity="0.50"/><rect x="80.0" y="10.0" width="6.67" height="10.00" fill="#1f4f86" opacity="0.50"/><rect x="206.7" y="10.0" width="6.67" height="10.00" fill="#1f4f86" opacity="0.50"/><rect x="220.0" y="10.0" width="6.67" height="10.00" fill="#3aa7ff" opacity="0.45"/><rect x="226.7" y="10.0" width="6.67" height="10.00" fill="#3aa7ff" opacity="0.45"/><rect x="233.3" y="10.0" width="6.67" height="10.00" fill="#1f4f86" opacity="0.50"/><rect x="240.0" y="10.0" width="6.67" height="10.00" fill="#5de3ff" opacity="0.60"/><rect x="253.3" y="10.0" width="6.67" height="10.00" fill="#3aa7ff" opacity="0.45"/><rect x="260.0" y="10.0" width="6.67" height="10.00" fill="#3aa7ff" opacity="0.45"/><rect x="266.7" y="10.0" width="6.67" height="10.00" fill="#1f4f86" opacity="0.50"/><rect x="273.3" y="10.0" width="6.67" height="10.00" fill="#3aa7ff" opacity="0.45"/><rect x="406.7" y="10.0" width="6.67" height="10.00" fill="#1f4f86" opacity="0.50"/><rect x="413.3" y="10.0" width="6.67" height="10.00" fill="#3aa7ff" opacity="0.45"/><rect x="426.7" y="10.0" width="6.67" height="10.00" fill="#3aa7ff" opacity="0.45"/><rect x="440.0" y="10.0" width="6.67" height="10.00" fill="#8ef7e6" opacity="0.85"/><rect x="446.7" y="10.0" width="6.67" height="10.00" fill="#5de3ff" opacity="0.60"/><rect x="453.3" y="10.0" width="6.67" height="10.00" fill="#1f4f86" opacity="0.50"/><rect x="460.0" y="10.0" width="6.67" height="10.00" fill="#5de3ff" opacity="0.60"/><rect x="480.0" y="10.0" width="6.67" height="10.00" fill="#3aa7ff" opacity="0.45"/><rect x="613.3" y="10.0" width="6.67" height="10.00" fill="#3aa7ff" opacity="0.45"/><rect x="6.7" y="20.0" width="6.67" height="10.00" fill="#3aa7ff" opacity="0.45"/><rect x="13.3" y="20.0" width="6.67" height="10.00" fill="#3aa7ff" opacity="0.45"/><rect x="26.7" y="20.0" width="6.67" height="10.00" fill="#1f4f86" opacity="0.50"/><rect x="33.3" y="20.0" width="6.67" height="10.00" fill="#1f4f86" opacity="0.50"/><rect x="46.7" y="20.0" width="6.67" height="10.00" fill="#5de3ff" opacity="0.60"/><rect x="200.0" y="20.0" width="6.67" height="10.00" fill="#1f4f86" opacity="0.50"/><rect x="233.3" y="20.0" width="6.67" height="10.00" fill="#5de3ff" opacity="0.60"/><rect x="246.7" y="20.0" width="6.67" height="10.00" fill="#5de3ff" opacity="0.60"/><rect x="253.3" y="20.0" width="6.67" height="10.00" fill="#5de3ff" opacity="0.60"/><rect x="286.7" y="20.0" width="6.67" height="10.00" fill="#1f4f86" opacity="0.50"/><rect x="293.3" y="20.0" width="6.67" height="10.00" fill="#1f4f86" opacity="0.50"/><rect x="406.7" y="20.0" width="6.67" height="10.00" fill="#3aa7ff" opacity="0.45"/><rect x="413.3" y="20.0" width="6.67" height="10.00" fill="#1f4f86" opacity="0.50"/><rect x="426.7" y="20.0" width="6.67" height="10.00" fill="#5de3ff" opacity="0.60"/><rect x="433.3" y="20.0" width="6.67" height="10.00" fill="#3aa7ff" opacity="0.45"/><rect x="453.3" y="20.0" width="6.67" height="10.00" fill="#8ef7e6" opacity="0.85"/><rect x="466.7" y="20.0" width="6.67" height="10.00" fill="#3aa7ff" opacity="0.45"/><rect x="473.3" y="20.0" width="6.67" height="10.00" fill="#3aa7ff" opacity="0.45"/><rect x="486.7" y="20.0" width="6.67" height="10.00" fill="#3aa7ff" opacity="0.45"/><rect x="600.0" y="20.0" width="6.67" height="10.00" fill="#1f4f86" opacity="0.50"/><rect x="620.0" y="20.0" width="6.67" height="10.00" fill="#3aa7ff" opacity="0.45"/><rect x="20.0" y="30.0" width="6.67" height="10.00" fill="#3aa7ff" opacity="0.45"/><rect x="26.7" y="30.0" width="6.67" height="10.00" fill="#5de3ff" opacity="0.60"/><rect x="33.3" y="30.0" width="6.67" height="10.00" fill="#3aa7ff" opacity="0.45"/><rect x="40.0" y="30.0" width="6.67" height="10.00" fill="#1f4f86" opacity="0.50"/><rect x="53.3" y="30.0" width="6.67" height="10.00" fill="#5de3ff" opacity="0.60"/><rect x="73.3" y="30.0" width="6.67" height="10.00" fill="#3aa7ff" opacity="0.45"/><rect x="80.0" y="30.0" width="6.67" height="10.00" fill="#1f4f86" opacity="0.50"/><rect x="200.0" y="30.0" width="6.67" height="10.00" fill="#1f4f86" opacity="0.50"/><rect x="206.7" y="30.0" width="6.67" height="10.00" fill="#1f4f86" opacity="0.50"/><rect x="213.3" y="30.0" width="6.67" height="10.00" fill="#1f4f86" opacity="0.50"/><rect x="220.0" y="30.0" width="6.67" height="10.00" fill="#1f4f86" opacity="0.50"/><rect x="226.7" y="30.0" width="6.67" height="10.00" fill="#3aa7ff" opacity="0.45"/><rect x="233.3" y="30.0" width="6.67" height="10.00" fill="#5de3ff" opacity="0.60"/><rect x="246.7" y="30.0" width="6.67" height="10.00" fill="#5de3ff" opacity="0.60"/><rect x="260.0" y="30.0" width="6.67" height="10.00" fill="#1f4f86" opacity="0.50"/><rect x="266.7" y="30.0" width="6.67" height="10.00" fill="#5de3ff" opacity="0.60"/><rect x="293.3" y="30.0" width="6.67" height="10.00" fill="#1f4f86" opacity="0.50"/><rect x="400.0" y="30.0" width="6.67" height="10.00" fill="#1f4f86" opacity="0.50"/><rect x="446.7" y="30.0" width="6.67" height="10.00" fill="#1f4f86" opacity="0.50"/><rect x="453.3" y="30.0" width="6.67" height="10.00" fill="#8ef7e6" opacity="0.85"/><rect x="460.0" y="30.0" width="6.67" height="10.00" fill="#5de3ff" opacity="0.60"/><rect x="466.7" y="30.0" width="6.67" height="10.00" fill="#3aa7ff" opacity="0.45"/><rect x="486.7" y="30.0" width="6.67" height="10.00" fill="#1f4f86" opacity="0.50"/><rect x="593.3" y="30.0" width="6.67" height="10.00" fill="#1f4f86" opacity="0.50"/><rect x="613.3" y="30.0" width="6.67" height="10.00" fill="#3aa7ff" opacity="0.45"/><rect x="626.7" y="30.0" width="6.67" height="10.00" fill="#3aa7ff" opacity="0.45"/><rect x="633.3" y="30.0" width="6.67" height="10.00" fill="#3aa7ff" opacity="0.45"/><rect x="0.0" y="40.0" width="6.67" height="10.00" fill="#1f4f86" opacity="0.50"/><rect x="6.7" y="40.0" width="6.67" height="10.00" fill="#1f4f86" opacity="0.50"/><rect x="13.3" y="40.0" width="6.67" height="10.00" fill="#3aa7ff" opacity="0.45"/><rect x="20.0" y="40.0" width="6.67" height="10.00" fill="#1f4f86" opacity="0.50"/><rect x="26.7" y="40.0" width="6.67" height="10.00" fill="#5de3ff" opacity="0.60"/><rect x="40.0" y="40.0" width="6.67" height="10.00" fill="#5de3ff" opacity="0.60"/><rect x="66.7" y="40.0" width="6.67" height="10.00" fill="#1f4f86" opacity="0.50"/><rect x="86.7" y="40.0" width="6.67" height="10.00" fill="#1f4f86" opacity="0.50"/><rect x="193.3" y="40.0" width="6.67" height="10.00" fill="#1f4f86" opacity="0.50"/><rect x="206.7" y="40.0" width="6.67" height="10.00" fill="#3aa7ff" opacity="0.45"/><rect x="213.3" y="40.0" width="6.67" height="10.00" fill="#5de3ff" opacity="0.60"/><rect x="220.0" y="40.0" width="6.67" height="10.00" fill="#1f4f86" opacity="0.50"/><rect x="226.7" y="40.0" width="6.67" height="10.00" fill="#5de3ff" opacity="0.60"/><rect x="233.3" y="40.0" width="6.67" height="10.00" fill="#5de3ff" opacity="0.60"/><rect x="240.0" y="40.0" width="6.67" height="10.00" fill="#3aa7ff" opacity="0.45"/><rect x="253.3" y="40.0" width="6.67" height="10.00" fill="#5de3ff" opacity="0.60"/><rect x="273.3" y="40.0" width="6.67" height="10.00" fill="#3aa7ff" opacity="0.45"/><rect x="286.7" y="40.0" width="6.67" height="10.00" fill="#1f4f86" opacity="0.50"/><rect x="393.3" y="40.0" width="6.67" height="10.00" fill="#1f4f86" opacity="0.50"/><rect x="406.7" y="40.0" width="6.67" height="10.00" fill="#3aa7ff" opacity="0.45"/><rect x="413.3" y="40.0" width="6.67" height="10.00" fill="#3aa7ff" opacity="0.45"/><rect x="426.7" y="40.0" width="6.67" height="10.00" fill="#1f4f86" opacity="0.50"/><rect x="433.3" y="40.0" width="6.67" height="10.00" fill="#3aa7ff" opacity="0.45"/><rect x="440.0" y="40.0" width="6.67" height="10.00" fill="#5de3ff" opacity="0.60"/><rect x="446.7" y="40.0" width="6.67" height="10.00" fill="#5de3ff" opacity="0.60"/><rect x="460.0" y="40.0" width="6.67" height="10.00" fill="#5de3ff" opacity="0.60"/><rect x="466.7" y="40.0" width="6.67" height="10.00" fill="#5de3ff" opacity="0.60"/><rect x="480.0" y="40.0" width="6.67" height="10.00" fill="#1f4f86" opacity="0.50"/><rect x="600.0" y="40.0" width="6.67" height="10.00" fill="#1f4f86" opacity="0.50"/><rect x="613.3" y="40.0" width="6.67" height="10.00" fill="#1f4f86" opacity="0.50"/><rect x="626.7" y="40.0" width="6.67" height="10.00" fill="#1f4f86" opacity="0.50"/><rect x="0.0" y="50.0" width="6.67" height="10.00" fill="#1f4f86" opacity="0.50"/><rect x="6.7" y="50.0" width="6.67" height="10.00" fill="#1f4f86" opacity="0.50"/><rect x="13.3" y="50.0" width="6.67" height="10.00" fill="#3aa7ff" opacity="0.45"/><rect x="33.3" y="50.0" width="6.67" height="10.00" fill="#3aa7ff" opacity="0.45"/><rect x="46.7" y="50.0" width="6.67" height="10.00" fill="#5de3ff" opacity="0.60"/><rect x="53.3" y="50.0" width="6.67" height="10.00" fill="#3aa7ff" opacity="0.45"/><rect x="206.7" y="50.0" width="6.67" height="10.00" fill="#3aa7ff" opacity="0.45"/><rect x="213.3" y="50.0" width="6.67" height="10.00" fill="#1f4f86" opacity="0.50"/><rect x="220.0" y="50.0" width="6.67" height="10.00" fill="#5de3ff" opacity="0.60"/><rect x="226.7" y="50.0" width="6.67" height="10.00" fill="#3aa7ff" opacity="0.45"/><rect x="240.0" y="50.0" width="6.67" height="10.00" fill="#3aa7ff" opacity="0.45"/><rect x="253.3" y="50.0" width="6.67" height="10.00" fill="#8ef7e6" opacity="0.85"/><rect x="280.0" y="50.0" width="6.67" height="10.00" fill="#1f4f86" opacity="0.50"/><rect x="400.0" y="50.0" width="6.67" height="10.00" fill="#3aa7ff" opacity="0.45"/><rect x="433.3" y="50.0" width="6.67" height="10.00" fill="#3aa7ff" opacity="0.45"/><rect x="446.7" y="50.0" width="6.67" height="10.00" fill="#3aa7ff" opacity="0.45"/><rect x="453.3" y="50.0" width="6.67" height="10.00" fill="#5de3ff" opacity="0.60"/><rect x="626.7" y="50.0" width="6.67" height="10.00" fill="#1f4f86" opacity="0.50"/><rect x="0.0" y="60.0" width="6.67" height="10.00" fill="#1f4f86" opacity="0.50"/><rect x="6.7" y="60.0" width="6.67" height="10.00" fill="#1f4f86" opacity="0.50"/><rect x="13.3" y="60.0" width="6.67" height="10.00" fill="#3aa7ff" opacity="0.45"/><rect x="20.0" y="60.0" width="6.67" height="10.00" fill="#1f4f86" opacity="0.50"/><rect x="26.7" y="60.0" width="6.67" height="10.00" fill="#5de3ff" opacity="0.60"/><rect x="33.3" y="60.0" width="6.67" height="10.00" fill="#5de3ff" opacity="0.60"/><rect x="40.0" y="60.0" width="6.67" height="10.00" fill="#5de3ff" opacity="0.60"/><rect x="60.0" y="60.0" width="6.67" height="10.00" fill="#3aa7ff" opacity="0.45"/><rect x="66.7" y="60.0" width="6.67" height="10.00" fill="#1f4f86" opacity="0.50"/><rect x="80.0" y="60.0" width="6.67" height="10.00" fill="#1f4f86" opacity="0.50"/><rect x="86.7" y="60.0" width="6.67" height="10.00" fill="#1f4f86" opacity="0.50"/><rect x="226.7" y="60.0" width="6.67" height="10.00" fill="#3aa7ff" opacity="0.45"/><rect x="260.0" y="60.0" width="6.67" height="10.00" fill="#3aa7ff" opacity="0.45"/><rect x="266.7" y="60.0" width="6.67" height="10.00" fill="#1f4f86" opacity="0.50"/><rect x="273.3" y="60.0" width="6.67" height="10.00" fill="#1f4f86" opacity="0.50"/><rect x="286.7" y="60.0" width="6.67" height="10.00" fill="#1f4f86" opacity="0.50"/><rect x="406.7" y="60.0" width="6.67" height="10.00" fill="#3aa7ff" opacity="0.45"/><rect x="413.3" y="60.0" width="6.67" height="10.00" fill="#3aa7ff" opacity="0.45"/><rect x="420.0" y="60.0" width="6.67" height="10.00" fill="#1f4f86" opacity="0.50"/><rect x="426.7" y="60.0" width="6.67" height="10.00" fill="#1f4f86" opacity="0.50"/><rect x="433.3" y="60.0" width="6.67" height="10.00" fill="#1f4f86" opacity="0.50"/><rect x="453.3" y="60.0" width="6.67" height="10.00" fill="#5de3ff" opacity="0.60"/><rect x="460.0" y="60.0" width="6.67" height="10.00" fill="#3aa7ff" opacity="0.45"/><rect x="466.7" y="60.0" width="6.67" height="10.00" fill="#5de3ff" opacity="0.60"/><rect x="593.3" y="60.0" width="6.67" height="10.00" fill="#1f4f86" opacity="0.50"/><rect x="613.3" y="60.0" width="6.67" height="10.00" fill="#3aa7ff" opacity="0.45"/><rect x="620.0" y="60.0" width="6.67" height="10.00" fill="#5de3ff" opacity="0.60"/><rect x="626.7" y="60.0" width="6.67" height="10.00" fill="#1f4f86" opacity="0.50"/><rect x="633.3" y="60.0" width="6.67" height="10.00" fill="#5de3ff" opacity="0.60"/><rect x="0.0" y="70.0" width="6.67" height="10.00" fill="#3aa7ff" opacity="0.45"/><rect x="6.7" y="70.0" width="6.67" height="10.00" fill="#3aa7ff" opacity="0.45"/><rect x="40.0" y="70.0" width="6.67" height="10.00" fill="#3aa7ff" opacity="0.45"/><rect x="46.7" y="70.0" width="6.67" height="10.00" fill="#3aa7ff" opacity="0.45"/><rect x="53.3" y="70.0" width="6.67" height="10.00" fill="#5de3ff" opacity="0.60"/><rect x="66.7" y="70.0" width="6.67" height="10.00" fill="#1f4f86" opacity="0.50"/><rect x="73.3" y="70.0" width="6.67" height="10.00" fill="#3aa7ff" opacity="0.45"/><rect x="200.0" y="70.0" width="6.67" height="10.00" fill="#1f4f86" opacity="0.50"/><rect x="206.7" y="70.0" width="6.67" height="10.00" fill="#1f4f86" opacity="0.50"/><rect x="213.3" y="70.0" width="6.67" height="10.00" fill="#1f4f86" opacity="0.50"/><rect x="220.0" y="70.0" width="6.67" height="10.00" fill="#3aa7ff" opacity="0.45"/><rect x="226.7" y="70.0" width="6.67" height="10.00" fill="#1f4f86" opacity="0.50"/><rect x="233.3" y="70.0" width="6.67" height="10.00" fill="#5de3ff" opacity="0.60"/><rect x="246.7" y="70.0" width="6.67" height="10.00" fill="#1f4f86" opacity="0.50"/><rect x="260.0" y="70.0" width="6.67" height="10.00" fill="#1f4f86" opacity="0.50"/><rect x="286.7" y="70.0" width="6.67" height="10.00" fill="#1f4f86" opacity="0.50"/><rect x="393.3" y="70.0" width="6.67" height="10.00" fill="#1f4f86" opacity="0.50"/><rect x="413.3" y="70.0" width="6.67" height="10.00" fill="#1f4f86" opacity="0.50"/><rect x="420.0" y="70.0" width="6.67" height="10.00" fill="#3aa7ff" opacity="0.45"/><rect x="433.3" y="70.0" width="6.67" height="10.00" fill="#3aa7ff" opacity="0.45"/><rect x="453.3" y="70.0" width="6.67" height="10.00" fill="#3aa7ff" opacity="0.45"/><rect x="460.0" y="70.0" width="6.67" height="10.00" fill="#1f4f86" opacity="0.50"/><rect x="593.3" y="70.0" width="6.67" height="10.00" fill="#1f4f86" opacity="0.50"/><rect x="606.7" y="70.0" width="6.67" height="10.00" fill="#1f4f86" opacity="0.50"/><rect x="620.0" y="70.0" width="6.67" height="10.00" fill="#3aa7ff" opacity="0.45"/><rect x="0.0" y="80.0" width="6.67" height="10.00" fill="#1f4f86" opacity="0.50"/><rect x="13.3" y="80.0" width="6.67" height="10.00" fill="#1f4f86" opacity="0.50"/><rect x="20.0" y="80.0" width="6.67" height="10.00" fill="#5de3ff" opacity="0.60"/><rect x="193.3" y="80.0" width="6.67" height="10.00" fill="#1f4f86" opacity="0.50"/><rect x="226.7" y="80.0" width="6.67" height="10.00" fill="#1f4f86" opacity="0.50"/><rect x="233.3" y="80.0" width="6.67" height="10.00" fill="#3aa7ff" opacity="0.45"/><rect x="246.7" y="80.0" width="6.67" height="10.00" fill="#5de3ff" opacity="0.60"/><rect x="286.7" y="80.0" width="6.67" height="10.00" fill="#1f4f86" opacity="0.50"/><rect x="420.0" y="80.0" width="6.67" height="10.00" fill="#5de3ff" opacity="0.60"/><rect x="433.3" y="80.0" width="6.67" height="10.00" fill="#3aa7ff" opacity="0.45"/><rect x="440.0" y="80.0" width="6.67" height="10.00" fill="#1f4f86" opacity="0.50"/><rect x="446.7" y="80.0" width="6.67" height="10.00" fill="#5de3ff" opacity="0.60"/><rect x="453.3" y="80.0" width="6.67" height="10.00" fill="#3aa7ff" opacity="0.45"/><rect x="466.7" y="80.0" width="6.67" height="10.00" fill="#3aa7ff" opacity="0.45"/><rect x="473.3" y="80.0" width="6.67" height="10.00" fill="#1f4f86" opacity="0.50"/><rect x="480.0" y="80.0" width="6.67" height="10.00" fill="#1f4f86" opacity="0.50"/><rect x="586.7" y="80.0" width="6.67" height="10.00" fill="#1f4f86" opacity="0.50"/><rect x="600.0" y="80.0" width="6.67" height="10.00" fill="#1f4f86" opacity="0.50"/><rect x="620.0" y="80.0" width="6.67" height="10.00" fill="#1f4f86" opacity="0.50"/><rect x="626.7" y="80.0" width="6.67" height="10.00" fill="#3aa7ff" opacity="0.45"/><rect x="633.3" y="80.0" width="6.67" height="10.00" fill="#3aa7ff" opacity="0.45"/><rect x="0.0" y="90.0" width="6.67" height="10.00" fill="#1f4f86" opacity="0.50"/><rect x="6.7" y="90.0" width="6.67" height="10.00" fill="#3aa7ff" opacity="0.45"/><rect x="13.3" y="90.0" width="6.67" height="10.00" fill="#1f4f86" opacity="0.50"/><rect x="20.0" y="90.0" width="6.67" height="10.00" fill="#1f4f86" opacity="0.50"/><rect x="33.3" y="90.0" width="6.67" height="10.00" fill="#5de3ff" opacity="0.60"/><rect x="46.7" y="90.0" width="6.67" height="10.00" fill="#5de3ff" opacity="0.60"/><rect x="80.0" y="90.0" width="6.67" height="10.00" fill="#1f4f86" opacity="0.50"/><rect x="206.7" y="90.0" width="6.67" height="10.00" fill="#3aa7ff" opacity="0.45"/><rect x="226.7" y="90.0" width="6.67" height="10.00" fill="#1f4f86" opacity="0.50"/><rect x="233.3" y="90.0" width="6.67" height="10.00" fill="#3aa7ff" opacity="0.45"/><rect x="240.0" y="90.0" width="6.67" height="10.00" fill="#1f4f86" opacity="0.50"/><rect x="246.7" y="90.0" width="6.67" height="10.00" fill="#5de3ff" opacity="0.60"/><rect x="400.0" y="90.0" width="6.67" height="10.00" fill="#1f4f86" opacity="0.50"/><rect x="406.7" y="90.0" width="6.67" height="10.00" fill="#5de3ff" opacity="0.60"/><rect x="413.3" y="90.0" width="6.67" height="10.00" fill="#1f4f86" opacity="0.50"/><rect x="420.0" y="90.0" width="6.67" height="10.00" fill="#5de3ff" opacity="0.60"/><rect x="440.0" y="90.0" width="6.67" height="10.00" fill="#3aa7ff" opacity="0.45"/><rect x="460.0" y="90.0" width="6.67" height="10.00" fill="#3aa7ff" opacity="0.45"/><rect x="473.3" y="90.0" width="6.67" height="10.00" fill="#1f4f86" opacity="0.50"/><rect x="633.3" y="90.0" width="6.67" height="10.00" fill="#3aa7ff" opacity="0.45"/><rect x="0.0" y="100.0" width="6.67" height="10.00" fill="#3aa7ff" opacity="0.45"/><rect x="20.0" y="100.0" width="6.67" height="10.00" fill="#5de3ff" opacity="0.60"/><rect x="60.0" y="100.0" width="6.67" height="10.00" fill="#1f4f86" opacity="0.50"/><rect x="66.7" y="100.0" width="6.67" height="10.00" fill="#3aa7ff" opacity="0.45"/><rect x="186.7" y="100.0" width="6.67" height="10.00" fill="#1f4f86" opacity="0.50"/><rect x="206.7" y="100.0" width="6.67" height="10.00" fill="#3aa7ff" opacity="0.45"/><rect x="213.3" y="100.0" width="6.67" height="10.00" fill="#5de3ff" opacity="0.60"/><rect x="220.0" y="100.0" width="6.67" height="10.00" fill="#5de3ff" opacity="0.60"/><rect x="226.7" y="100.0" width="6.67" height="10.00" fill="#3aa7ff" opacity="0.45"/><rect x="233.3" y="100.0" width="6.67" height="10.00" fill="#1f4f86" opacity="0.50"/><rect x="246.7" y="100.0" width="6.67" height="10.00" fill="#5de3ff" opacity="0.60"/><rect x="273.3" y="100.0" width="6.67" height="10.00" fill="#1f4f86" opacity="0.50"/><rect x="380.0" y="100.0" width="6.67" height="10.00" fill="#1f4f86" opacity="0.50"/><rect x="386.7" y="100.0" width="6.67" height="10.00" fill="#1f4f86" opacity="0.50"/><rect x="393.3" y="100.0" width="6.67" height="10.00" fill="#1f4f86" opacity="0.50"/><rect x="413.3" y="100.0" width="6.67" height="10.00" fill="#5de3ff" opacity="0.60"/><rect x="420.0" y="100.0" width="6.67" height="10.00" fill="#1f4f86" opacity="0.50"/><rect x="426.7" y="100.0" width="6.67" height="10.00" fill="#5de3ff" opacity="0.60"/><rect x="433.3" y="100.0" width="6.67" height="10.00" fill="#1f4f86" opacity="0.50"/><rect x="460.0" y="100.0" width="6.67" height="10.00" fill="#1f4f86" opacity="0.50"/><rect x="480.0" y="100.0" width="6.67" height="10.00" fill="#1f4f86" opacity="0.50"/><rect x="580.0" y="100.0" width="6.67" height="10.00" fill="#1f4f86" opacity="0.50"/><rect x="586.7" y="100.0" width="6.67" height="10.00" fill="#1f4f86" opacity="0.50"/><rect x="593.3" y="100.0" width="6.67" height="10.00" fill="#1f4f86" opacity="0.50"/><rect x="600.0" y="100.0" width="6.67" height="10.00" fill="#1f4f86" opacity="0.50"/><rect x="606.7" y="100.0" width="6.67" height="10.00" fill="#3aa7ff" opacity="0.45"/><rect x="613.3" y="100.0" width="6.67" height="10.00" fill="#3aa7ff" opacity="0.45"/><rect x="620.0" y="100.0" width="6.67" height="10.00" fill="#5de3ff" opacity="0.60"/><rect x="633.3" y="100.0" width="6.67" height="10.00" fill="#1f4f86" opacity="0.50"/><rect x="0.0" y="110.0" width="6.67" height="10.00" fill="#1f4f86" opacity="0.50"/><rect x="6.7" y="110.0" width="6.67" height="10.00" fill="#3aa7ff" opacity="0.45"/><rect x="20.0" y="110.0" width="6.67" height="10.00" fill="#8ef7e6" opacity="0.85"/><rect x="33.3" y="110.0" width="6.67" height="10.00" fill="#1f4f86" opacity="0.50"/><rect x="40.0" y="110.0" width="6.67" height="10.00" fill="#1f4f86" opacity="0.50"/><rect x="46.7" y="110.0" width="6.67" height="10.00" fill="#1f4f86" opacity="0.50"/><rect x="60.0" y="110.0" width="6.67" height="10.00" fill="#3aa7ff" opacity="0.45"/><rect x="66.7" y="110.0" width="6.67" height="10.00" fill="#1f4f86" opacity="0.50"/><rect x="73.3" y="110.0" width="6.67" height="10.00" fill="#1f4f86" opacity="0.50"/><rect x="186.7" y="110.0" width="6.67" height="10.00" fill="#1f4f86" opacity="0.50"/><rect x="200.0" y="110.0" width="6.67" height="10.00" fill="#1f4f86" opacity="0.50"/><rect x="206.7" y="110.0" width="6.67" height="10.00" fill="#3aa7ff" opacity="0.45"/><rect x="213.3" y="110.0" width="6.67" height="10.00" fill="#1f4f86" opacity="0.50"/><rect x="240.0" y="110.0" width="6.67" height="10.00" fill="#5de3ff" opacity="0.60"/><rect x="260.0" y="110.0" width="6.67" height="10.00" fill="#1f4f86" opacity="0.50"/><rect x="273.3" y="110.0" width="6.67" height="10.00" fill="#3aa7ff" opacity="0.45"/><rect x="380.0" y="110.0" width="6.67" height="10.00" fill="#1f4f86" opacity="0.50"/><rect x="393.3" y="110.0" width="6.67" height="10.00" fill="#3aa7ff" opacity="0.45"/><rect x="400.0" y="110.0" width="6.67" height="10.00" fill="#3aa7ff" opacity="0.45"/><rect x="406.7" y="110.0" width="6.67" height="10.00" fill="#1f4f86" opacity="0.50"/><rect x="413.3" y="110.0" width="6.67" height="10.00" fill="#3aa7ff" opacity="0.45"/><rect x="420.0" y="110.0" width="6.67" height="10.00" fill="#1f4f86" opacity="0.50"/><rect x="426.7" y="110.0" width="6.67" height="10.00" fill="#5de3ff" opacity="0.60"/><rect x="433.3" y="110.0" width="6.67" height="10.00" fill="#3aa7ff" opacity="0.45"/><rect x="453.3" y="110.0" width="6.67" height="10.00" fill="#1f4f86" opacity="0.50"/><rect x="466.7" y="110.0" width="6.67" height="10.00" fill="#1f4f86" opacity="0.50"/><rect x="480.0" y="110.0" width="6.67" height="10.00" fill="#1f4f86" opacity="0.50"/><rect x="586.7" y="110.0" width="6.67" height="10.00" fill="#1f4f86" opacity="0.50"/><rect x="593.3" y="110.0" width="6.67" height="10.00" fill="#1f4f86" opacity="0.50"/><rect x="600.0" y="110.0" width="6.67" height="10.00" fill="#1f4f86" opacity="0.50"/><rect x="606.7" y="110.0" width="6.67" height="10.00" fill="#3aa7ff" opacity="0.45"/><rect x="613.3" y="110.0" width="6.67" height="10.00" fill="#3aa7ff" opacity="0.45"/><rect x="620.0" y="110.0" width="6.67" height="10.00" fill="#3aa7ff" opacity="0.45"/><rect x="626.7" y="110.0" width="6.67" height="10.00" fill="#3aa7ff" opacity="0.45"/><rect x="633.3" y="110.0" width="6.67" height="10.00" fill="#1f4f86" opacity="0.50"/><rect x="13.3" y="120.0" width="6.67" height="10.00" fill="#1f4f86" opacity="0.50"/><rect x="26.7" y="120.0" width="6.67" height="10.00" fill="#5de3ff" opacity="0.60"/><rect x="40.0" y="120.0" width="6.67" height="10.00" fill="#8ef7e6" opacity="0.85"/><rect x="46.7" y="120.0" width="6.67" height="10.00" fill="#5de3ff" opacity="0.60"/><rect x="53.3" y="120.0" width="6.67" height="10.00" fill="#3aa7ff" opacity="0.45"/><rect x="60.0" y="120.0" width="6.67" height="10.00" fill="#1f4f86" opacity="0.50"/><rect x="66.7" y="120.0" width="6.67" height="10.00" fill="#1f4f86" opacity="0.50"/><rect x="200.0" y="120.0" width="6.67" height="10.00" fill="#5de3ff" opacity="0.60"/><rect x="206.7" y="120.0" width="6.67" height="10.00" fill="#1f4f86" opacity="0.50"/><rect x="220.0" y="120.0" width="6.67" height="10.00" fill="#1f4f86" opacity="0.50"/><rect x="233.3" y="120.0" width="6.67" height="10.00" fill="#1f4f86" opacity="0.50"/><rect x="240.0" y="120.0" width="6.67" height="10.00" fill="#1f4f86" opacity="0.50"/><rect x="266.7" y="120.0" width="6.67" height="10.00" fill="#3aa7ff" opacity="0.45"/><rect x="273.3" y="120.0" width="6.67" height="10.00" fill="#1f4f86" opacity="0.50"/><rect x="393.3" y="120.0" width="6.67" height="10.00" fill="#1f4f86" opacity="0.50"/><rect x="400.0" y="120.0" width="6.67" height="10.00" fill="#3aa7ff" opacity="0.45"/><rect x="420.0" y="120.0" width="6.67" height="10.00" fill="#5de3ff" opacity="0.60"/><rect x="426.7" y="120.0" width="6.67" height="10.00" fill="#1f4f86" opacity="0.50"/><rect x="433.3" y="120.0" width="6.67" height="10.00" fill="#1f4f86" opacity="0.50"/><rect x="446.7" y="120.0" width="6.67" height="10.00" fill="#1f4f86" opacity="0.50"/><rect x="453.3" y="120.0" width="6.67" height="10.00" fill="#1f4f86" opacity="0.50"/><rect x="460.0" y="120.0" width="6.67" height="10.00" fill="#3aa7ff" opacity="0.45"/><rect x="466.7" y="120.0" width="6.67" height="10.00" fill="#1f4f86" opacity="0.50"/><rect x="586.7" y="120.0" width="6.67" height="10.00" fill="#1f4f86" opacity="0.50"/><rect x="593.3" y="120.0" width="6.67" height="10.00" fill="#3aa7ff" opacity="0.45"/><rect x="606.7" y="120.0" width="6.67" height="10.00" fill="#3aa7ff" opacity="0.45"/><rect x="613.3" y="120.0" width="6.67" height="10.00" fill="#3aa7ff" opacity="0.45"/><rect x="633.3" y="120.0" width="6.67" height="10.00" fill="#5de3ff" opacity="0.60"/><rect x="0.0" y="130.0" width="6.67" height="10.00" fill="#1f4f86" opacity="0.50"/><rect x="13.3" y="130.0" width="6.67" height="10.00" fill="#5de3ff" opacity="0.60"/><rect x="20.0" y="130.0" width="6.67" height="10.00" fill="#1f4f86" opacity="0.50"/><rect x="33.3" y="130.0" width="6.67" height="10.00" fill="#5de3ff" opacity="0.60"/><rect x="60.0" y="130.0" width="6.67" height="10.00" fill="#3aa7ff" opacity="0.45"/><rect x="193.3" y="130.0" width="6.67" height="10.00" fill="#1f4f86" opacity="0.50"/><rect x="213.3" y="130.0" width="6.67" height="10.00" fill="#3aa7ff" opacity="0.45"/><rect x="226.7" y="130.0" width="6.67" height="10.00" fill="#5de3ff" opacity="0.60"/><rect x="233.3" y="130.0" width="6.67" height="10.00" fill="#5de3ff" opacity="0.60"/><rect x="260.0" y="130.0" width="6.67" height="10.00" fill="#1f4f86" opacity="0.50"/><rect x="266.7" y="130.0" width="6.67" height="10.00" fill="#3aa7ff" opacity="0.45"/><rect x="400.0" y="130.0" width="6.67" height="10.00" fill="#5de3ff" opacity="0.60"/><rect x="433.3" y="130.0" width="6.67" height="10.00" fill="#1f4f86" opacity="0.50"/><rect x="440.0" y="130.0" width="6.67" height="10.00" fill="#5de3ff" opacity="0.60"/><rect x="460.0" y="130.0" width="6.67" height="10.00" fill="#1f4f86" opacity="0.50"/><rect x="466.7" y="130.0" width="6.67" height="10.00" fill="#1f4f86" opacity="0.50"/><rect x="593.3" y="130.0" width="6.67" height="10.00" fill="#1f4f86" opacity="0.50"/><rect x="606.7" y="130.0" width="6.67" height="10.00" fill="#3aa7ff" opacity="0.45"/><rect x="613.3" y="130.0" width="6.67" height="10.00" fill="#1f4f86" opacity="0.50"/><rect x="626.7" y="130.0" width="6.67" height="10.00" fill="#8ef7e6" opacity="0.85"/><rect x="633.3" y="130.0" width="6.67" height="10.00" fill="#5de3ff" opacity="0.60"/><rect x="13.3" y="140.0" width="6.67" height="10.00" fill="#3aa7ff" opacity="0.45"/><rect x="26.7" y="140.0" width="6.67" height="10.00" fill="#5de3ff" opacity="0.60"/><rect x="60.0" y="140.0" width="6.67" height="10.00" fill="#3aa7ff" opacity="0.45"/><rect x="73.3" y="140.0" width="6.67" height="10.00" fill="#1f4f86" opacity="0.50"/><rect x="206.7" y="140.0" width="6.67" height="10.00" fill="#3aa7ff" opacity="0.45"/><rect x="226.7" y="140.0" width="6.67" height="10.00" fill="#5de3ff" opacity="0.60"/><rect x="233.3" y="140.0" width="6.67" height="10.00" fill="#8ef7e6" opacity="0.85"/><rect x="246.7" y="140.0" width="6.67" height="10.00" fill="#5de3ff" opacity="0.60"/><rect x="273.3" y="140.0" width="6.67" height="10.00" fill="#1f4f86" opacity="0.50"/><rect x="393.3" y="140.0" width="6.67" height="10.00" fill="#3aa7ff" opacity="0.45"/><rect x="400.0" y="140.0" width="6.67" height="10.00" fill="#1f4f86" opacity="0.50"/><rect x="413.3" y="140.0" width="6.67" height="10.00" fill="#1f4f86" opacity="0.50"/><rect x="446.7" y="140.0" width="6.67" height="10.00" fill="#1f4f86" opacity="0.50"/><rect x="453.3" y="140.0" width="6.67" height="10.00" fill="#1f4f86" opacity="0.50"/><rect x="460.0" y="140.0" width="6.67" height="10.00" fill="#1f4f86" opacity="0.50"/><rect x="473.3" y="140.0" width="6.67" height="10.00" fill="#1f4f86" opacity="0.50"/><rect x="593.3" y="140.0" width="6.67" height="10.00" fill="#3aa7ff" opacity="0.45"/><rect x="600.0" y="140.0" width="6.67" height="10.00" fill="#1f4f86" opacity="0.50"/><rect x="606.7" y="140.0" width="6.67" height="10.00" fill="#1f4f86" opacity="0.50"/><rect x="613.3" y="140.0" width="6.67" height="10.00" fill="#3aa7ff" opacity="0.45"/><rect x="620.0" y="140.0" width="6.67" height="10.00" fill="#1f4f86" opacity="0.50"/><rect x="626.7" y="140.0" width="6.67" height="10.00" fill="#1f4f86" opacity="0.50"/><rect x="633.3" y="140.0" width="6.67" height="10.00" fill="#1f4f86" opacity="0.50"/><rect x="13.3" y="150.0" width="6.67" height="10.00" fill="#1f4f86" opacity="0.50"/><rect x="20.0" y="150.0" width="6.67" height="10.00" fill="#3aa7ff" opacity="0.45"/><rect x="40.0" y="150.0" width="6.67" height="10.00" fill="#1f4f86" opacity="0.50"/><rect x="53.3" y="150.0" width="6.67" height="10.00" fill="#1f4f86" opacity="0.50"/><rect x="60.0" y="150.0" width="6.67" height="10.00" fill="#1f4f86" opacity="0.50"/><rect x="200.0" y="150.0" width="6.67" height="10.00" fill="#1f4f86" opacity="0.50"/><rect x="206.7" y="150.0" width="6.67" height="10.00" fill="#3aa7ff" opacity="0.45"/><rect x="213.3" y="150.0" width="6.67" height="10.00" fill="#1f4f86" opacity="0.50"/><rect x="220.0" y="150.0" width="6.67" height="10.00" fill="#1f4f86" opacity="0.50"/><rect x="226.7" y="150.0" width="6.67" height="10.00" fill="#5de3ff" opacity="0.60"/><rect x="233.3" y="150.0" width="6.67" height="10.00" fill="#5de3ff" opacity="0.60"/><rect x="260.0" y="150.0" width="6.67" height="10.00" fill="#1f4f86" opacity="0.50"/><rect x="386.7" y="150.0" width="6.67" height="10.00" fill="#1f4f86" opacity="0.50"/><rect x="393.3" y="150.0" width="6.67" height="10.00" fill="#1f4f86" opacity="0.50"/><rect x="400.0" y="150.0" width="6.67" height="10.00" fill="#3aa7ff" opacity="0.45"/><rect x="406.7" y="150.0" width="6.67" height="10.00" fill="#5de3ff" opacity="0.60"/><rect x="420.0" y="150.0" width="6.67" height="10.00" fill="#5de3ff" opacity="0.60"/><rect x="426.7" y="150.0" width="6.67" height="10.00" fill="#3aa7ff" opacity="0.45"/><rect x="440.0" y="150.0" width="6.67" height="10.00" fill="#1f4f86" opacity="0.50"/><rect x="446.7" y="150.0" width="6.67" height="10.00" fill="#3aa7ff" opacity="0.45"/><rect x="460.0" y="150.0" width="6.67" height="10.00" fill="#1f4f86" opacity="0.50"/><rect x="586.7" y="150.0" width="6.67" height="10.00" fill="#3aa7ff" opacity="0.45"/><rect x="593.3" y="150.0" width="6.67" height="10.00" fill="#1f4f86" opacity="0.50"/><rect x="606.7" y="150.0" width="6.67" height="10.00" fill="#3aa7ff" opacity="0.45"/><rect x="626.7" y="150.0" width="6.67" height="10.00" fill="#1f4f86" opacity="0.50"/></g>
  <polyline points="0,372.1 4,368.4 8,357.7 12,363.0 16,355.3 20,351.7 24,352.8 28,360.5 32,366.5 36,352.8 40,352.8 44,348.8 48,357.0 52,354.7 56,364.6 60,351.2 64,362.0 68,351.3 72,360.6 76,368.4 80,361.0 84,371.0 88,356.4 92,359.4 96,370.6 100,364.7 104,361.9 108,371.6 112,374.3 116,365.9 120,375.7 124,369.8 128,374.0 132,379.0 136,366.9 140,377.9 144,378.6 148,369.8 152,373.7 156,375.3 160,367.5 164,366.8 168,377.8 172,368.3 176,374.7 180,367.8 184,359.2 188,349.6 192,341.0 196,331.9 200,323.0 204,322.0 208,310.5 212,295.3 216,288.6 220,289.4 224,296.1 228,299.4 232,320.1 236,328.4 240,339.7 244,331.5 248,348.7 252,349.9 256,354.2 260,354.8 264,367.5 268,357.4 272,368.7 276,364.6 280,367.2 284,364.6 288,359.6 292,358.1 296,375.5 300,367.3 304,362.8 308,361.3 312,378.4 316,362.4 320,365.0 324,370.6 328,364.7 332,364.0 336,366.6 340,376.8 344,370.5 348,365.4 352,380.2 356,373.0 360,375.6 364,376.8 368,360.4 372,362.8 376,374.8 380,361.6 384,373.3 388,370.2 392,363.9 396,354.5 400,366.0 404,369.2 408,353.7 412,361.0 416,365.9 420,359.3 424,358.7 428,348.5 432,348.2 436,359.8 440,364.2 444,359.3 448,356.4 452,360.8 456,362.7 460,357.8 464,356.2 468,355.6 472,360.1 476,362.9 480,370.2 484,366.8 488,373.1 492,372.6 496,372.5 500,364.3 504,369.6 508,376.8 512,375.2 516,367.0 520,380.5 524,369.7 528,371.1 532,374.1 536,379.3 540,377.6 544,366.6 548,374.8 552,378.1 556,373.2 560,372.4 564,370.1 568,368.1 572,358.5 576,357.2 580,361.8 584,370.8 588,366.2 592,352.1 596,352.3 600,359.6 604,362.3 608,359.3 612,353.7 616,358.4 620,358.4 624,361.5 628,357.1 632,362.5 636,351.2 640,352.7" fill="none" stroke="url(#trace)" stroke-width="2.2" stroke-linejoin="round" filter="url(#glow)"/>
  <polygon points="0,560 0,372.1 4,368.4 8,357.7 12,363.0 16,355.3 20,351.7 24,352.8 28,360.5 32,366.5 36,352.8 40,352.8 44,348.8 48,357.0 52,354.7 56,364.6 60,351.2 64,362.0 68,351.3 72,360.6 76,368.4 80,361.0 84,371.0 88,356.4 92,359.4 96,370.6 100,364.7 104,361.9 108,371.6 112,374.3 116,365.9 120,375.7 124,369.8 128,374.0 132,379.0 136,366.9 140,377.9 144,378.6 148,369.8 152,373.7 156,375.3 160,367.5 164,366.8 168,377.8 172,368.3 176,374.7 180,367.8 184,359.2 188,349.6 192,341.0 196,331.9 200,323.0 204,322.0 208,310.5 212,295.3 216,288.6 220,289.4 224,296.1 228,299.4 232,320.1 236,328.4 240,339.7 244,331.5 248,348.7 252,349.9 256,354.2 260,354.8 264,367.5 268,357.4 272,368.7 276,364.6 280,367.2 284,364.6 288,359.6 292,358.1 296,375.5 300,367.3 304,362.8 308,361.3 312,378.4 316,362.4 320,365.0 324,370.6 328,364.7 332,364.0 336,366.6 340,376.8 344,370.5 348,365.4 352,380.2 356,373.0 360,375.6 364,376.8 368,360.4 372,362.8 376,374.8 380,361.6 384,373.3 388,370.2 392,363.9 396,354.5 400,366.0 404,369.2 408,353.7 412,361.0 416,365.9 420,359.3 424,358.7 428,348.5 432,348.2 436,359.8 440,364.2 444,359.3 448,356.4 452,360.8 456,362.7 460,357.8 464,356.2 468,355.6 472,360.1 476,362.9 480,370.2 484,366.8 488,373.1 492,372.6 496,372.5 500,364.3 504,369.6 508,376.8 512,375.2 516,367.0 520,380.5 524,369.7 528,371.1 532,374.1 536,379.3 540,377.6 544,366.6 548,374.8 552,378.1 556,373.2 560,372.4 564,370.1 568,368.1 572,358.5 576,357.2 580,361.8 584,370.8 588,366.2 592,352.1 596,352.3 600,359.6 604,362.3 608,359.3 612,353.7 616,358.4 620,358.4 624,361.5 628,357.1 632,362.5 636,351.2 640,352.7 640,560" fill="url(#trace)" opacity="0.07"/>
  <text x="320" y="108" font-family="ui-monospace, 'SF Mono', SFMono-Regular, Menlo, Consolas, monospace" font-size="15" letter-spacing="3.6" text-anchor="middle" fill="#5f708a">THE BAND, OVER TIME</text>
  <text x="320" y="174" font-family="ui-monospace, 'SF Mono', SFMono-Regular, Menlo, Consolas, monospace" font-size="58" font-weight="700" letter-spacing="-1" text-anchor="middle" fill="url(#accent)">v26.7.1</text>
  <circle cx="320" cy="296" r="88" fill="#8ef7e6" opacity="0.09" filter="url(#softglow)"/>
  <g transform="translate(320 296) scale(0.92)" color="#5de3ff" filter="url(#glow)"><path d="M-96 28 l30 -14 l18 20 l24 -30 l22 26 l26 -12" fill="none" stroke="currentColor" stroke-width="3" stroke-linejoin="round" opacity="0.9"/><path d="M-87 6 l30 -19 l18 24 l24 -38 l22 32 l26 -15" fill="none" stroke="currentColor" stroke-width="3" stroke-linejoin="round" opacity="0.72"/><path d="M-78 -16 l30 -24 l18 28 l24 -46 l22 38 l26 -18" fill="none" stroke="currentColor" stroke-width="3" stroke-linejoin="round" opacity="0.54"/><path d="M-69 -38 l30 -29 l18 32 l24 -54 l22 44 l26 -21" fill="none" stroke="currentColor" stroke-width="3" stroke-linejoin="round" opacity="0.36"/></g>
</svg>
