<svg xmlns="http://www.w3.org/2000/svg" viewBox="0 0 640 560" width="640" height="560" role="img" aria-label="AetherSDR v26.9.1 — The map goes round">
  <defs>
    <linearGradient id="bg" x1="0" y1="0" x2="0.35" y2="1">
      <stop offset="0" stop-color="#0a121e"/>
      <stop offset="0.55" stop-color="#060b13"/>
      <stop offset="1" stop-color="#070d17"/>
    </linearGradient>
    <linearGradient id="chain" gradientUnits="userSpaceOnUse"
        x1="0" y1="0" x2="0" y2="0">
      <stop offset="0" stop-color="#3aa7ff" stop-opacity="0.30"/>
      <stop offset="0.5" stop-color="#5de3ff" stop-opacity="0.7"/>
      <stop offset="1" stop-color="#8ef7e6" stop-opacity="1"/>
    </linearGradient>
    <linearGradient id="accent" x1="0" y1="0" x2="1" y2="1">
      <stop offset="0" stop-color="#3aa7ff"/>
      <stop offset="0.45" stop-color="#5de3ff"/>
      <stop offset="1" stop-color="#8ef7e6"/>
    </linearGradient>
    <linearGradient id="trace" x1="0" y1="0" x2="1" y2="0">
      <stop offset="0" stop-color="#3aa7ff" stop-opacity="0.35"/>
      <stop offset="0.6" stop-color="#5de3ff" stop-opacity="0.9"/>
      <stop offset="1" stop-color="#8ef7e6"/>
    </linearGradient>
    <linearGradient id="fade" x1="0" y1="0" x2="0" y2="1">
      <stop offset="0" stop-color="#ffffff" stop-opacity="0.85"/>
      <stop offset="1" stop-color="#ffffff" stop-opacity="0"/>
    </linearGradient>
    <mask id="wfmask">
      <rect x="0" y="0" width="640" height="560" fill="url(#fade)"/>
    </mask>
    <filter id="glow" x="-60%" y="-60%" width="220%" height="220%">
      <feGaussianBlur stdDeviation="7" result="b"/>
      <feMerge><feMergeNode in="b"/><feMergeNode in="SourceGraphic"/></feMerge>
    </filter>
    <filter id="softglow" x="-80%" y="-80%" width="260%" height="260%">
      <feGaussianBlur stdDeviation="14"/>
    </filter>
  </defs>
  <rect width="640" height="560" fill="url(#bg)"/>
  <path d="M34 0V560M68 0V560M102 0V560M136 0V560M170 0V560M204 0V560M238 0V560M272 0V560M306 0V560M340 0V560M374 0V560M408 0V560M442 0V560M476 0V560M510 0V560M544 0V560M578 0V560M612 0V560M0 34H640M0 68H640M0 102H640M0 136H640M0 170H640M0 204H640M0 238H640M0 272H640M0 306H640M0 340H640M0 374H640M0 408H640M0 442H640M0 476H640M0 510H640M0 544H640" stroke="rgba(120,165,210,0.055)" stroke-width="1" fill="none"/>
  <g mask="url(#wfmask)" transform="translate(0 400)"><rect x="26.7" y="0.0" width="6.67" height="10.00" fill="#1f4f86" opacity="0.50"/><rect x="33.3" y="0.0" width="6.67" height="10.00" fill="#3aa7ff" opacity="0.45"/><rect x="46.7" y="0.0" width="6.67" height="10.00" fill="#3aa7ff" opacity="0.45"/><rect x="66.7" y="0.0" width="6.67" height="10.00" fill="#5de3ff" opacity="0.60"/><rect x="100.0" y="0.0" width="6.67" height="10.00" fill="#1f4f86" opacity="0.50"/><rect x="220.0" y="0.0" width="6.67" height="10.00" fill="#3aa7ff" opacity="0.45"/><rect x="246.7" y="0.0" width="6.67" height="10.00" fill="#5de3ff" opacity="0.60"/><rect x="260.0" y="0.0" width="6.67" height="10.00" fill="#8ef7e6" opacity="0.85"/><rect x="266.7" y="0.0" width="6.67" height="10.00" fill="#3aa7ff" opacity="0.45"/><rect x="286.7" y="0.0" width="6.67" height="10.00" fill="#1f4f86" opacity="0.50"/><rect x="293.3" y="0.0" width="6.67" height="10.00" fill="#1f4f86" opacity="0.50"/><rect x="413.3" y="0.0" width="6.67" height="10.00" fill="#1f4f86" opacity="0.50"/><rect x="420.0" y="0.0" width="6.67" height="10.00" fill="#3aa7ff" opacity="0.45"/><rect x="446.7" y="0.0" width="6.67" height="10.00" fill="#1f4f86" opacity="0.50"/><rect x="453.3" y="0.0" width="6.67" height="10.00" fill="#5de3ff" opacity="0.60"/><rect x="460.0" y="0.0" width="6.67" height="10.00" fill="#3aa7ff" opacity="0.45"/><rect x="466.7" y="0.0" width="6.67" height="10.00" fill="#5de3ff" opacity="0.60"/><rect x="606.7" y="0.0" width="6.67" height="10.00" fill="#1f4f86" opacity="0.50"/><rect x="620.0" y="0.0" width="6.67" height="10.00" fill="#1f4f86" opacity="0.50"/><rect x="626.7" y="0.0" width="6.67" height="10.00" fill="#5de3ff" opacity="0.60"/><rect x="633.3" y="0.0" width="6.67" height="10.00" fill="#1f4f86" opacity="0.50"/><rect x="0.0" y="10.0" width="6.67" height="10.00" fill="#1f4f86" opacity="0.50"/><rect x="20.0" y="10.0" width="6.67" height="10.00" fill="#1f4f86" opacity="0.50"/><rect x="26.7" y="10.0" width="6.67" height="10.00" fill="#1f4f86" opacity="0.50"/><rect x="33.3" y="10.0" width="6.67" height="10.00" fill="#3aa7ff" opacity="0.45"/><rect x="46.7" y="10.0" width="6.67" height="10.00" fill="#1f4f86" opacity="0.50"/><rect x="53.3" y="10.0" width="6.67" height="10.00" fill="#8ef7e6" opacity="0.85"/><rect x="80.0" y="10.0" width="6.67" height="10.00" fill="#3aa7ff" opacity="0.45"/><rect x="213.3" y="10.0" width="6.67" height="10.00" fill="#1f4f86" opacity="0.50"/><rect x="226.7" y="10.0" width="6.67" height="10.00" fill="#3aa7ff" opacity="0.45"/><rect x="240.0" y="10.0" width="6.67" height="10.00" fill="#5de3ff" opacity="0.60"/><rect x="246.7" y="10.0" width="6.67" height="10.00" fill="#5de3ff" opacity="0.60"/><rect x="253.3" y="10.0" width="6.67" height="10.00" fill="#5de3ff" opacity="0.60"/><rect x="273.3" y="10.0" width="6.67" height="10.00" fill="#5de3ff" opacity="0.60"/><rect x="293.3" y="10.0" width="6.67" height="10.00" fill="#1f4f86" opacity="0.50"/><rect x="433.3" y="10.0" width="6.67" height="10.00" fill="#1f4f86" opacity="0.50"/><rect x="446.7" y="10.0" width="6.67" height="10.00" fill="#1f4f86" opacity="0.50"/><rect x="453.3" y="10.0" width="6.67" height="10.00" fill="#8ef7e6" opacity="0.85"/><rect x="466.7" y="10.0" width="6.67" height="10.00" fill="#5de3ff" opacity="0.60"/><rect x="473.3" y="10.0" width="6.67" height="10.00" fill="#5de3ff" opacity="0.60"/><rect x="480.0" y="10.0" width="6.67" height="10.00" fill="#1f4f86" opacity="0.50"/><rect x="493.3" y="10.0" width="6.67" height="10.00" fill="#1f4f86" opacity="0.50"/><rect x="633.3" y="10.0" width="6.67" height="10.00" fill="#1f4f86" opacity="0.50"/><rect x="13.3" y="20.0" width="6.67" height="10.00" fill="#3aa7ff" opacity="0.45"/><rect x="33.3" y="20.0" width="6.67" height="10.00" fill="#3aa7ff" opacity="0.45"/><rect x="40.0" y="20.0" width="6.67" height="10.00" fill="#3aa7ff" opacity="0.45"/><rect x="46.7" y="20.0" width="6.67" height="10.00" fill="#1f4f86" opacity="0.50"/><rect x="60.0" y="20.0" width="6.67" height="10.00" fill="#8ef7e6" opacity="0.85"/><rect x="80.0" y="20.0" width="6.67" height="10.00" fill="#3aa7ff" opacity="0.45"/><rect x="86.7" y="20.0" width="6.67" height="10.00" fill="#1f4f86" opacity="0.50"/><rect x="206.7" y="20.0" width="6.67" height="10.00" fill="#1f4f86" opacity="0.50"/><rect x="213.3" y="20.0" width="6.67" height="10.00" fill="#1f4f86" opacity="0.50"/><rect x="220.0" y="20.0" width="6.67" height="10.00" fill="#1f4f86" opacity="0.50"/><rect x="226.7" y="20.0" width="6.67" height="10.00" fill="#5de3ff" opacity="0.60"/><rect x="233.3" y="20.0" width="6.67" height="10.00" fill="#3aa7ff" opacity="0.45"/><rect x="240.0" y="20.0" width="6.67" height="10.00" fill="#5de3ff" opacity="0.60"/><rect x="253.3" y="20.0" width="6.67" height="10.00" fill="#8ef7e6" opacity="0.85"/><rect x="260.0" y="20.0" width="6.67" height="10.00" fill="#3aa7ff" opacity="0.45"/><rect x="273.3" y="20.0" width="6.67" height="10.00" fill="#3aa7ff" opacity="0.45"/><rect x="393.3" y="20.0" width="6.67" height="10.00" fill="#1f4f86" opacity="0.50"/><rect x="400.0" y="20.0" width="6.67" height="10.00" fill="#1f4f86" opacity="0.50"/><rect x="433.3" y="20.0" width="6.67" height="10.00" fill="#3aa7ff" opacity="0.45"/><rect x="460.0" y="20.0" width="6.67" height="10.00" fill="#1f4f86" opacity="0.50"/><rect x="473.3" y="20.0" width="6.67" height="10.00" fill="#1f4f86" opacity="0.50"/><rect x="486.7" y="20.0" width="6.67" height="10.00" fill="#1f4f86" opacity="0.50"/><rect x="620.0" y="20.0" width="6.67" height="10.00" fill="#1f4f86" opacity="0.50"/><rect x="633.3" y="20.0" width="6.67" height="10.00" fill="#3aa7ff" opacity="0.45"/><rect x="6.7" y="30.0" width="6.67" height="10.00" fill="#3aa7ff" opacity="0.45"/><rect x="13.3" y="30.0" width="6.67" height="10.00" fill="#3aa7ff" opacity="0.45"/><rect x="20.0" y="30.0" width="6.67" height="10.00" fill="#1f4f86" opacity="0.50"/><rect x="33.3" y="30.0" width="6.67" height="10.00" fill="#3aa7ff" opacity="0.45"/><rect x="40.0" y="30.0" width="6.67" height="10.00" fill="#3aa7ff" opacity="0.45"/><rect x="60.0" y="30.0" width="6.67" height="10.00" fill="#5de3ff" opacity="0.60"/><rect x="73.3" y="30.0" width="6.67" height="10.00" fill="#3aa7ff" opacity="0.45"/><rect x="93.3" y="30.0" width="6.67" height="10.00" fill="#1f4f86" opacity="0.50"/><rect x="220.0" y="30.0" width="6.67" height="10.00" fill="#1f4f86" opacity="0.50"/><rect x="226.7" y="30.0" width="6.67" height="10.00" fill="#1f4f86" opacity="0.50"/><rect x="233.3" y="30.0" width="6.67" height="10.00" fill="#1f4f86" opacity="0.50"/><rect x="246.7" y="30.0" width="6.67" height="10.00" fill="#5de3ff" opacity="0.60"/><rect x="253.3" y="30.0" width="6.67" height="10.00" fill="#3aa7ff" opacity="0.45"/><rect x="266.7" y="30.0" width="6.67" height="10.00" fill="#1f4f86" opacity="0.50"/><rect x="273.3" y="30.0" width="6.67" height="10.00" fill="#1f4f86" opacity="0.50"/><rect x="280.0" y="30.0" width="6.67" height="10.00" fill="#1f4f86" opacity="0.50"/><rect x="286.7" y="30.0" width="6.67" height="10.00" fill="#1f4f86" opacity="0.50"/><rect x="293.3" y="30.0" width="6.67" height="10.00" fill="#1f4f86" opacity="0.50"/><rect x="406.7" y="30.0" width="6.67" height="10.00" fill="#1f4f86" opacity="0.50"/><rect x="420.0" y="30.0" width="6.67" height="10.00" fill="#1f4f86" opacity="0.50"/><rect x="426.7" y="30.0" width="6.67" height="10.00" fill="#1f4f86" opacity="0.50"/><rect x="433.3" y="30.0" width="6.67" height="10.00" fill="#3aa7ff" opacity="0.45"/><rect x="440.0" y="30.0" width="6.67" height="10.00" fill="#3aa7ff" opacity="0.45"/><rect x="446.7" y="30.0" width="6.67" height="10.00" fill="#1f4f86" opacity="0.50"/><rect x="480.0" y="30.0" width="6.67" height="10.00" fill="#1f4f86" opacity="0.50"/><rect x="593.3" y="30.0" width="6.67" height="10.00" fill="#1f4f86" opacity="0.50"/><rect x="613.3" y="30.0" width="6.67" height="10.00" fill="#1f4f86" opacity="0.50"/><rect x="13.3" y="40.0" width="6.67" height="10.00" fill="#3aa7ff" opacity="0.45"/><rect x="20.0" y="40.0" width="6.67" height="10.00" fill="#1f4f86" opacity="0.50"/><rect x="26.7" y="40.0" width="6.67" height="10.00" fill="#1f4f86" opacity="0.50"/><rect x="33.3" y="40.0" width="6.67" height="10.00" fill="#8ef7e6" opacity="0.85"/><rect x="40.0" y="40.0" width="6.67" height="10.00" fill="#5de3ff" opacity="0.60"/><rect x="46.7" y="40.0" width="6.67" height="10.00" fill="#5de3ff" opacity="0.60"/><rect x="60.0" y="40.0" width="6.67" height="10.00" fill="#3aa7ff" opacity="0.45"/><rect x="80.0" y="40.0" width="6.67" height="10.00" fill="#3aa7ff" opacity="0.45"/><rect x="193.3" y="40.0" width="6.67" height="10.00" fill="#1f4f86" opacity="0.50"/><rect x="213.3" y="40.0" width="6.67" height="10.00" fill="#3aa7ff" opacity="0.45"/><rect x="240.0" y="40.0" width="6.67" height="10.00" fill="#3aa7ff" opacity="0.45"/><rect x="253.3" y="40.0" width="6.67" height="10.00" fill="#3aa7ff" opacity="0.45"/><rect x="266.7" y="40.0" width="6.67" height="10.00" fill="#5de3ff" opacity="0.60"/><rect x="280.0" y="40.0" width="6.67" height="10.00" fill="#1f4f86" opacity="0.50"/><rect x="413.3" y="40.0" width="6.67" height="10.00" fill="#1f4f86" opacity="0.50"/><rect x="446.7" y="40.0" width="6.67" height="10.00" fill="#5de3ff" opacity="0.60"/><rect x="466.7" y="40.0" width="6.67" height="10.00" fill="#5de3ff" opacity="0.60"/><rect x="473.3" y="40.0" width="6.67" height="10.00" fill="#3aa7ff" opacity="0.45"/><rect x="486.7" y="40.0" width="6.67" height="10.00" fill="#1f4f86" opacity="0.50"/><rect x="593.3" y="40.0" width="6.67" height="10.00" fill="#1f4f86" opacity="0.50"/><rect x="606.7" y="40.0" width="6.67" height="10.00" fill="#3aa7ff" opacity="0.45"/><rect x="613.3" y="40.0" width="6.67" height="10.00" fill="#3aa7ff" opacity="0.45"/><rect x="620.0" y="40.0" width="6.67" height="10.00" fill="#5de3ff" opacity="0.60"/><rect x="626.7" y="40.0" width="6.67" height="10.00" fill="#1f4f86" opacity="0.50"/><rect x="0.0" y="50.0" width="6.67" height="10.00" fill="#1f4f86" opacity="0.50"/><rect x="20.0" y="50.0" width="6.67" height="10.00" fill="#5de3ff" opacity="0.60"/><rect x="33.3" y="50.0" width="6.67" height="10.00" fill="#1f4f86" opacity="0.50"/><rect x="40.0" y="50.0" width="6.67" height="10.00" fill="#1f4f86" opacity="0.50"/><rect x="60.0" y="50.0" width="6.67" height="10.00" fill="#1f4f86" opacity="0.50"/><rect x="66.7" y="50.0" width="6.67" height="10.00" fill="#3aa7ff" opacity="0.45"/><rect x="73.3" y="50.0" width="6.67" height="10.00" fill="#1f4f86" opacity="0.50"/><rect x="80.0" y="50.0" width="6.67" height="10.00" fill="#3aa7ff" opacity="0.45"/><rect x="93.3" y="50.0" width="6.67" height="10.00" fill="#1f4f86" opacity="0.50"/><rect x="206.7" y="50.0" width="6.67" height="10.00" fill="#1f4f86" opacity="0.50"/><rect x="213.3" y="50.0" width="6.67" height="10.00" fill="#3aa7ff" opacity="0.45"/><rect x="220.0" y="50.0" width="6.67" height="10.00" fill="#1f4f86" opacity="0.50"/><rect x="226.7" y="50.0" width="6.67" height="10.00" fill="#1f4f86" opacity="0.50"/><rect x="246.7" y="50.0" width="6.67" height="10.00" fill="#3aa7ff" opacity="0.45"/><rect x="266.7" y="50.0" width="6.67" height="10.00" fill="#5de3ff" opacity="0.60"/><rect x="280.0" y="50.0" width="6.67" height="10.00" fill="#3aa7ff" opacity="0.45"/><rect x="406.7" y="50.0" width="6.67" height="10.00" fill="#1f4f86" opacity="0.50"/><rect x="413.3" y="50.0" width="6.67" height="10.00" fill="#3aa7ff" opacity="0.45"/><rect x="440.0" y="50.0" width="6.67" height="10.00" fill="#3aa7ff" opacity="0.45"/><rect x="446.7" y="50.0" width="6.67" height="10.00" fill="#1f4f86" opacity="0.50"/><rect x="466.7" y="50.0" width="6.67" height="10.00" fill="#1f4f86" opacity="0.50"/><rect x="486.7" y="50.0" width="6.67" height="10.00" fill="#1f4f86" opacity="0.50"/><rect x="606.7" y="50.0" width="6.67" height="10.00" fill="#1f4f86" opacity="0.50"/><rect x="620.0" y="50.0" width="6.67" height="10.00" fill="#1f4f86" opacity="0.50"/><rect x="633.3" y="50.0" width="6.67" height="10.00" fill="#3aa7ff" opacity="0.45"/><rect x="0.0" y="60.0" width="6.67" height="10.00" fill="#1f4f86" opacity="0.50"/><rect x="26.7" y="60.0" width="6.67" height="10.00" fill="#3aa7ff" opacity="0.45"/><rect x="33.3" y="60.0" width="6.67" height="10.00" fill="#1f4f86" opacity="0.50"/><rect x="40.0" y="60.0" width="6.67" height="10.00" fill="#1f4f86" opacity="0.50"/><rect x="46.7" y="60.0" width="6.67" height="10.00" fill="#3aa7ff" opacity="0.45"/><rect x="53.3" y="60.0" width="6.67" height="10.00" fill="#1f4f86" opacity="0.50"/><rect x="60.0" y="60.0" width="6.67" height="10.00" fill="#3aa7ff" opacity="0.45"/><rect x="86.7" y="60.0" width="6.67" height="10.00" fill="#1f4f86" opacity="0.50"/><rect x="220.0" y="60.0" width="6.67" height="10.00" fill="#1f4f86" opacity="0.50"/><rect x="226.7" y="60.0" width="6.67" height="10.00" fill="#3aa7ff" opacity="0.45"/><rect x="246.7" y="60.0" width="6.67" height="10.00" fill="#5de3ff" opacity="0.60"/><rect x="253.3" y="60.0" width="6.67" height="10.00" fill="#1f4f86" opacity="0.50"/><rect x="260.0" y="60.0" width="6.67" height="10.00" fill="#1f4f86" opacity="0.50"/><rect x="266.7" y="60.0" width="6.67" height="10.00" fill="#3aa7ff" opacity="0.45"/><rect x="280.0" y="60.0" width="6.67" height="10.00" fill="#1f4f86" opacity="0.50"/><rect x="286.7" y="60.0" width="6.67" height="10.00" fill="#1f4f86" opacity="0.50"/><rect x="406.7" y="60.0" width="6.67" height="10.00" fill="#1f4f86" opacity="0.50"/><rect x="413.3" y="60.0" width="6.67" height="10.00" fill="#3aa7ff" opacity="0.45"/><rect x="426.7" y="60.0" width="6.67" height="10.00" fill="#3aa7ff" opacity="0.45"/><rect x="433.3" y="60.0" width="6.67" height="10.00" fill="#8ef7e6" opacity="0.85"/><rect x="446.7" y="60.0" width="6.67" height="10.00" fill="#1f4f86" opacity="0.50"/><rect x="453.3" y="60.0" width="6.67" height="10.00" fill="#1f4f86" opacity="0.50"/><rect x="466.7" y="60.0" width="6.67" height="10.00" fill="#3aa7ff" opacity="0.45"/><rect x="473.3" y="60.0" width="6.67" height="10.00" fill="#3aa7ff" opacity="0.45"/><rect x="486.7" y="60.0" width="6.67" height="10.00" fill="#1f4f86" opacity="0.50"/><rect x="606.7" y="60.0" width="6.67" height="10.00" fill="#1f4f86" opacity="0.50"/><rect x="626.7" y="60.0" width="6.67" height="10.00" fill="#5de3ff" opacity="0.60"/><rect x="0.0" y="70.0" width="6.67" height="10.00" fill="#3aa7ff" opacity="0.45"/><rect x="13.3" y="70.0" width="6.67" height="10.00" fill="#1f4f86" opacity="0.50"/><rect x="20.0" y="70.0" width="6.67" height="10.00" fill="#3aa7ff" opacity="0.45"/><rect x="26.7" y="70.0" width="6.67" height="10.00" fill="#1f4f86" opacity="0.50"/><rect x="33.3" y="70.0" width="6.67" height="10.00" fill="#3aa7ff" opacity="0.45"/><rect x="40.0" y="70.0" width="6.67" height="10.00" fill="#3aa7ff" opacity="0.45"/><rect x="46.7" y="70.0" width="6.67" height="10.00" fill="#3aa7ff" opacity="0.45"/><rect x="60.0" y="70.0" width="6.67" height="10.00" fill="#5de3ff" opacity="0.60"/><rect x="66.7" y="70.0" width="6.67" height="10.00" fill="#1f4f86" opacity="0.50"/><rect x="73.3" y="70.0" width="6.67" height="10.00" fill="#1f4f86" opacity="0.50"/><rect x="200.0" y="70.0" width="6.67" height="10.00" fill="#1f4f86" opacity="0.50"/><rect x="213.3" y="70.0" width="6.67" height="10.00" fill="#1f4f86" opacity="0.50"/><rect x="220.0" y="70.0" width="6.67" height="10.00" fill="#1f4f86" opacity="0.50"/><rect x="233.3" y="70.0" width="6.67" height="10.00" fill="#8ef7e6" opacity="0.85"/><rect x="246.7" y="70.0" width="6.67" height="10.00" fill="#5de3ff" opacity="0.60"/><rect x="253.3" y="70.0" width="6.67" height="10.00" fill="#8ef7e6" opacity="0.85"/><rect x="273.3" y="70.0" width="6.67" height="10.00" fill="#1f4f86" opacity="0.50"/><rect x="280.0" y="70.0" width="6.67" height="10.00" fill="#1f4f86" opacity="0.50"/><rect x="286.7" y="70.0" width="6.67" height="10.00" fill="#1f4f86" opacity="0.50"/><rect x="406.7" y="70.0" width="6.67" height="10.00" fill="#3aa7ff" opacity="0.45"/><rect x="413.3" y="70.0" width="6.67" height="10.00" fill="#1f4f86" opacity="0.50"/><rect x="426.7" y="70.0" width="6.67" height="10.00" fill="#1f4f86" opacity="0.50"/><rect x="440.0" y="70.0" width="6.67" height="10.00" fill="#1f4f86" opacity="0.50"/><rect x="446.7" y="70.0" width="6.67" height="10.00" fill="#1f4f86" opacity="0.50"/><rect x="453.3" y="70.0" width="6.67" height="10.00" fill="#5de3ff" opacity="0.60"/><rect x="460.0" y="70.0" width="6.67" height="10.00" fill="#3aa7ff" opacity="0.45"/><rect x="466.7" y="70.0" width="6.67" height="10.00" fill="#3aa7ff" opacity="0.45"/><rect x="473.3" y="70.0" width="6.67" height="10.00" fill="#1f4f86" opacity="0.50"/><rect x="593.3" y="70.0" width="6.67" height="10.00" fill="#1f4f86" opacity="0.50"/><rect x="606.7" y="70.0" width="6.67" height="10.00" fill="#1f4f86" opacity="0.50"/><rect x="613.3" y="70.0" width="6.67" height="10.00" fill="#1f4f86" opacity="0.50"/><rect x="620.0" y="70.0" width="6.67" height="10.00" fill="#5de3ff" opacity="0.60"/><rect x="626.7" y="70.0" width="6.67" height="10.00" fill="#3aa7ff" opacity="0.45"/><rect x="0.0" y="80.0" width="6.67" height="10.00" fill="#3aa7ff" opacity="0.45"/><rect x="26.7" y="80.0" width="6.67" height="10.00" fill="#1f4f86" opacity="0.50"/><rect x="33.3" y="80.0" width="6.67" height="10.00" fill="#3aa7ff" opacity="0.45"/><rect x="53.3" y="80.0" width="6.67" height="10.00" fill="#1f4f86" opacity="0.50"/><rect x="66.7" y="80.0" width="6.67" height="10.00" fill="#3aa7ff" opacity="0.45"/><rect x="193.3" y="80.0" width="6.67" height="10.00" fill="#1f4f86" opacity="0.50"/><rect x="200.0" y="80.0" width="6.67" height="10.00" fill="#1f4f86" opacity="0.50"/><rect x="226.7" y="80.0" width="6.67" height="10.00" fill="#3aa7ff" opacity="0.45"/><rect x="233.3" y="80.0" width="6.67" height="10.00" fill="#5de3ff" opacity="0.60"/><rect x="240.0" y="80.0" width="6.67" height="10.00" fill="#5de3ff" opacity="0.60"/><rect x="246.7" y="80.0" width="6.67" height="10.00" fill="#3aa7ff" opacity="0.45"/><rect x="266.7" y="80.0" width="6.67" height="10.00" fill="#3aa7ff" opacity="0.45"/><rect x="286.7" y="80.0" width="6.67" height="10.00" fill="#1f4f86" opacity="0.50"/><rect x="406.7" y="80.0" width="6.67" height="10.00" fill="#1f4f86" opacity="0.50"/><rect x="413.3" y="80.0" width="6.67" height="10.00" fill="#1f4f86" opacity="0.50"/><rect x="420.0" y="80.0" width="6.67" height="10.00" fill="#5de3ff" opacity="0.60"/><rect x="433.3" y="80.0" width="6.67" height="10.00" fill="#3aa7ff" opacity="0.45"/><rect x="453.3" y="80.0" width="6.67" height="10.00" fill="#5de3ff" opacity="0.60"/><rect x="460.0" y="80.0" width="6.67" height="10.00" fill="#5de3ff" opacity="0.60"/><rect x="473.3" y="80.0" width="6.67" height="10.00" fill="#3aa7ff" opacity="0.45"/><rect x="600.0" y="80.0" width="6.67" height="10.00" fill="#1f4f86" opacity="0.50"/><rect x="606.7" y="80.0" width="6.67" height="10.00" fill="#1f4f86" opacity="0.50"/><rect x="626.7" y="80.0" width="6.67" height="10.00" fill="#5de3ff" opacity="0.60"/><rect x="633.3" y="80.0" width="6.67" height="10.00" fill="#1f4f86" opacity="0.50"/><rect x="0.0" y="90.0" width="6.67" height="10.00" fill="#1f4f86" opacity="0.50"/><rect x="6.7" y="90.0" width="6.67" height="10.00" fill="#3aa7ff" opacity="0.45"/><rect x="13.3" y="90.0" width="6.67" height="10.00" fill="#5de3ff" opacity="0.60"/><rect x="26.7" y="90.0" width="6.67" height="10.00" fill="#3aa7ff" opacity="0.45"/><rect x="40.0" y="90.0" width="6.67" height="10.00" fill="#3aa7ff" opacity="0.45"/><rect x="46.7" y="90.0" width="6.67" height="10.00" fill="#1f4f86" opacity="0.50"/><rect x="60.0" y="90.0" width="6.67" height="10.00" fill="#5de3ff" opacity="0.60"/><rect x="193.3" y="90.0" width="6.67" height="10.00" fill="#1f4f86" opacity="0.50"/><rect x="213.3" y="90.0" width="6.67" height="10.00" fill="#3aa7ff" opacity="0.45"/><rect x="220.0" y="90.0" width="6.67" height="10.00" fill="#1f4f86" opacity="0.50"/><rect x="233.3" y="90.0" width="6.67" height="10.00" fill="#1f4f86" opacity="0.50"/><rect x="253.3" y="90.0" width="6.67" height="10.00" fill="#3aa7ff" opacity="0.45"/><rect x="260.0" y="90.0" width="6.67" height="10.00" fill="#1f4f86" opacity="0.50"/><rect x="393.3" y="90.0" width="6.67" height="10.00" fill="#1f4f86" opacity="0.50"/><rect x="413.3" y="90.0" width="6.67" height="10.00" fill="#3aa7ff" opacity="0.45"/><rect x="446.7" y="90.0" width="6.67" height="10.00" fill="#5de3ff" opacity="0.60"/><rect x="453.3" y="90.0" width="6.67" height="10.00" fill="#1f4f86" opacity="0.50"/><rect x="466.7" y="90.0" width="6.67" height="10.00" fill="#1f4f86" opacity="0.50"/><rect x="480.0" y="90.0" width="6.67" height="10.00" fill="#1f4f86" opacity="0.50"/><rect x="593.3" y="90.0" width="6.67" height="10.00" fill="#3aa7ff" opacity="0.45"/><rect x="626.7" y="90.0" width="6.67" height="10.00" fill="#3aa7ff" opacity="0.45"/><rect x="633.3" y="90.0" width="6.67" height="10.00" fill="#1f4f86" opacity="0.50"/><rect x="6.7" y="100.0" width="6.67" height="10.00" fill="#3aa7ff" opacity="0.45"/><rect x="26.7" y="100.0" width="6.67" height="10.00" fill="#3aa7ff" opacity="0.45"/><rect x="33.3" y="100.0" width="6.67" height="10.00" fill="#1f4f86" opacity="0.50"/><rect x="60.0" y="100.0" width="6.67" height="10.00" fill="#1f4f86" opacity="0.50"/><rect x="73.3" y="100.0" width="6.67" height="10.00" fill="#1f4f86" opacity="0.50"/><rect x="193.3" y="100.0" width="6.67" height="10.00" fill="#1f4f86" opacity="0.50"/><rect x="200.0" y="100.0" width="6.67" height="10.00" fill="#1f4f86" opacity="0.50"/><rect x="206.7" y="100.0" width="6.67" height="10.00" fill="#3aa7ff" opacity="0.45"/><rect x="213.3" y="100.0" width="6.67" height="10.00" fill="#1f4f86" opacity="0.50"/><rect x="226.7" y="100.0" width="6.67" height="10.00" fill="#1f4f86" opacity="0.50"/><rect x="233.3" y="100.0" width="6.67" height="10.00" fill="#5de3ff" opacity="0.60"/><rect x="240.0" y="100.0" width="6.67" height="10.00" fill="#3aa7ff" opacity="0.45"/><rect x="246.7" y="100.0" width="6.67" height="10.00" fill="#5de3ff" opacity="0.60"/><rect x="260.0" y="100.0" width="6.67" height="10.00" fill="#3aa7ff" opacity="0.45"/><rect x="266.7" y="100.0" width="6.67" height="10.00" fill="#1f4f86" opacity="0.50"/><rect x="280.0" y="100.0" width="6.67" height="10.00" fill="#1f4f86" opacity="0.50"/><rect x="393.3" y="100.0" width="6.67" height="10.00" fill="#3aa7ff" opacity="0.45"/><rect x="420.0" y="100.0" width="6.67" height="10.00" fill="#5de3ff" opacity="0.60"/><rect x="426.7" y="100.0" width="6.67" height="10.00" fill="#3aa7ff" opacity="0.45"/><rect x="433.3" y="100.0" width="6.67" height="10.00" fill="#3aa7ff" opacity="0.45"/><rect x="440.0" y="100.0" width="6.67" height="10.00" fill="#8ef7e6" opacity="0.85"/><rect x="446.7" y="100.0" width="6.67" height="10.00" fill="#1f4f86" opacity="0.50"/><rect x="453.3" y="100.0" width="6.67" height="10.00" fill="#5de3ff" opacity="0.60"/><rect x="473.3" y="100.0" width="6.67" height="10.00" fill="#1f4f86" opacity="0.50"/><rect x="613.3" y="100.0" width="6.67" height="10.00" fill="#1f4f86" opacity="0.50"/><rect x="620.0" y="100.0" width="6.67" height="10.00" fill="#3aa7ff" opacity="0.45"/><rect x="626.7" y="100.0" width="6.67" height="10.00" fill="#5de3ff" opacity="0.60"/><rect x="0.0" y="110.0" width="6.67" height="10.00" fill="#1f4f86" opacity="0.50"/><rect x="13.3" y="110.0" width="6.67" height="10.00" fill="#1f4f86" opacity="0.50"/><rect x="26.7" y="110.0" width="6.67" height="10.00" fill="#8ef7e6" opacity="0.85"/><rect x="33.3" y="110.0" width="6.67" height="10.00" fill="#3aa7ff" opacity="0.45"/><rect x="40.0" y="110.0" width="6.67" height="10.00" fill="#1f4f86" opacity="0.50"/><rect x="46.7" y="110.0" width="6.67" height="10.00" fill="#1f4f86" opacity="0.50"/><rect x="73.3" y="110.0" width="6.67" height="10.00" fill="#3aa7ff" opacity="0.45"/><rect x="200.0" y="110.0" width="6.67" height="10.00" fill="#3aa7ff" opacity="0.45"/><rect x="213.3" y="110.0" width="6.67" height="10.00" fill="#1f4f86" opacity="0.50"/><rect x="226.7" y="110.0" width="6.67" height="10.00" fill="#5de3ff" opacity="0.60"/><rect x="233.3" y="110.0" width="6.67" height="10.00" fill="#8ef7e6" opacity="0.85"/><rect x="266.7" y="110.0" width="6.67" height="10.00" fill="#1f4f86" opacity="0.50"/><rect x="393.3" y="110.0" width="6.67" height="10.00" fill="#3aa7ff" opacity="0.45"/><rect x="400.0" y="110.0" width="6.67" height="10.00" fill="#1f4f86" opacity="0.50"/><rect x="406.7" y="110.0" width="6.67" height="10.00" fill="#1f4f86" opacity="0.50"/><rect x="413.3" y="110.0" width="6.67" height="10.00" fill="#5de3ff" opacity="0.60"/><rect x="433.3" y="110.0" width="6.67" height="10.00" fill="#5de3ff" opacity="0.60"/><rect x="440.0" y="110.0" width="6.67" height="10.00" fill="#5de3ff" opacity="0.60"/><rect x="446.7" y="110.0" width="6.67" height="10.00" fill="#8ef7e6" opacity="0.85"/><rect x="460.0" y="110.0" width="6.67" height="10.00" fill="#3aa7ff" opacity="0.45"/><rect x="466.7" y="110.0" width="6.67" height="10.00" fill="#1f4f86" opacity="0.50"/><rect x="593.3" y="110.0" width="6.67" height="10.00" fill="#1f4f86" opacity="0.50"/><rect x="620.0" y="110.0" width="6.67" height="10.00" fill="#5de3ff" opacity="0.60"/><rect x="626.7" y="110.0" width="6.67" height="10.00" fill="#1f4f86" opacity="0.50"/><rect x="6.7" y="120.0" width="6.67" height="10.00" fill="#5de3ff" opacity="0.60"/><rect x="20.0" y="120.0" width="6.67" height="10.00" fill="#5de3ff" opacity="0.60"/><rect x="46.7" y="120.0" width="6.67" height="10.00" fill="#3aa7ff" opacity="0.45"/><rect x="60.0" y="120.0" width="6.67" height="10.00" fill="#3aa7ff" opacity="0.45"/><rect x="200.0" y="120.0" width="6.67" height="10.00" fill="#1f4f86" opacity="0.50"/><rect x="206.7" y="120.0" width="6.67" height="10.00" fill="#1f4f86" opacity="0.50"/><rect x="220.0" y="120.0" width="6.67" height="10.00" fill="#3aa7ff" opacity="0.45"/><rect x="226.7" y="120.0" width="6.67" height="10.00" fill="#3aa7ff" opacity="0.45"/><rect x="233.3" y="120.0" width="6.67" height="10.00" fill="#3aa7ff" opacity="0.45"/><rect x="240.0" y="120.0" width="6.67" height="10.00" fill="#8ef7e6" opacity="0.85"/><rect x="246.7" y="120.0" width="6.67" height="10.00" fill="#3aa7ff" opacity="0.45"/><rect x="253.3" y="120.0" width="6.67" height="10.00" fill="#1f4f86" opacity="0.50"/><rect x="260.0" y="120.0" width="6.67" height="10.00" fill="#3aa7ff" opacity="0.45"/><rect x="386.7" y="120.0" width="6.67" height="10.00" fill="#1f4f86" opacity="0.50"/><rect x="393.3" y="120.0" width="6.67" height="10.00" fill="#1f4f86" opacity="0.50"/><rect x="426.7" y="120.0" width="6.67" height="10.00" fill="#3aa7ff" opacity="0.45"/><rect x="453.3" y="120.0" width="6.67" height="10.00" fill="#3aa7ff" opacity="0.45"/><rect x="460.0" y="120.0" width="6.67" height="10.00" fill="#3aa7ff" opacity="0.45"/><rect x="466.7" y="120.0" width="6.67" height="10.00" fill="#3aa7ff" opacity="0.45"/><rect x="593.3" y="120.0" width="6.67" height="10.00" fill="#1f4f86" opacity="0.50"/><rect x="600.0" y="120.0" width="6.67" height="10.00" fill="#3aa7ff" opacity="0.45"/><rect x="620.0" y="120.0" width="6.67" height="10.00" fill="#3aa7ff" opacity="0.45"/><rect x="626.7" y="120.0" width="6.67" height="10.00" fill="#5de3ff" opacity="0.60"/><rect x="13.3" y="130.0" width="6.67" height="10.00" fill="#3aa7ff" opacity="0.45"/><rect x="20.0" y="130.0" width="6.67" height="10.00" fill="#3aa7ff" opacity="0.45"/><rect x="26.7" y="130.0" width="6.67" height="10.00" fill="#1f4f86" opacity="0.50"/><rect x="46.7" y="130.0" width="6.67" height="10.00" fill="#3aa7ff" opacity="0.45"/><rect x="53.3" y="130.0" width="6.67" height="10.00" fill="#1f4f86" opacity="0.50"/><rect x="60.0" y="130.0" width="6.67" height="10.00" fill="#3aa7ff" opacity="0.45"/><rect x="193.3" y="130.0" width="6.67" height="10.00" fill="#3aa7ff" opacity="0.45"/><rect x="200.0" y="130.0" width="6.67" height="10.00" fill="#1f4f86" opacity="0.50"/><rect x="213.3" y="130.0" width="6.67" height="10.00" fill="#3aa7ff" opacity="0.45"/><rect x="226.7" y="130.0" width="6.67" height="10.00" fill="#1f4f86" opacity="0.50"/><rect x="406.7" y="130.0" width="6.67" height="10.00" fill="#3aa7ff" opacity="0.45"/><rect x="420.0" y="130.0" width="6.67" height="10.00" fill="#1f4f86" opacity="0.50"/><rect x="433.3" y="130.0" width="6.67" height="10.00" fill="#1f4f86" opacity="0.50"/><rect x="466.7" y="130.0" width="6.67" height="10.00" fill="#1f4f86" opacity="0.50"/><rect x="600.0" y="130.0" width="6.67" height="10.00" fill="#1f4f86" opacity="0.50"/><rect x="613.3" y="130.0" width="6.67" height="10.00" fill="#5de3ff" opacity="0.60"/><rect x="626.7" y="130.0" width="6.67" height="10.00" fill="#5de3ff" opacity="0.60"/><rect x="6.7" y="140.0" width="6.67" height="10.00" fill="#3aa7ff" opacity="0.45"/><rect x="46.7" y="140.0" width="6.67" height="10.00" fill="#3aa7ff" opacity="0.45"/><rect x="53.3" y="140.0" width="6.67" height="10.00" fill="#1f4f86" opacity="0.50"/><rect x="60.0" y="140.0" width="6.67" height="10.00" fill="#1f4f86" opacity="0.50"/><rect x="66.7" y="140.0" width="6.67" height="10.00" fill="#1f4f86" opacity="0.50"/><rect x="186.7" y="140.0" width="6.67" height="10.00" fill="#1f4f86" opacity="0.50"/><rect x="200.0" y="140.0" width="6.67" height="10.00" fill="#3aa7ff" opacity="0.45"/><rect x="206.7" y="140.0" width="6.67" height="10.00" fill="#5de3ff" opacity="0.60"/><rect x="213.3" y="140.0" width="6.67" height="10.00" fill="#5de3ff" opacity="0.60"/><rect x="233.3" y="140.0" width="6.67" height="10.00" fill="#1f4f86" opacity="0.50"/><rect x="266.7" y="140.0" width="6.67" height="10.00" fill="#1f4f86" opacity="0.50"/><rect x="386.7" y="140.0" width="6.67" height="10.00" fill="#3aa7ff" opacity="0.45"/><rect x="406.7" y="140.0" width="6.67" height="10.00" fill="#3aa7ff" opacity="0.45"/><rect x="413.3" y="140.0" width="6.67" height="10.00" fill="#8ef7e6" opacity="0.85"/><rect x="420.0" y="140.0" width="6.67" height="10.00" fill="#5de3ff" opacity="0.60"/><rect x="426.7" y="140.0" width="6.67" height="10.00" fill="#1f4f86" opacity="0.50"/><rect x="433.3" y="140.0" width="6.67" height="10.00" fill="#5de3ff" opacity="0.60"/><rect x="440.0" y="140.0" width="6.67" height="10.00" fill="#8ef7e6" opacity="0.85"/><rect x="446.7" y="140.0" width="6.67" height="10.00" fill="#3aa7ff" opacity="0.45"/><rect x="460.0" y="140.0" width="6.67" height="10.00" fill="#1f4f86" opacity="0.50"/><rect x="473.3" y="140.0" width="6.67" height="10.00" fill="#1f4f86" opacity="0.50"/><rect x="480.0" y="140.0" width="6.67" height="10.00" fill="#1f4f86" opacity="0.50"/><rect x="580.0" y="140.0" width="6.67" height="10.00" fill="#1f4f86" opacity="0.50"/><rect x="600.0" y="140.0" width="6.67" height="10.00" fill="#1f4f86" opacity="0.50"/><rect x="606.7" y="140.0" width="6.67" height="10.00" fill="#3aa7ff" opacity="0.45"/><rect x="613.3" y="140.0" width="6.67" height="10.00" fill="#1f4f86" opacity="0.50"/><rect x="620.0" y="140.0" width="6.67" height="10.00" fill="#1f4f86" opacity="0.50"/><rect x="626.7" y="140.0" width="6.67" height="10.00" fill="#5de3ff" opacity="0.60"/><rect x="633.3" y="140.0" width="6.67" height="10.00" fill="#1f4f86" opacity="0.50"/><rect x="0.0" y="150.0" width="6.67" height="10.00" fill="#1f4f86" opacity="0.50"/><rect x="6.7" y="150.0" width="6.67" height="10.00" fill="#3aa7ff" opacity="0.45"/><rect x="26.7" y="150.0" width="6.67" height="10.00" fill="#3aa7ff" opacity="0.45"/><rect x="46.7" y="150.0" width="6.67" height="10.00" fill="#3aa7ff" opacity="0.45"/><rect x="53.3" y="150.0" width="6.67" height="10.00" fill="#3aa7ff" opacity="0.45"/><rect x="66.7" y="150.0" width="6.67" height="10.00" fill="#1f4f86" opacity="0.50"/><rect x="200.0" y="150.0" width="6.67" height="10.00" fill="#5de3ff" opacity="0.60"/><rect x="206.7" y="150.0" width="6.67" height="10.00" fill="#3aa7ff" opacity="0.45"/><rect x="233.3" y="150.0" width="6.67" height="10.00" fill="#5de3ff" opacity="0.60"/><rect x="260.0" y="150.0" width="6.67" height="10.00" fill="#1f4f86" opacity="0.50"/><rect x="380.0" y="150.0" width="6.67" height="10.00" fill="#1f4f86" opacity="0.50"/><rect x="386.7" y="150.0" width="6.67" height="10.00" fill="#3aa7ff" opacity="0.45"/><rect x="393.3" y="150.0" width="6.67" height="10.00" fill="#1f4f86" opacity="0.50"/><rect x="406.7" y="150.0" width="6.67" height="10.00" fill="#3aa7ff" opacity="0.45"/><rect x="413.3" y="150.0" width="6.67" height="10.00" fill="#5de3ff" opacity="0.60"/><rect x="433.3" y="150.0" width="6.67" height="10.00" fill="#5de3ff" opacity="0.60"/><rect x="600.0" y="150.0" width="6.67" height="10.00" fill="#5de3ff" opacity="0.60"/><rect x="606.7" y="150.0" width="6.67" height="10.00" fill="#3aa7ff" opacity="0.45"/><rect x="613.3" y="150.0" width="6.67" height="10.00" fill="#3aa7ff" opacity="0.45"/><rect x="620.0" y="150.0" width="6.67" height="10.00" fill="#3aa7ff" opacity="0.45"/><rect x="626.7" y="150.0" width="6.67" height="10.00" fill="#5de3ff" opacity="0.60"/><rect x="633.3" y="150.0" width="6.67" height="10.00" fill="#5de3ff" opacity="0.60"/></g>
  <polyline points="0,372.8 4,371.5 8,358.4 12,365.5 16,366.3 20,364.8 24,351.3 28,359.3 32,366.7 36,361.8 40,353.6 44,351.1 48,364.8 52,363.2 56,357.2 60,349.3 64,349.9 68,351.8 72,363.7 76,356.9 80,364.1 84,365.9 88,372.2 92,358.7 96,358.0 100,371.6 104,374.3 108,364.7 112,375.9 116,369.3 120,362.1 124,369.9 128,365.5 132,368.3 136,369.9 140,370.0 144,364.6 148,373.0 152,366.4 156,372.2 160,366.2 164,375.4 168,363.1 172,361.0 176,370.7 180,363.4 184,352.4 188,357.4 192,343.5 196,339.9 200,333.4 204,318.2 208,306.1 212,290.6 216,285.0 220,287.2 224,299.0 228,307.0 232,318.3 236,319.3 240,324.0 244,347.1 248,347.6 252,350.0 256,362.9 260,361.6 264,362.7 268,365.1 272,361.3 276,360.7 280,370.5 284,366.8 288,358.4 292,372.4 296,358.3 300,362.2 304,363.8 308,363.6 312,362.2 316,376.1 320,365.5 324,370.5 328,380.1 332,368.9 336,366.2 340,366.7 344,371.5 348,372.5 352,372.9 356,378.6 360,377.6 364,373.3 368,363.8 372,371.2 376,374.7 380,374.0 384,356.4 388,366.9 392,366.4 396,356.1 400,360.4 404,351.6 408,351.4 412,360.0 416,360.1 420,363.2 424,360.2 428,363.2 432,364.8 436,351.0 440,362.7 444,363.9 448,350.5 452,361.9 456,356.6 460,365.2 464,363.5 468,370.6 472,360.6 476,361.9 480,359.0 484,362.6 488,374.7 492,369.4 496,375.6 500,377.6 504,370.9 508,373.1 512,378.6 516,381.1 520,371.9 524,366.1 528,380.5 532,378.3 536,370.4 540,376.3 544,374.1 548,370.4 552,374.6 556,375.5 560,360.5 564,364.6 568,360.1 572,370.8 576,365.0 580,367.0 584,359.4 588,355.1 592,362.0 596,363.8 600,362.0 604,354.0 608,360.5 612,360.4 616,363.2 620,351.0 624,365.2 628,351.2 632,362.4 636,364.0 640,356.3" fill="none" stroke="url(#trace)" stroke-width="2.2" stroke-linejoin="round" filter="url(#glow)"/>
  <polygon points="0,560 0,372.8 4,371.5 8,358.4 12,365.5 16,366.3 20,364.8 24,351.3 28,359.3 32,366.7 36,361.8 40,353.6 44,351.1 48,364.8 52,363.2 56,357.2 60,349.3 64,349.9 68,351.8 72,363.7 76,356.9 80,364.1 84,365.9 88,372.2 92,358.7 96,358.0 100,371.6 104,374.3 108,364.7 112,375.9 116,369.3 120,362.1 124,369.9 128,365.5 132,368.3 136,369.9 140,370.0 144,364.6 148,373.0 152,366.4 156,372.2 160,366.2 164,375.4 168,363.1 172,361.0 176,370.7 180,363.4 184,352.4 188,357.4 192,343.5 196,339.9 200,333.4 204,318.2 208,306.1 212,290.6 216,285.0 220,287.2 224,299.0 228,307.0 232,318.3 236,319.3 240,324.0 244,347.1 248,347.6 252,350.0 256,362.9 260,361.6 264,362.7 268,365.1 272,361.3 276,360.7 280,370.5 284,366.8 288,358.4 292,372.4 296,358.3 300,362.2 304,363.8 308,363.6 312,362.2 316,376.1 320,365.5 324,370.5 328,380.1 332,368.9 336,366.2 340,366.7 344,371.5 348,372.5 352,372.9 356,378.6 360,377.6 364,373.3 368,363.8 372,371.2 376,374.7 380,374.0 384,356.4 388,366.9 392,366.4 396,356.1 400,360.4 404,351.6 408,351.4 412,360.0 416,360.1 420,363.2 424,360.2 428,363.2 432,364.8 436,351.0 440,362.7 444,363.9 448,350.5 452,361.9 456,356.6 460,365.2 464,363.5 468,370.6 472,360.6 476,361.9 480,359.0 484,362.6 488,374.7 492,369.4 496,375.6 500,377.6 504,370.9 508,373.1 512,378.6 516,381.1 520,371.9 524,366.1 528,380.5 532,378.3 536,370.4 540,376.3 544,374.1 548,370.4 552,374.6 556,375.5 560,360.5 564,364.6 568,360.1 572,370.8 576,365.0 580,367.0 584,359.4 588,355.1 592,362.0 596,363.8 600,362.0 604,354.0 608,360.5 612,360.4 616,363.2 620,351.0 624,365.2 628,351.2 632,362.4 636,364.0 640,356.3 640,560" fill="url(#trace)" opacity="0.07"/>
  <text x="320" y="108" font-family="ui-monospace, 'SF Mono', SFMono-Regular, Menlo, Consolas, monospace" font-size="15" letter-spacing="3.6" text-anchor="middle" fill="#5f708a">THE MAP GOES ROUND</text>
  <text x="320" y="174" font-family="ui-monospace, 'SF Mono', SFMono-Regular, Menlo, Consolas, monospace" font-size="58" font-weight="700" letter-spacing="-1" text-anchor="middle" fill="url(#accent)">v26.9.1</text>
  <circle cx="320" cy="296" r="88" fill="#8ef7e6" opacity="0.09" filter="url(#softglow)"/>
  <g transform="translate(320 296) scale(0.92)" color="#5de3ff" filter="url(#glow)"><circle r="76" fill="none" stroke="currentColor" stroke-width="2.6" opacity=".5"/><circle r="54" fill="none" stroke="currentColor" stroke-width="2" opacity=".26"/><path d="M0-76V-64" stroke="currentColor" stroke-width="3.4" stroke-linecap="round" opacity="1" transform="rotate(0)"/><path d="M0-76V-64" stroke="currentColor" stroke-width="2.2" stroke-linecap="round" opacity=".4" transform="rotate(45)"/><path d="M0-76V-64" stroke="currentColor" stroke-width="2.6" stroke-linecap="round" opacity=".55" transform="rotate(90)"/><path d="M0-76V-64" stroke="currentColor" stroke-width="2.2" stroke-linecap="round" opacity=".4" transform="rotate(135)"/><path d="M0-76V-64" stroke="currentColor" stroke-width="2.6" stroke-linecap="round" opacity=".55" transform="rotate(180)"/><path d="M0-76V-64" stroke="currentColor" stroke-width="2.2" stroke-linecap="round" opacity=".4" transform="rotate(225)"/><path d="M0-76V-64" stroke="currentColor" stroke-width="2.6" stroke-linecap="round" opacity=".55" transform="rotate(270)"/><path d="M0-76V-64" stroke="currentColor" stroke-width="2.2" stroke-linecap="round" opacity=".4" transform="rotate(315)"/><path d="M0 0 L44-44" stroke="currentColor" stroke-width="4.4" stroke-linecap="round"/><path d="M30-52 L48-48 L44-30" fill="none" stroke="currentColor" stroke-width="4" stroke-linecap="round" stroke-linejoin="round"/><circle r="7.5" fill="currentColor"/></g>
</svg>
